<svg width="234" height="130" viewBox="0 0 234 130" fill="none" xmlns="http://www.w3.org/2000/svg">
<g clip-path="url(#clip0_2155_5804)">
<path d="M234 0H0V130H234V0Z" fill="white"/>
<path d="M56.6515 100.784H50.5727L49.3013 104.437H46.4673L52.3953 88.7456H54.8419L60.7803 104.437H57.9359L56.6515 100.784ZM51.3371 98.584H55.8845L53.6095 92.0736L51.3371 98.584Z" fill="#353535"/>
<path d="M64.3213 104.437V88.7456H68.9545C70.3403 88.7456 71.5727 89.055 72.6465 89.6712C73.7203 90.29 74.5523 91.1662 75.1425 92.2998C75.7327 93.436 76.0265 94.736 76.0265 96.1998V96.9876C76.0265 98.4748 75.7301 99.7826 75.1373 100.911C74.5445 102.039 73.6995 102.908 72.6049 103.519C71.5103 104.13 70.2545 104.434 68.8375 104.434H64.3213V104.437ZM67.0487 90.9426V102.258H68.8271C70.2571 102.258 71.3543 101.811 72.1187 100.916C72.8831 100.022 73.2731 98.7374 73.2887 97.063V96.1894C73.2887 94.4864 72.9195 93.1864 72.1785 92.2868C71.4375 91.3898 70.3637 90.94 68.9571 90.94H67.0487V90.9426Z" fill="#353535"/>
<path d="M96.8109 97.7858H90.4955V104.437H87.7681V88.7456H97.7365V90.9452H90.4929V95.6122H96.8083V97.7858H96.8109Z" fill="#353535"/>
<path d="M104.538 104.437H101.821V88.7456H104.538V104.437Z" fill="#353535"/>
<path d="M122.101 104.437H119.374L112.38 93.3034V104.437H109.652V88.7456H112.38L119.397 99.9204V88.7456H122.101V104.437Z" fill="#353535"/>
<path d="M139.064 99.3276C138.905 101.002 138.289 102.307 137.21 103.246C136.131 104.184 134.698 104.652 132.91 104.652C131.659 104.652 130.559 104.356 129.608 103.763C128.656 103.17 127.92 102.328 127.403 101.236C126.885 100.144 126.615 98.8752 126.594 97.4322V95.9658C126.594 94.4864 126.857 93.1812 127.382 92.0528C127.907 90.9244 128.659 90.056 129.639 89.445C130.619 88.834 131.753 88.5298 133.04 88.5298C134.771 88.5298 136.165 88.9978 137.22 89.9364C138.276 90.875 138.89 92.201 139.064 93.9196H136.347C136.217 92.7912 135.889 91.9774 135.361 91.4782C134.834 90.979 134.059 90.7294 133.04 90.7294C131.854 90.7294 130.944 91.1636 130.307 92.0294C129.67 92.8952 129.345 94.1666 129.332 95.8436V97.2346C129.332 98.9324 129.636 100.227 130.242 101.119C130.85 102.011 131.737 102.455 132.91 102.455C133.981 102.455 134.784 102.214 135.322 101.733C135.861 101.252 136.201 100.451 136.347 99.3302H139.064V99.3276Z" fill="#353535"/>
<path d="M155.787 97.0007C155.787 98.5373 155.522 99.8868 154.989 101.046C154.456 102.206 153.697 103.098 152.709 103.719C151.721 104.341 150.584 104.653 149.297 104.653C148.026 104.653 146.892 104.341 145.897 103.719C144.901 103.098 144.134 102.211 143.59 101.062C143.047 99.9128 142.774 98.5867 142.766 97.0839V96.1999C142.766 94.6685 143.037 93.3191 143.58 92.1492C144.123 90.9792 144.888 90.0821 145.876 89.4607C146.864 88.8393 147.997 88.5273 149.277 88.5273C150.556 88.5273 151.689 88.8341 152.677 89.4477C153.665 90.0613 154.43 90.9453 154.968 92.0997C155.506 93.2515 155.779 94.5957 155.787 96.1245V97.0007ZM153.062 96.1817C153.062 94.4423 152.735 93.1111 152.077 92.1829C151.419 91.2547 150.488 90.7919 149.279 90.7919C148.101 90.7919 147.178 91.2547 146.515 92.1777C145.85 93.1007 145.512 94.4059 145.496 96.0959V97.0007C145.496 98.7245 145.832 100.058 146.505 101C147.176 101.941 148.109 102.411 149.303 102.411C150.509 102.411 151.437 101.951 152.09 101.031C152.74 100.11 153.065 98.7687 153.065 97.0007V96.1817H153.062Z" fill="#353535"/>
<path d="M166.036 98.3996H162.996V104.434H160.269V88.7432H165.786C167.596 88.7432 168.995 89.1488 169.977 89.9626C170.963 90.7764 171.454 91.9516 171.454 93.4908C171.454 94.5412 171.202 95.42 170.695 96.1272C170.188 96.8344 169.483 97.3804 168.579 97.76L172.102 104.294V104.434H169.182L166.036 98.3996ZM162.996 96.2026H165.799C166.72 96.2026 167.437 95.9712 167.955 95.5084C168.472 95.0456 168.729 94.4112 168.729 93.6052C168.729 92.7654 168.49 92.1154 168.012 91.6552C167.533 91.195 166.821 90.9584 165.872 90.9428H162.994V96.2026H162.996Z" fill="#353535"/>
<path d="M178.534 98.6154V104.434H175.807V88.7432H181.81C183.562 88.7432 184.956 89.2008 185.986 90.1134C187.018 91.026 187.533 92.235 187.533 93.7378C187.533 95.277 187.028 96.4756 186.019 97.331C185.011 98.1864 183.596 98.6154 181.779 98.6154H178.534ZM178.534 96.4184H181.81C182.78 96.4184 183.521 96.1896 184.03 95.7346C184.54 95.2796 184.795 94.6192 184.795 93.756C184.795 92.9084 184.537 92.2298 184.02 91.7254C183.503 91.2184 182.79 90.9584 181.885 90.9428H178.534V96.4184Z" fill="#353535"/>
<path d="M115.659 75.8938H102.196L98.6754 65.6758H79.971L76.4506 75.8938H63.3154L81.986 25.3472H96.9906L115.659 75.8938ZM95.5424 56.4094L89.3232 38.3004L83.104 56.4094H95.5424Z" fill="#8EC840"/>
<path d="M167.682 37.9258C165.68 34.317 162.934 31.4466 159.45 29.3198C157.415 28.0536 154.9 27.0734 151.913 26.3844C148.926 25.6954 145.371 25.3496 141.253 25.3496H122.92V75.8936H126.945L126.373 75.3762L138.076 62.4932L144.5 67.4098L160.498 48.6248L159.284 47.642L165.316 45.3462L164.234 51.7396L163.153 50.723L144.992 72.03L138.502 66.9496L130.333 75.8936H132.007L138.528 68.689L139.191 69.3208V75.8962H140.743C140.894 75.8962 141.04 75.8936 141.191 75.891V70.8444L145.067 73.72L148.731 69.5392V75.4152C149.342 75.3346 149.929 75.241 150.501 75.137V67.3734L157.976 58.497V72.6306C158.429 72.394 158.876 72.1496 159.315 71.8844C162.596 69.8928 165.311 67.0354 167.461 63.3122C169.611 59.589 170.685 55.3744 170.685 50.6684C170.688 45.783 169.687 41.5346 167.682 37.9258ZM139.194 62.657L138.047 61.8042L131.753 68.689V61.084H139.194V62.657ZM148.733 61.968L144.503 66.8196L141.193 64.2638V52.725H148.733V61.968ZM157.976 51.0194L150.501 59.771V40.3984H157.976V51.0194Z" fill="#8EC840"/>
</g>
<defs>
<clipPath id="clip0_2155_5804">
<rect width="234" height="130" fill="white"/>
</clipPath>
</defs>
</svg>
