<svg width="234" height="130" viewBox="0 0 234 130" fill="none" xmlns="http://www.w3.org/2000/svg">
<g clip-path="url(#clip0_2155_5776)">
<path d="M234 0H0V130H234V0Z" fill="white"/>
<path d="M120.796 49.2831L118.126 46.6129C117.117 45.6041 115.482 45.6041 114.473 46.6129L111.803 49.2831C111.283 49.8031 111.03 50.4895 111.046 51.1707C111.345 56.6047 108.586 59.3555 102.877 59.4439C102.804 59.4387 102.729 59.4361 102.656 59.4387C97.2218 59.7377 94.471 56.9791 94.3826 51.2695C94.3878 51.1941 94.3904 51.1213 94.3878 51.0459C94.0836 45.4975 96.9644 42.7467 102.918 42.7727C103.511 42.7259 104.088 42.4763 104.543 42.0239L107.214 39.3537C108.222 38.3449 108.222 36.7095 107.214 35.7007L104.543 33.0305C103.535 32.0217 101.899 32.0217 100.89 33.0305L98.2202 35.7007C97.7678 36.1531 97.5182 36.7329 97.4714 37.3257C97.4974 43.2797 94.7466 46.1631 89.1982 45.8563C88.517 45.8407 87.8306 46.0929 87.3106 46.6129L84.6404 49.2831C83.6316 50.2919 83.6316 51.9273 84.6404 52.9361L87.3106 55.6063C87.8046 56.1003 88.5092 56.4071 89.297 56.3577C94.9754 56.4435 97.734 59.1657 97.4714 64.5425C97.4298 65.2731 97.695 65.9907 98.2228 66.5185L100.893 69.1887C101.902 70.1975 103.537 70.1975 104.546 69.1887L107.216 66.5185C107.669 66.0661 107.918 65.4863 107.965 64.8935C107.939 58.9395 110.69 56.0561 116.238 56.3629C116.919 56.3785 117.606 56.1263 118.126 55.6063L120.796 52.9361C121.805 51.9273 121.805 50.2919 120.796 49.2831Z" fill="#0C2A43"/>
<path d="M98.2229 52.9361L100.893 55.6063C101.902 56.6151 103.537 56.6151 104.546 55.6063L107.216 52.9361C107.736 52.4161 107.989 51.7297 107.973 51.0485C107.674 45.6145 110.433 42.8637 116.142 42.7753C116.215 42.7805 116.29 42.7831 116.363 42.7805C121.797 42.4815 124.548 45.2401 124.636 50.9497C124.631 51.0251 124.629 51.0979 124.631 51.1733C124.935 56.7217 122.055 59.4725 116.101 59.4465C115.508 59.4933 114.931 59.7429 114.476 60.1953L111.805 62.8655C110.797 63.8743 110.797 65.5097 111.805 66.5185L114.476 69.1887C115.484 70.1975 117.12 70.1975 118.129 69.1887L120.799 66.5185C121.251 66.0661 121.501 65.4863 121.548 64.8935C121.522 58.9395 124.272 56.0561 129.821 56.3629C130.502 56.3785 131.188 56.1263 131.708 55.6063L134.379 52.9361C135.387 51.9273 135.387 50.2919 134.379 49.2831L131.708 46.6129C131.214 46.1189 130.51 45.8121 129.722 45.8615C124.044 45.7757 121.285 43.0535 121.548 37.6767C121.589 36.9461 121.324 36.2285 120.796 35.7007L118.126 33.0305C117.117 32.0217 115.482 32.0217 114.473 33.0305L111.803 35.7007C111.35 36.1531 111.101 36.7329 111.054 37.3257C111.08 43.2797 108.329 46.1631 102.781 45.8563C102.1 45.8407 101.413 46.0929 100.893 46.6129L98.2229 49.2831C97.2141 50.2919 97.2141 51.9273 98.2229 52.9361Z" fill="#ED4545"/>
<path d="M34.9676 87.1287V89.1489C34.9884 89.7339 35.2068 90.2357 35.9452 90.2357C37.0294 90.2357 37.0528 89.4115 37.0528 88.5197V76.0137H40.0922V87.8905C40.0922 88.9981 40.178 90.5841 39.203 91.6241C38.3138 92.5783 36.967 92.6875 35.4902 92.6875C34.4034 92.6875 33.1892 92.2741 32.3624 91.0157C31.9932 90.4307 31.8424 88.6263 31.9282 87.1287H34.9676Z" fill="#ED4545"/>
<path d="M42.9575 92.2975V76.0137H49.2989C50.0373 76.0137 51.5141 76.3387 52.4475 77.8597C53.1417 78.9881 53.3367 80.7899 53.3367 83.4835C53.3367 86.6971 53.3367 90.4099 50.8407 91.8659C50.1673 92.2559 49.3431 92.3001 48.5839 92.3001H42.9575V92.2975ZM47.3229 89.9081C50.0373 89.9081 50.2115 88.4755 50.2115 83.7643C50.2115 79.9215 49.8215 78.4005 47.9963 78.4005H45.9995V89.9081H47.3229Z" fill="#ED4545"/>
<path d="M56.1602 92.2975V76.0137H59.1996V92.2975H56.1602Z" fill="#ED4545"/>
<path d="M62.6655 76.0112H72.8055V78.4006H69.2669V92.2976H66.2275V78.4006H62.6655V76.0112Z" fill="#0C2A43"/>
<path d="M74.5449 92.2975V76.0137H83.0989V78.4031H77.5843V82.5059H82.6647V84.8953H77.5843V89.9107H83.0989V92.3001H74.5449V92.2975Z" fill="#0C2A43"/>
<path d="M95.1291 86.4997C95.1083 86.8039 95.0849 87.1289 95.0641 87.4331C94.9133 90.4075 93.9123 92.6877 90.5271 92.6877C85.5325 92.6877 85.2075 89.5183 85.2075 85.1737V82.8493C85.3375 78.7023 85.6625 75.6187 90.5271 75.6187C93.2415 75.6629 94.7599 77.0513 94.9783 79.8307C95.0225 80.2441 95.0641 80.6549 95.0433 81.0682H92.0481C91.9181 80.0257 92.0273 78.0731 90.5271 78.0731C88.1377 78.0731 88.3353 80.9175 88.3353 82.1759V86.6921C88.3353 88.0389 88.4445 90.2307 90.5271 90.2307C92.1989 90.2307 92.0039 87.5371 92.0689 86.4971H95.1291V86.4997Z" fill="#0C2A43"/>
<path d="M97.5601 92.2975V76.0137H100.599V82.4617H104.856V76.0137H107.895V92.2975H104.856V84.8511H100.599V92.2975H97.5601Z" fill="#0C2A43"/>
<path d="M118.103 76.0114H121.142V92.2952H117.973L115.607 86.4972C114.804 84.5654 114.154 82.5894 113.436 80.0258H113.392C113.501 81.3726 113.631 83.021 113.717 84.672C113.803 86.2996 113.868 87.9298 113.868 89.2324V92.2926H110.828V76.0088H113.977L116.343 81.9368C117.125 83.827 117.775 85.7588 118.514 88.4082H118.558C118.449 86.9314 118.34 85.348 118.254 83.7828C118.168 82.2176 118.103 80.655 118.103 79.2016V76.0114Z" fill="#0C2A43"/>
<path d="M123.945 82.8517C124.075 78.7047 124.4 75.6211 129.264 75.6211C134.129 75.6211 134.454 78.7047 134.584 82.8517V85.1761C134.584 89.5181 134.259 92.6901 129.264 92.6901C124.27 92.6901 123.945 89.5207 123.945 85.1761V82.8517ZM127.07 86.6945C127.07 88.0413 127.179 90.2331 129.262 90.2331C131.433 90.2331 131.454 87.9971 131.454 86.4345V82.2641C131.454 80.9615 131.519 78.0729 129.262 78.0729C126.872 78.0729 127.07 80.9173 127.07 82.1757V86.6945Z" fill="#0C2A43"/>
<path d="M137.363 92.2975V76.0137H140.403V89.9107H146.047V92.3001H137.363V92.2975Z" fill="#0C2A43"/>
<path d="M148.068 82.8517C148.198 78.7047 148.523 75.6211 153.387 75.6211C158.252 75.6211 158.577 78.7047 158.707 82.8517V85.1761C158.707 89.5181 158.382 92.6901 153.387 92.6901C148.393 92.6901 148.068 89.5207 148.068 85.1761V82.8517ZM151.196 86.6945C151.196 88.0413 151.305 90.2331 153.387 90.2331C155.558 90.2331 155.579 87.9971 155.579 86.4345V82.2641C155.579 80.9615 155.644 78.0729 153.387 78.0729C150.998 78.0729 151.196 80.9173 151.196 82.1757V86.6945Z" fill="#0C2A43"/>
<path d="M161.206 82.8517C161.336 78.7047 161.661 75.6211 166.525 75.6211C169.13 75.6419 170.932 76.3153 171.629 79.1389C171.78 79.7915 171.759 80.4623 171.78 81.1149H168.74C168.696 79.4639 168.59 78.1613 166.525 78.0755C164.136 78.0755 164.333 80.9199 164.333 82.1783V86.6945C164.333 88.0413 164.443 90.2331 166.525 90.2331C168.262 90.2331 168.826 88.3871 168.761 85.9327H166.655V83.5433H171.715V92.2949H169.435V90.4281H169.39C168.782 92.1207 167.633 92.5991 166.525 92.6875C161.531 92.6875 161.206 89.5181 161.206 85.1735V82.8517Z" fill="#0C2A43"/>
<path d="M174.777 92.2975V76.0137H177.817V92.2975H174.777Z" fill="#0C2A43"/>
<path d="M180.706 92.2975V76.0137H189.26V78.4031H183.745V82.5059H188.825V84.8953H183.745V89.9107H189.26V92.3001H180.706V92.2975Z" fill="#0C2A43"/>
<path d="M197.86 80.9617C197.881 79.5057 197.751 78.0731 196.079 78.0731C195.06 78.0731 194.408 78.4865 194.408 79.5941C194.408 80.8317 195.19 81.3101 196.144 81.9185C197.143 82.5477 198.989 83.7645 199.836 84.5887C200.879 85.6079 201.204 86.5855 201.204 87.9973C201.204 91.0809 199.163 92.6877 196.189 92.6877C192.541 92.6877 191.238 90.6467 191.238 87.7373V86.5438H194.278V87.4981C194.213 89.0841 194.691 90.2332 196.189 90.2332C197.47 90.2332 198.079 89.5599 198.079 88.3223C198.079 87.3681 197.645 86.7155 196.862 86.1721C195.276 84.9345 193.3 84.0453 192.062 82.4151C191.563 81.6767 191.28 80.7875 191.28 79.9191C191.28 77.1397 192.842 75.6187 196.056 75.6187C200.897 75.6187 200.767 79.3523 200.791 80.9591H197.86V80.9617Z" fill="#0C2A43"/>
</g>
<defs>
<clipPath id="clip0_2155_5776">
<rect width="234" height="130" fill="white"/>
</clipPath>
</defs>
</svg>
