<svg width="234" height="130" viewBox="0 0 234 130" fill="none" xmlns="http://www.w3.org/2000/svg">
<path d="M234 0H0V130H234V0Z" fill="white"/>
<path d="M39.8112 82.2305V94.7599H38.1758V82.2305H39.8112Z" fill="#10AD5D"/>
<path d="M56.7425 82.3188V94.7573H55.1071V85.4804L50.9731 94.7573H49.8213L45.6691 85.4648V94.7573H44.0337V82.3188H45.7965L50.3985 92.6019L55.0005 82.3188H56.7425Z" fill="#10AD5D"/>
<path d="M68.2578 88.494C67.5454 89.183 66.456 89.5262 64.9948 89.5262H62.5846V94.7574H60.9492V82.228H64.9948C66.4092 82.228 67.4856 82.5686 68.2214 83.2524C68.9572 83.9362 69.3264 84.8176 69.3264 85.894C69.3264 86.9392 68.9702 87.805 68.2578 88.494ZM67.0072 87.5866C67.4388 87.1914 67.6546 86.6272 67.6546 85.8966C67.6546 84.3496 66.768 83.5774 64.9948 83.5774H62.5846V88.1794H64.9948C65.9048 88.1794 66.5756 87.9818 67.0072 87.5866Z" fill="#10AD5D"/>
<path d="M75.2961 94.0682C74.3367 93.5222 73.5801 92.763 73.0211 91.7854C72.4647 90.8078 72.1865 89.708 72.1865 88.486C72.1865 87.264 72.4647 86.1642 73.0211 85.1866C73.5775 84.209 74.3367 83.4498 75.2961 82.9038C76.2555 82.3578 77.3163 82.0874 78.4785 82.0874C79.6537 82.0874 80.7197 82.3604 81.6791 82.9038C82.6385 83.4498 83.3925 84.2064 83.9437 85.1788C84.4949 86.1486 84.7705 87.2536 84.7705 88.486C84.7705 89.721 84.4949 90.8234 83.9437 91.7932C83.3925 92.763 82.6385 93.5222 81.6791 94.0682C80.7197 94.6142 79.6537 94.8846 78.4785 94.8846C77.3137 94.8846 76.2529 94.6142 75.2961 94.0682ZM80.8393 92.854C81.5413 92.4458 82.0925 91.866 82.4929 91.1094C82.8933 90.3554 83.0935 89.4792 83.0935 88.4834C83.0935 87.4772 82.8933 86.5984 82.4929 85.8496C82.0899 85.1008 81.5439 84.5236 80.8471 84.1154C80.1529 83.7072 79.3599 83.5044 78.4733 83.5044C77.5867 83.5044 76.7963 83.7072 76.0995 84.1154C75.4053 84.5236 74.8567 85.1008 74.4537 85.8496C74.0507 86.5984 73.8505 87.4772 73.8505 88.4834C73.8505 89.4792 74.0507 90.3528 74.4537 91.1094C74.8541 91.8634 75.4053 92.4458 76.1073 92.854C76.8093 93.2622 77.5971 93.465 78.4707 93.465C79.3521 93.465 80.1399 93.2622 80.8393 92.854Z" fill="#10AD5D"/>
<path d="M94.9596 94.7599L91.9748 89.6353H89.9962V94.7599H88.3608V82.2305H92.4064C93.3528 82.2305 94.1536 82.3917 94.8062 82.7167C95.4588 83.0391 95.9476 83.4785 96.27 84.0297C96.5924 84.5809 96.7562 85.2101 96.7562 85.9173C96.7562 86.7805 96.5066 87.5423 96.01 88.2001C95.5134 88.8605 94.7672 89.2973 93.7714 89.5131L96.9174 94.7625H94.9596V94.7599ZM89.9988 88.3249H92.409C93.2956 88.3249 93.9612 88.1065 94.4032 87.6697C94.8452 87.2329 95.0688 86.6479 95.0688 85.9173C95.0688 85.1737 94.8504 84.5991 94.4136 84.1909C93.9768 83.7827 93.3086 83.5799 92.409 83.5799H89.9988V88.3249Z" fill="#10AD5D"/>
<path d="M108.443 82.2305V83.5617H105.027V94.7599H103.391V83.5617H99.9595V82.2305H108.443Z" fill="#10AD5D"/>
<path d="M119.766 83.5618V87.7504H124.332V89.0998H119.766V93.4132H124.873V94.7626H118.131V82.2124H124.873V83.5618H119.766Z" fill="#10AD5D"/>
<path d="M133.915 88.5043L137.763 94.7599H135.912L132.909 89.8693L130.052 94.7599H128.237L132.067 88.5043L128.219 82.2305H130.052L133.07 87.1367L135.946 82.2305H137.779L133.915 88.5043Z" fill="#10AD5D"/>
<path d="M148.699 88.494C147.987 89.183 146.897 89.5262 145.436 89.5262H143.026V94.7574H141.391V82.228H145.436C146.851 82.228 147.927 82.5686 148.663 83.2524C149.399 83.9362 149.768 84.8176 149.768 85.894C149.77 86.9392 149.414 87.805 148.699 88.494ZM147.451 87.5866C147.883 87.1914 148.099 86.6272 148.099 85.8966C148.099 84.3496 147.212 83.5774 145.439 83.5774H143.029V88.1794H145.439C146.349 88.1794 147.02 87.9818 147.451 87.5866Z" fill="#10AD5D"/>
<path d="M155.738 94.0682C154.778 93.5222 154.022 92.763 153.463 91.7854C152.906 90.8078 152.628 89.708 152.628 88.486C152.628 87.264 152.906 86.1642 153.463 85.1866C154.019 84.209 154.778 83.4498 155.738 82.9038C156.697 82.3578 157.758 82.0874 158.92 82.0874C160.095 82.0874 161.161 82.3604 162.121 82.9038C163.08 83.4498 163.834 84.2064 164.385 85.1788C164.936 86.1486 165.212 87.2536 165.212 88.486C165.212 89.721 164.936 90.8234 164.385 91.7932C163.834 92.763 163.08 93.5222 162.121 94.0682C161.161 94.6142 160.095 94.8846 158.92 94.8846C157.758 94.8846 156.697 94.6142 155.738 94.0682ZM161.283 92.854C161.985 92.4458 162.537 91.866 162.937 91.1094C163.337 90.3554 163.538 89.4792 163.538 88.4834C163.538 87.4772 163.337 86.5984 162.937 85.8496C162.534 85.1008 161.988 84.5236 161.291 84.1154C160.597 83.7072 159.804 83.5044 158.917 83.5044C158.031 83.5044 157.24 83.7072 156.544 84.1154C155.849 84.5236 155.301 85.1008 154.898 85.8496C154.495 86.5984 154.295 87.4772 154.295 88.4834C154.295 89.4792 154.495 90.3528 154.898 91.1094C155.298 91.8634 155.849 92.4458 156.551 92.854C157.253 93.2622 158.041 93.465 158.915 93.465C159.794 93.465 160.581 93.2622 161.283 92.854Z" fill="#10AD5D"/>
<path d="M175.404 94.7599L172.419 89.6353H170.441V94.7599H168.805V82.2305H172.851C173.797 82.2305 174.598 82.3917 175.251 82.7167C175.903 83.0391 176.392 83.4785 176.714 84.0297C177.037 84.5809 177.201 85.2101 177.201 85.9173C177.201 86.7805 176.951 87.5423 176.454 88.2001C175.958 88.8605 175.212 89.2973 174.216 89.5131L177.362 94.7625H175.404V94.7599ZM170.441 88.3249H172.851C173.737 88.3249 174.403 88.1065 174.845 87.6697C175.287 87.2329 175.511 86.6479 175.511 85.9173C175.511 85.1737 175.292 84.5991 174.855 84.1909C174.419 83.7827 173.75 83.5799 172.851 83.5799H170.441V88.3249Z" fill="#10AD5D"/>
<path d="M188.885 82.2305V83.5617H185.468V94.7599H183.833V83.5617H180.401V82.2305H188.885Z" fill="#10AD5D"/>
<path d="M40.9241 66.1807L29.2267 49.5459H29.1929V74.0925H32.2869V59.1321L40.8747 71.0999H40.9397L49.6601 58.7239V74.0925H52.8529V49.5459H52.8191L40.9241 66.1807Z" fill="#0071BC"/>
<path d="M73.4188 65.6682C73.4188 66.7446 73.1718 67.704 72.6778 68.5464C72.1838 69.3914 71.4974 70.0544 70.6212 70.538C69.7424 71.0216 68.7466 71.2608 67.626 71.2608C66.573 71.2608 65.6136 71.019 64.7478 70.538C63.882 70.0544 63.1904 69.3914 62.6756 68.5464C62.1608 67.7014 61.9034 66.742 61.9034 65.6682V50.3022H58.708V65.767C58.708 67.5012 59.1032 69.0144 59.8936 70.3092C60.684 71.604 61.7578 72.6024 63.1176 73.3044C64.4774 74.0064 65.9802 74.3574 67.626 74.3574C69.2926 74.3574 70.8058 74.0064 72.1682 73.3044C73.528 72.6024 74.6044 71.604 75.3922 70.3092C76.1826 69.0144 76.5778 67.5012 76.5778 65.767V50.3022H73.4188V65.6682Z" fill="#0071BC"/>
<path d="M85.6259 50.3022H82.4331V74.0922H97.7029V71.032H85.6259V50.3022Z" fill="#0071BC"/>
<path d="M97.7026 53.3624H103.953V74.0922H107.146V53.3624H113.529V50.3022H97.7026V53.3624Z" fill="#0071BC"/>
<path d="M121.131 50.3022H117.938V74.0922H121.131V50.3022Z" fill="#0071BC"/>
<path d="M139.048 66.1807L127.351 49.5459H127.317V74.0925H130.411V59.1321L138.999 71.0999H139.064L147.784 58.7239V74.0925H150.977V49.5459H150.943L139.048 66.1807Z" fill="#0071BC"/>
<path d="M160.355 63.6948H171.311V60.6008H160.355V53.3624H172.63V50.3022H157.162V74.0922H173.09V71.032H160.355V63.6948Z" fill="#0071BC"/>
<path d="M175.984 50.3022L191.417 74.0922H195.531L180.032 50.3022H175.984Z" fill="#0071BC"/>
<path d="M175.656 74.0921H179.603L184.595 65.7097L182.778 62.9121L175.656 74.0921Z" fill="#10AD5D"/>
<path d="M202.634 35.1157C199.891 35.7059 197.062 36.3169 194.277 36.9149C195.468 37.6429 196.771 38.4411 198.12 39.2653C196.004 42.7259 193.482 46.8261 191.355 50.3023H191.352L186.618 58.2817L188.375 60.9805L195.026 50.5753L195.2 50.3023H195.192C197.249 46.9353 198.804 44.3613 200.92 40.8955C202.296 41.7379 203.603 42.5361 204.805 43.2719C204.066 40.4873 203.323 37.6949 202.634 35.1157Z" fill="#10AD5D"/>
</svg>
