<svg width="234" height="130" viewBox="0 0 234 130" fill="none" xmlns="http://www.w3.org/2000/svg">
<g clip-path="url(#clip0_2155_5858)">
<path d="M234 0H0V130H234V0Z" fill="white"/>
<path d="M69.0947 27.6014C69.0947 27.6014 82.7707 44.7276 106.199 34.143C129.628 23.5584 152.698 -1.41203 177.91 32.5986C177.91 32.5986 158.049 10.9536 119.043 40.682C80.0381 70.4104 69.0947 27.6014 69.0947 27.6014Z" fill="#0177C1"/>
<path d="M69.0947 21.5744C69.0947 21.5744 86.1013 42.1092 125.346 20.147C125.346 20.147 85.7035 51.464 69.0947 21.5744Z" fill="#0177C1"/>
<path d="M123.838 41.8727C123.838 41.8727 166.413 12.2223 179.574 40.9211C179.574 40.9211 168.316 20.7035 123.838 41.8727Z" fill="#0177C1"/>
<path d="M57.5951 60.5513V68.9779H56.9295C56.7137 67.3607 56.3289 66.0737 55.7699 65.1143C55.2135 64.1575 54.4205 63.3957 53.3883 62.8315C52.3587 62.2699 51.2927 61.9865 50.1903 61.9865C48.9449 61.9865 47.9153 62.3661 47.1015 63.1279C46.2877 63.8897 45.8795 64.7529 45.8795 65.7227C45.8795 66.4663 46.1369 67.1423 46.6517 67.7533C47.3953 68.6529 49.1607 69.8489 51.9505 71.3465C54.2255 72.5685 55.7803 73.5045 56.6123 74.1571C57.4443 74.8097 58.0865 75.5793 58.5337 76.4659C58.9835 77.3525 59.2071 78.2807 59.2071 79.2505C59.2071 81.0939 58.4921 82.6851 57.0595 84.0215C55.6269 85.3579 53.7861 86.0235 51.5345 86.0235C50.8273 86.0235 50.1617 85.9689 49.5403 85.8623C49.1685 85.8025 48.3989 85.5841 47.2315 85.2071C46.0641 84.8301 45.3231 84.6403 45.0137 84.6403C44.7147 84.6403 44.4781 84.7313 44.3039 84.9107C44.1297 85.0901 44.0023 85.4619 43.9165 86.0235H43.2509V77.6697H43.9165C44.2285 79.4195 44.6471 80.7273 45.1749 81.5957C45.7027 82.4641 46.5061 83.1869 47.5903 83.7615C48.6745 84.3361 49.8627 84.6247 51.1575 84.6247C52.6551 84.6247 53.8381 84.2295 54.7065 83.4391C55.5749 82.6487 56.0091 81.7153 56.0091 80.6363C56.0091 80.0383 55.8453 79.4325 55.5151 78.8215C55.1849 78.2105 54.6727 77.6411 53.9785 77.1159C53.5105 76.7571 52.2365 75.9927 50.1513 74.8253C48.0661 73.6579 46.5841 72.7271 45.7053 72.0329C44.8265 71.3387 44.1583 70.5717 43.7033 69.7345C43.2483 68.8973 43.0195 67.9743 43.0195 66.9681C43.0195 65.2209 43.6903 63.7129 45.0319 62.4493C46.3735 61.1857 48.0791 60.5539 50.1513 60.5539C51.4435 60.5539 52.8163 60.8711 54.2645 61.5055C54.9353 61.8045 55.4085 61.9553 55.6841 61.9553C55.9961 61.9553 56.2509 61.8617 56.4485 61.6771C56.6461 61.4925 56.8047 61.1181 56.9243 60.5539H57.5951V60.5513Z" fill="#0177C1"/>
<path d="M68.1409 62.4362V72.0666H73.4943C74.8827 72.0666 75.8109 71.856 76.2789 71.4374C76.9003 70.8862 77.2487 69.9164 77.3215 68.528H77.9871V77.0092H77.3215C77.1525 75.8236 76.9861 75.0618 76.8197 74.7264C76.6039 74.3078 76.2503 73.9776 75.7589 73.7384C75.2675 73.4992 74.5135 73.3796 73.4943 73.3796H68.1409V81.411C68.1409 82.49 68.1877 83.1452 68.2839 83.3792C68.3801 83.6132 68.5465 83.7978 68.7857 83.9356C69.0249 84.0734 69.4799 84.141 70.1507 84.141H74.2821C75.6601 84.141 76.6585 84.0448 77.2825 83.8524C77.9039 83.66 78.5045 83.283 79.0791 82.7214C79.8227 81.9778 80.5819 80.8598 81.3619 79.3622H82.0795L79.9787 85.4696H61.2041V84.804H62.0673C62.6419 84.804 63.1879 84.6662 63.7027 84.3906C64.0849 84.1982 64.3475 83.9122 64.4853 83.5274C64.6231 83.1452 64.6907 82.36 64.6907 81.1744V65.3456C64.6907 63.8012 64.5347 62.8496 64.2227 62.4882C63.7911 62.0098 63.0735 61.7706 62.0673 61.7706H61.2041V61.105H79.9787L80.2491 66.4402H79.5497C79.2975 65.1584 79.0193 64.2796 78.7151 63.7986C78.4109 63.3202 77.9585 62.9536 77.3579 62.704C76.8795 62.5246 76.0345 62.4336 74.8255 62.4336H68.1409V62.4362Z" fill="#0177C1"/>
<path d="M99.0234 77.3133H89.5906L87.937 81.1587C87.5289 82.1051 87.326 82.8123 87.326 83.2777C87.326 83.6495 87.5029 83.9745 87.8565 84.2579C88.2101 84.5387 88.9718 84.7233 90.147 84.8065V85.4721H82.4771V84.8065C83.4963 84.6271 84.1541 84.3931 84.4531 84.1045C85.0641 83.5299 85.7401 82.3625 86.4837 80.6023L95.0532 60.5537H95.6825L104.161 80.8181C104.845 82.4483 105.464 83.5039 106.02 83.9901C106.576 84.4763 107.351 84.7467 108.347 84.8065V85.4721H98.7348V84.8065C99.7046 84.7597 100.36 84.5959 100.703 84.3203C101.044 84.0447 101.215 83.7093 101.215 83.3141C101.215 82.7863 100.976 81.9543 100.498 80.8181L99.0234 77.3133ZM98.5216 75.9821L94.3903 66.1359L90.1497 75.9821H98.5216Z" fill="#0177C1"/>
<path d="M131.329 60.5513V68.9779H130.663C130.447 67.3607 130.062 66.0737 129.503 65.1143C128.947 64.1575 128.154 63.3957 127.122 62.8315C126.092 62.2699 125.026 61.9865 123.924 61.9865C122.678 61.9865 121.649 62.3661 120.835 63.1279C120.021 63.8897 119.613 64.7529 119.613 65.7227C119.613 66.4663 119.87 67.1423 120.385 67.7533C121.129 68.6529 122.894 69.8489 125.684 71.3465C127.959 72.5685 129.514 73.5045 130.346 74.1571C131.178 74.8097 131.82 75.5793 132.267 76.4659C132.717 77.3525 132.941 78.2807 132.941 79.2505C132.941 81.0939 132.226 82.6851 130.793 84.0215C129.36 85.3579 127.52 86.0235 125.268 86.0235C124.561 86.0235 123.895 85.9689 123.274 85.8623C122.902 85.8025 122.132 85.5841 120.965 85.2071C119.798 84.8301 119.057 84.6403 118.747 84.6403C118.448 84.6403 118.212 84.7313 118.037 84.9107C117.863 85.0901 117.736 85.4619 117.65 86.0235H116.984V77.6697H117.65C117.962 79.4195 118.381 80.7273 118.908 81.5957C119.436 82.4641 120.24 83.1869 121.324 83.7615C122.408 84.3361 123.596 84.6247 124.891 84.6247C126.389 84.6247 127.572 84.2295 128.44 83.4391C129.308 82.6487 129.743 81.7153 129.743 80.6363C129.743 80.0383 129.579 79.4325 129.249 78.8215C128.918 78.2105 128.406 77.6411 127.712 77.1159C127.244 76.7571 125.97 75.9927 123.885 74.8253C121.8 73.6579 120.318 72.7271 119.439 72.0329C118.56 71.3387 117.892 70.5717 117.437 69.7345C116.982 68.8973 116.753 67.9743 116.753 66.9681C116.753 65.2209 117.424 63.7129 118.765 62.4493C120.107 61.1857 121.813 60.5539 123.885 60.5539C125.177 60.5539 126.55 60.8711 127.998 61.5055C128.669 61.8045 129.142 61.9553 129.418 61.9553C129.73 61.9553 129.984 61.8617 130.182 61.6771C130.38 61.4925 130.538 61.1181 130.658 60.5539H131.329V60.5513Z" fill="#013E7D"/>
<path d="M145.54 84.804V85.4696H135.101V84.804H135.964C136.97 84.804 137.701 84.5102 138.156 83.9226C138.445 83.5404 138.588 82.6174 138.588 81.1562V65.4184C138.588 64.186 138.51 63.3696 138.354 62.9744C138.234 62.6754 137.987 62.418 137.618 62.2022C137.09 61.9136 136.539 61.7706 135.964 61.7706H135.101V61.105H145.54V61.7706H144.659C143.665 61.7706 142.94 62.0644 142.485 62.652C142.186 63.0342 142.035 63.9572 142.035 65.4184V81.1562C142.035 82.3886 142.113 83.205 142.269 83.6002C142.389 83.8992 142.641 84.1566 143.023 84.3724C143.538 84.661 144.084 84.804 144.659 84.804H145.54Z" fill="#013E7D"/>
<path d="M146.331 85.4696V84.804H147.246C148.275 84.804 149.006 84.4738 149.438 83.816C149.7 83.4208 149.833 82.5342 149.833 81.1562V65.4184C149.833 63.8974 149.664 62.9458 149.331 62.561C148.863 62.0332 148.169 61.7706 147.246 61.7706H146.331V61.105H156.247C159.887 61.105 162.659 61.5184 164.557 62.3452C166.455 63.172 167.981 64.55 169.138 66.4766C170.295 68.4058 170.872 70.634 170.872 73.1612C170.872 76.5516 169.842 79.383 167.783 81.658C165.472 84.1982 161.951 85.467 157.219 85.467H146.331V85.4696ZM153.283 83.7094C154.804 84.0448 156.081 84.2112 157.11 84.2112C159.89 84.2112 162.193 83.2362 164.026 81.2836C165.859 79.331 166.774 76.6842 166.774 73.3432C166.774 69.9762 165.859 67.3242 164.026 65.3846C162.193 63.445 159.84 62.4752 156.965 62.4752C155.886 62.4752 154.658 62.6494 153.28 62.9952V83.7094H153.283Z" fill="#013E7D"/>
<path d="M179.226 62.4362V72.0666H184.579C185.968 72.0666 186.896 71.856 187.364 71.4374C187.985 70.8862 188.334 69.9164 188.406 68.528H189.072V77.0092H188.406C188.237 75.8236 188.071 75.0618 187.905 74.7264C187.689 74.3078 187.335 73.9776 186.844 73.7384C186.352 73.4992 185.598 73.3796 184.579 73.3796H179.226V81.411C179.226 82.49 179.273 83.1452 179.369 83.3792C179.465 83.6132 179.631 83.7978 179.871 83.9356C180.11 84.0734 180.565 84.141 181.236 84.141H185.367C186.745 84.141 187.743 84.0448 188.367 83.8524C188.989 83.66 189.589 83.283 190.164 82.7214C190.908 81.9778 191.667 80.8598 192.447 79.3622H193.164L191.064 85.4696H172.289V84.804H173.152C173.727 84.804 174.273 84.6662 174.788 84.3906C175.17 84.1982 175.432 83.9122 175.57 83.5274C175.708 83.1452 175.776 82.36 175.776 81.1744V65.3456C175.776 63.8012 175.62 62.8496 175.308 62.4882C174.876 62.0098 174.158 61.7706 173.152 61.7706H172.289V61.105H191.064L191.334 66.4402H190.635C190.382 65.1584 190.104 64.2796 189.8 63.7986C189.496 63.3202 189.043 62.9536 188.443 62.704C187.964 62.5246 187.119 62.4336 185.91 62.4336H179.226V62.4362Z" fill="#013E7D"/>
<path d="M69.7712 95.3158H66.217V104.086H64.8936V95.3158H61.3394V94.1406H69.7686V95.3158H69.7712Z" fill="#0177C1"/>
<path d="M85.904 104.088H84.188L80.86 100.134H78.9958V104.088H77.6724V94.1406H80.457C81.0576 94.1406 81.5594 94.1796 81.9598 94.2576C82.3602 94.3356 82.7216 94.4734 83.0414 94.6762C83.4028 94.9024 83.6836 95.1884 83.8864 95.5342C84.0892 95.88 84.1906 96.3168 84.1906 96.8472C84.1906 97.5648 84.0112 98.1654 83.6498 98.6464C83.2884 99.13 82.7918 99.494 82.16 99.7384L85.904 104.088ZM82.81 96.9382C82.81 96.6522 82.7606 96.4 82.6592 96.179C82.5578 95.958 82.394 95.7734 82.1626 95.62C81.9702 95.49 81.744 95.4016 81.4814 95.3496C81.2188 95.2976 80.9094 95.2742 80.5532 95.2742H78.9958V99.0286H80.3322C80.7508 99.0286 81.1148 98.9922 81.4268 98.9194C81.7388 98.8466 82.004 98.7088 82.2224 98.5086C82.4226 98.3214 82.5708 98.1056 82.667 97.8638C82.7632 97.622 82.81 97.3126 82.81 96.9382Z" fill="#0177C1"/>
<path d="M101.595 104.088H100.186L99.2109 101.317H94.9079L93.9329 104.088H92.5913L96.2131 94.1406H97.9759L101.595 104.088ZM98.8027 100.18L97.0581 95.2976L95.3083 100.18H98.8027Z" fill="#0177C1"/>
<path d="M118.077 99.1247C118.077 100.029 117.879 100.848 117.486 101.584C117.091 102.32 116.569 102.889 115.913 103.295C115.458 103.576 114.951 103.779 114.392 103.903C113.833 104.028 113.098 104.091 112.185 104.091H109.673V94.1431H112.159C113.129 94.1431 113.901 94.2133 114.473 94.3537C115.045 94.4941 115.529 94.6865 115.926 94.9309C116.602 95.3547 117.13 95.9163 117.51 96.6209C117.887 97.3229 118.077 98.1575 118.077 99.1247ZM116.693 99.1039C116.693 98.3239 116.558 97.6687 116.285 97.1331C116.012 96.5975 115.609 96.1789 115.068 95.8695C114.676 95.6459 114.26 95.4925 113.82 95.4041C113.381 95.3157 112.853 95.2741 112.237 95.2741H110.994V102.949H112.237C112.874 102.949 113.43 102.902 113.904 102.809C114.377 102.715 114.814 102.541 115.209 102.289C115.703 101.972 116.075 101.556 116.322 101.041C116.569 100.523 116.693 99.8787 116.693 99.1039Z" fill="#0177C1"/>
<path d="M133.333 104.088H126.781V94.1406H133.333V95.3158H128.102V98.0406H133.333V99.2158H128.102V102.91H133.333V104.088Z" fill="#0177C1"/>
<path d="M150.228 104.088H148.512L145.184 100.134H143.32V104.088H141.997V94.1406H144.781C145.382 94.1406 145.884 94.1796 146.284 94.2576C146.684 94.3356 147.046 94.4734 147.366 94.6762C147.727 94.9024 148.008 95.1884 148.211 95.5342C148.413 95.88 148.515 96.3168 148.515 96.8472C148.515 97.5648 148.333 98.1654 147.974 98.6464C147.615 99.1274 147.116 99.494 146.484 99.7384L150.228 104.088ZM147.134 96.9382C147.134 96.6522 147.085 96.4 146.983 96.179C146.882 95.958 146.718 95.7734 146.487 95.62C146.294 95.49 146.068 95.4016 145.806 95.3496C145.543 95.2976 145.234 95.2742 144.877 95.2742H143.32V99.0286H144.656C145.075 99.0286 145.442 98.9922 145.751 98.9194C146.063 98.8466 146.328 98.7088 146.547 98.5086C146.747 98.3214 146.895 98.1056 146.991 97.8638C147.087 97.622 147.134 97.3126 147.134 96.9382Z" fill="#0177C1"/>
<path d="M165.306 101.249C165.306 101.636 165.215 102.019 165.035 102.398C164.856 102.778 164.601 103.098 164.276 103.36C163.92 103.646 163.504 103.867 163.031 104.028C162.558 104.19 161.986 104.268 161.317 104.268C160.6 104.268 159.955 104.2 159.383 104.067C158.811 103.935 158.229 103.735 157.636 103.472V101.816H157.729C158.234 102.234 158.814 102.557 159.474 102.786C160.134 103.012 160.753 103.126 161.33 103.126C162.149 103.126 162.789 102.973 163.244 102.666C163.699 102.359 163.928 101.948 163.928 101.436C163.928 100.994 163.819 100.669 163.603 100.461C163.387 100.253 163.059 100.089 162.617 99.9725C162.282 99.8841 161.921 99.8087 161.531 99.7515C161.141 99.6943 160.727 99.6215 160.29 99.5305C159.409 99.3433 158.756 99.0235 158.33 98.5711C157.906 98.1187 157.693 97.5311 157.693 96.8031C157.693 95.9711 158.044 95.2873 158.749 94.7543C159.453 94.2213 160.345 93.9561 161.427 93.9561C162.126 93.9561 162.768 94.0237 163.351 94.1563C163.933 94.2889 164.45 94.4553 164.9 94.6503V96.2129H164.807C164.427 95.8931 163.93 95.6253 163.314 95.4147C162.698 95.2041 162.066 95.0975 161.419 95.0975C160.712 95.0975 160.142 95.2457 159.713 95.5395C159.284 95.8333 159.068 96.2129 159.068 96.6757C159.068 97.0891 159.175 97.4141 159.388 97.6507C159.601 97.8873 159.978 98.0667 160.517 98.1915C160.803 98.2539 161.208 98.3293 161.733 98.4177C162.259 98.5061 162.703 98.5971 163.07 98.6907C163.808 98.8857 164.365 99.1821 164.739 99.5799C165.119 99.9803 165.306 100.537 165.306 101.249Z" fill="#0177C1"/>
</g>
<defs>
<clipPath id="clip0_2155_5858">
<rect width="234" height="130" fill="white"/>
</clipPath>
</defs>
</svg>
