<svg width="234" height="130" viewBox="0 0 234 130" fill="none" xmlns="http://www.w3.org/2000/svg">
<g clip-path="url(#clip0_2155_5824)">
<path d="M234 0H0V130H234V0Z" fill="white"/>
<path d="M100.747 62.9278L90.8543 53.1076L91.4029 53.2844L91.4549 62.4858H89.5439V49.231H89.6323L99.4005 59.0694L98.9585 58.9446L98.9221 49.6366H100.797V62.9278H100.747Z" fill="#214077"/>
<path d="M103.119 62.4859L108.763 49.1245H108.87L114.514 62.4859H112.356L108.251 52.0807L109.613 51.1785L104.978 62.4859H103.119ZM106.551 57.6733H111.116L111.771 59.3009H105.984L106.551 57.6733Z" fill="#214077"/>
<path d="M128.016 62.9278L118.123 53.1076L118.672 53.2844L118.724 62.4858H116.813V49.231H116.901L126.67 59.0694L126.228 58.9446L126.191 49.6366H128.066V62.9278H128.016Z" fill="#214077"/>
<path d="M131.698 62.4858V49.6392H135.273C136.547 49.6392 137.631 49.8342 138.528 50.2242C139.425 50.6142 140.148 51.1264 140.696 51.7634C141.245 52.4004 141.645 53.1076 141.9 53.8876C142.155 54.665 142.28 55.4502 142.28 56.2406C142.28 57.1974 142.108 58.058 141.768 58.825C141.424 59.592 140.959 60.2498 140.369 60.7984C139.779 61.347 139.1 61.7656 138.333 62.0542C137.566 62.3428 136.752 62.4884 135.892 62.4884H131.698V62.4858ZM133.591 60.6632H135.538C136.235 60.6632 136.874 60.5644 137.457 60.3616C138.042 60.1614 138.549 59.865 138.978 59.4776C139.409 59.0876 139.742 58.6092 139.979 58.045C140.215 57.4782 140.332 56.8308 140.332 56.0976C140.332 55.3072 140.2 54.6208 139.935 54.0358C139.669 53.4508 139.318 52.9672 138.882 52.585C138.445 52.2028 137.959 51.9194 137.42 51.7348C136.882 51.5528 136.339 51.4618 135.782 51.4618H133.588V60.6632H133.591Z" fill="#214077"/>
<path d="M147.004 54.6989L146.952 55.3359L147.217 54.9641L152.243 49.6367H154.684L149.375 55.2111L154.931 62.4833H152.542L147.994 56.3967L147.004 57.3691V62.4833H145.093V49.6367H147.004V54.6989Z" fill="#214077"/>
<path d="M157.196 49.6392H159.089V62.4858H157.196V49.6392Z" fill="#214077"/>
<path d="M169.39 52.0992C168.94 51.8626 168.457 51.6624 167.939 51.4986C167.419 51.3322 166.918 51.2515 166.434 51.2515C165.774 51.2515 165.248 51.4024 164.858 51.704C164.468 52.0056 164.273 52.4137 164.273 52.9337C164.273 53.3003 164.403 53.6176 164.663 53.8906C164.923 54.161 165.259 54.3976 165.672 54.5978C166.086 54.798 166.522 54.9877 166.983 55.1645C167.373 55.3049 167.757 55.474 168.142 55.669C168.524 55.864 168.873 56.1031 169.187 56.3865C169.499 56.6699 169.746 57.0209 169.931 57.4395C170.113 57.8581 170.207 58.3677 170.207 58.9709C170.207 59.6547 170.038 60.2736 169.702 60.83C169.367 61.3838 168.883 61.8231 168.251 62.1481C167.62 62.4731 166.855 62.6343 165.961 62.6343C165.417 62.6343 164.89 62.572 164.377 62.4498C163.865 62.325 163.382 62.1611 162.927 61.9531C162.472 61.7477 162.063 61.519 161.697 61.272L162.547 59.8029C162.83 60.0031 163.155 60.1955 163.519 60.3776C163.886 60.5596 164.266 60.7051 164.661 60.8117C165.056 60.9184 165.43 60.9704 165.784 60.9704C166.174 60.9704 166.556 60.9028 166.933 60.7676C167.31 60.6323 167.622 60.4192 167.872 60.1306C168.119 59.842 168.244 59.4598 168.244 58.9892C168.244 58.5888 168.134 58.2481 167.916 57.9726C167.698 57.6944 167.409 57.4552 167.05 57.255C166.691 57.0548 166.304 56.8779 165.891 56.7245C165.49 56.5711 165.082 56.3995 164.669 56.2123C164.255 56.0225 163.873 55.7964 163.519 55.5312C163.166 55.266 162.88 54.9358 162.661 54.5406C162.443 54.1454 162.334 53.6592 162.334 53.082C162.334 52.3982 162.495 51.8002 162.82 51.2854C163.145 50.7732 163.595 50.3675 164.175 50.0737C164.752 49.7799 165.42 49.6135 166.174 49.5771C167.035 49.5771 167.783 49.6837 168.42 49.8943C169.057 50.1075 169.624 50.3598 170.118 50.6562L169.39 52.0992Z" fill="#214077"/>
<path d="M183.297 49.6392V62.4858H181.404V56.9478H174.891V62.4858H172.999V49.6392H174.891V55.1434H181.404V49.6392H183.297Z" fill="#214077"/>
<path d="M186.113 56.0795C186.113 55.1955 186.282 54.3557 186.618 53.5653C186.953 52.7749 187.424 52.0729 188.024 51.4593C188.625 50.8457 189.322 50.3647 190.112 50.0163C190.902 49.6679 191.753 49.4937 192.66 49.4937C193.557 49.4937 194.399 49.6679 195.19 50.0163C195.98 50.3647 196.682 50.8457 197.296 51.4593C197.909 52.0729 198.388 52.7749 198.728 53.5653C199.072 54.3557 199.241 55.1929 199.241 56.0795C199.241 56.9869 199.069 57.8371 198.728 58.6275C198.385 59.4179 197.912 60.1147 197.304 60.7153C196.695 61.3159 195.993 61.7864 195.198 62.1219C194.402 62.4572 193.554 62.6263 192.657 62.6263C191.75 62.6263 190.9 62.4599 190.109 62.1297C189.319 61.7995 188.622 61.3367 188.022 60.7413C187.421 60.1459 186.95 59.4491 186.615 58.6535C186.28 57.8579 186.113 56.9999 186.113 56.0795ZM188.058 56.0795C188.058 56.7399 188.178 57.3561 188.422 57.9281C188.664 58.5001 188.997 59.0019 189.423 59.4335C189.847 59.8651 190.341 60.2005 190.9 60.4423C191.459 60.6841 192.065 60.8063 192.715 60.8063C193.352 60.8063 193.947 60.6867 194.501 60.4423C195.055 60.2005 195.541 59.8651 195.959 59.4335C196.378 59.0019 196.706 58.5027 196.942 57.9281C197.179 57.3561 197.296 56.7399 197.296 56.0795C197.296 55.4191 197.174 54.8029 196.932 54.2309C196.69 53.6589 196.36 53.1545 195.941 52.7177C195.523 52.2809 195.034 51.9377 194.472 51.6907C193.911 51.4437 193.313 51.3189 192.676 51.3189C192.015 51.3189 191.407 51.4437 190.853 51.6907C190.299 51.9377 189.808 52.2809 189.384 52.7177C188.96 53.1545 188.633 53.6615 188.401 54.2387C188.175 54.8185 188.058 55.4321 188.058 56.0795Z" fill="#214077"/>
<path d="M205.577 49.6392C206.25 49.6392 206.872 49.7302 207.444 49.9148C208.016 50.0968 208.504 50.3594 208.913 50.7026C209.321 51.0458 209.638 51.467 209.869 51.9688C210.101 52.4706 210.215 53.0504 210.215 53.7108C210.215 54.2178 210.137 54.7196 209.986 55.2162C209.833 55.7128 209.586 56.16 209.243 56.5604C208.9 56.9608 208.452 57.2832 207.899 57.525C207.345 57.7668 206.653 57.889 205.829 57.889H203.954V62.491H202.062V49.6444H205.577V49.6392ZM205.79 56.0794C206.274 56.0794 206.677 56.004 207.002 55.8506C207.327 55.6972 207.579 55.5048 207.763 55.276C207.945 55.0472 208.075 54.7976 208.153 54.5324C208.229 54.2672 208.268 54.0098 208.268 53.7628C208.268 53.5262 208.229 53.2792 208.153 53.0192C208.075 52.7592 207.948 52.5122 207.763 52.2756C207.581 52.039 207.334 51.844 207.03 51.6906C206.723 51.5372 206.346 51.4618 205.897 51.4618H203.949V56.0794H205.79ZM207.966 57.1766L211.294 62.4858H209.1L205.72 57.2312L207.966 57.1766Z" fill="#214077"/>
<path d="M102.089 72.7017C102.502 72.7017 102.874 72.7589 103.209 72.8707C103.542 72.9825 103.823 73.1437 104.052 73.3543C104.281 73.5649 104.447 73.8249 104.551 74.1317C104.655 74.4411 104.684 74.7973 104.632 75.2029C104.587 75.5149 104.502 75.8217 104.372 76.1259C104.242 76.4301 104.057 76.7057 103.818 76.9527C103.579 77.1997 103.28 77.3973 102.921 77.5455C102.562 77.6937 102.128 77.7691 101.621 77.7691H100.469L100.121 80.5953H98.9688L99.9255 72.7017H102.089ZM101.74 76.6589C102.138 76.6589 102.458 76.5809 102.697 76.4249C102.936 76.2689 103.113 76.0817 103.23 75.8607C103.347 75.6397 103.412 75.4317 103.425 75.2367C103.446 75.0911 103.443 74.9403 103.415 74.7791C103.386 74.6205 103.324 74.4671 103.23 74.3215C103.137 74.1759 102.999 74.0563 102.822 73.9627C102.645 73.8691 102.419 73.8223 102.143 73.8223H100.947L100.609 76.6615H101.74V76.6589ZM102.981 77.3349L104.634 80.5979H103.285L101.6 77.3687L102.981 77.3349Z" fill="#EE750D"/>
<path d="M114.148 80.6731C113.677 80.6731 113.214 80.5951 112.762 80.4391C112.309 80.2831 111.904 80.0491 111.545 79.7371C111.186 79.4251 110.9 79.0351 110.687 78.5671C110.474 78.0991 110.367 77.5531 110.367 76.9317C110.367 76.4533 110.456 75.9619 110.632 75.4575C110.809 74.9531 111.077 74.4877 111.436 74.0587C111.795 73.6323 112.242 73.2839 112.78 73.0213C113.318 72.7587 113.94 72.6235 114.649 72.6235C115.128 72.6235 115.591 72.7015 116.04 72.8575C116.49 73.0135 116.896 73.2475 117.257 73.5595C117.619 73.8715 117.907 74.2641 118.123 74.7347C118.336 75.2053 118.443 75.7539 118.443 76.3753C118.443 76.8537 118.352 77.3451 118.17 77.8495C117.988 78.3539 117.72 78.8167 117.366 79.2405C117.01 79.6643 116.566 80.0101 116.03 80.2727C115.492 80.5405 114.865 80.6731 114.148 80.6731ZM114.171 79.5525C114.699 79.5525 115.159 79.4563 115.546 79.2639C115.934 79.0715 116.254 78.8219 116.503 78.5125C116.753 78.2057 116.94 77.8677 117.062 77.5011C117.184 77.1345 117.247 76.7783 117.247 76.4299C117.247 76.0685 117.179 75.7279 117.047 75.4081C116.911 75.0883 116.727 74.8049 116.493 74.5553C116.256 74.3057 115.981 74.1081 115.661 73.9625C115.341 73.8169 114.99 73.7441 114.605 73.7441C114.07 73.7441 113.609 73.8403 113.225 74.0327C112.84 74.2251 112.525 74.4773 112.278 74.7893C112.031 75.1013 111.849 75.4393 111.735 75.8059C111.618 76.1725 111.561 76.5261 111.561 76.8667C111.561 77.2281 111.623 77.5713 111.75 77.8937C111.878 78.2161 112.057 78.5021 112.289 78.7517C112.52 79.0013 112.796 79.1963 113.115 79.3393C113.435 79.4823 113.786 79.5525 114.171 79.5525Z" fill="#EE750D"/>
<path d="M123.892 80.5951H122.751L127.231 72.3843H127.296L129.763 80.5951H128.427L126.687 74.2225L127.59 73.6791L123.892 80.5951ZM125.229 77.6389H128.045L128.305 78.6399H124.761L125.229 77.6389Z" fill="#EE750D"/>
<path d="M135.538 80.5953L136.494 72.7017H138.907C139.633 72.7017 140.238 72.8135 140.722 73.0397C141.208 73.2633 141.588 73.5623 141.858 73.9367C142.131 74.3111 142.316 74.7297 142.417 75.1977C142.519 75.6657 142.547 76.1415 142.503 76.6277C142.451 77.2517 142.305 77.8081 142.064 78.2969C141.822 78.7857 141.505 79.2043 141.117 79.5475C140.73 79.8933 140.293 80.1533 139.807 80.3301C139.321 80.5069 138.806 80.5953 138.262 80.5953H135.538ZM136.819 79.4773H138.234C138.655 79.4773 139.045 79.4149 139.409 79.2927C139.77 79.1705 140.09 78.9859 140.366 78.7441C140.641 78.5023 140.862 78.1981 141.029 77.8315C141.195 77.4649 141.294 77.0437 141.323 76.5653C141.367 76.0713 141.325 75.6527 141.203 75.3043C141.081 74.9559 140.896 74.6725 140.654 74.4567C140.413 74.2383 140.134 74.0797 139.822 73.9783C139.51 73.8769 139.191 73.8249 138.866 73.8249H137.516L136.819 79.4773Z" fill="#EE750D"/>
<path d="M149.053 72.7017H150.217L149.38 79.4773H153.337L153.197 80.5979H148.096L149.053 72.7017Z" fill="#EE750D"/>
<path d="M160.079 72.7017H161.275L160.319 80.5953H159.123L160.079 72.7017Z" fill="#EE750D"/>
<path d="M173.781 80.868H173.747L168.42 74.81L168.735 74.94L168.061 80.595H166.896L167.897 72.4492H167.942L173.204 78.5046L172.944 78.4188L173.628 72.6988H174.78L173.781 80.868Z" fill="#EE750D"/>
<path d="M181.36 72.7017H186.547L186.417 73.7885H182.426L182.143 76.0947H185.699L185.559 77.1919H182.015L181.732 79.4877H185.874L185.733 80.5979H180.406L181.36 72.7017Z" fill="#EE750D"/>
<path d="M196.713 74.3552C196.453 74.1966 196.165 74.0536 195.848 73.9314C195.533 73.8092 195.226 73.739 194.93 73.726C194.691 73.7182 194.485 73.7416 194.316 73.7962C194.145 73.8508 194.002 73.9262 193.887 74.0198C193.77 74.1134 193.684 74.2226 193.627 74.3448C193.57 74.467 193.534 74.5944 193.518 74.7244C193.502 74.9428 193.565 75.1352 193.703 75.3016C193.84 75.468 194.028 75.6188 194.262 75.754C194.498 75.8892 194.745 76.0166 195.005 76.1388C195.309 76.2688 195.601 76.43 195.876 76.6172C196.152 76.8044 196.37 77.0488 196.534 77.3452C196.698 77.6416 196.758 78.0264 196.713 78.497C196.685 78.7726 196.604 79.0456 196.474 79.3134C196.344 79.5812 196.16 79.8204 195.926 80.031C195.689 80.2416 195.403 80.4054 195.06 80.5198C194.719 80.6368 194.324 80.6836 193.874 80.6602C193.541 80.6446 193.219 80.5978 192.912 80.5146C192.603 80.4314 192.317 80.3196 192.049 80.1766C191.781 80.0362 191.534 79.8672 191.311 79.6722L191.942 78.8012C192.101 78.9468 192.291 79.0794 192.507 79.2042C192.725 79.3264 192.954 79.4278 193.198 79.5032C193.44 79.5786 193.679 79.6254 193.911 79.6384C194.194 79.6462 194.451 79.602 194.683 79.5084C194.914 79.4148 195.104 79.2744 195.255 79.0898C195.403 78.9052 195.489 78.6894 195.51 78.4424C195.525 78.2188 195.471 78.0212 195.351 77.8548C195.231 77.6884 195.073 77.5402 194.873 77.4102C194.672 77.2802 194.457 77.1606 194.225 77.0514C193.994 76.95 193.76 76.833 193.523 76.703C193.287 76.573 193.071 76.4196 192.876 76.2454C192.681 76.0712 192.527 75.8606 192.418 75.6136C192.309 75.3666 192.273 75.078 192.309 74.7426C192.353 74.3162 192.491 73.9444 192.722 73.6324C192.954 73.3204 193.258 73.0864 193.63 72.9252C194.004 72.7666 194.423 72.686 194.886 72.686C195.242 72.7068 195.562 72.7562 195.848 72.8316C196.134 72.907 196.394 73.0032 196.625 73.1202C196.856 73.2372 197.07 73.362 197.267 73.4998L196.713 74.3552Z" fill="#EE750D"/>
<path d="M73.265 53.4068C70.795 54.2388 68.2886 54.985 65.8602 55.9262C63.3122 56.9142 60.9488 58.2792 59.0742 60.3254C56.1856 63.4766 55.676 67.5976 57.5402 71.4404C59.9868 76.487 63.8764 80.1088 68.8502 83.039C67.7374 83.039 66.843 83.039 65.9512 83.039C59.9868 83.0338 54.0224 83.0104 48.0606 83.0442C47.1272 83.0494 46.6618 82.7764 46.355 81.869C45.1408 78.2784 44.236 74.6644 44.5896 70.8138C45.055 65.7308 47.6394 61.9946 51.7708 59.2152C55.6188 56.6256 59.9634 55.284 64.4692 54.4676C67.3786 53.9398 70.3296 53.6408 73.2598 53.2378C73.2598 53.2924 73.2624 53.3496 73.265 53.4068Z" fill="#EE750D"/>
<path d="M64.2458 46.9508C64.2458 48.0532 64.2354 49.0958 64.2484 50.1358C64.2588 50.8846 63.6894 50.7312 63.2734 50.765C58.57 51.1706 53.8978 51.7946 49.3166 52.9594C43.5186 54.4362 38.0144 56.5682 33.428 60.5644C32.3464 61.5056 31.348 62.5664 30.4406 63.6792C29.5566 64.7634 28.8416 65.9828 28.02 67.1918C28.02 60.4552 28.02 53.742 28.02 46.9482C40.0632 46.9508 52.0778 46.9508 64.2458 46.9508Z" fill="#214077"/>
<path d="M41.5738 83.0311C40.032 83.0311 38.6956 83.0311 37.3592 83.0311C35.0972 83.0311 32.8352 82.9973 30.5758 83.0493C29.7568 83.0675 29.3642 82.7581 29.2264 81.9911C28.0174 75.3013 29.0834 69.1991 33.9584 64.1421C38.0014 59.9457 43.1442 57.7331 48.638 56.2121C50.419 55.7181 52.226 55.3255 54.0668 55.0083C48.5158 57.2287 43.5082 60.0809 40.9706 65.8607C38.4616 71.5755 39.3482 77.2435 41.5738 83.0311Z" fill="#EE750D"/>
<path d="M64.1707 75.7717C61.7709 73.1925 59.7429 70.5925 59.4127 67.0695C59.2359 65.1845 59.9925 63.5933 61.3029 62.2933C62.1297 61.4743 63.0839 60.7853 64.1707 59.8779C64.1707 65.3041 64.1707 70.4417 64.1707 75.7717Z" fill="#214077"/>
<path d="M80.3633 46.9507V83.0413" stroke="#214077" stroke-width="3" stroke-miterlimit="10" stroke-linecap="round"/>
</g>
<defs>
<clipPath id="clip0_2155_5824">
<rect width="234" height="130" fill="white"/>
</clipPath>
</defs>
</svg>
