<svg width="34" height="34" viewBox="0 0 34 34" fill="none" xmlns="http://www.w3.org/2000/svg">
<g clip-path="url(#clip0_2155_5993)">
<path d="M16.9998 5.6665C9.9165 5.6665 3.86734 10.0723 1.4165 16.2915C3.86734 22.5107 9.9165 26.9165 16.9998 26.9165C24.0832 26.9165 30.1323 22.5107 32.5832 16.2915C30.1323 10.0723 24.0832 5.6665 16.9998 5.6665ZM16.9998 23.3748C13.0898 23.3748 9.9165 20.2015 9.9165 16.2915C9.9165 12.3815 13.0898 9.20817 16.9998 9.20817C20.9098 9.20817 24.0832 12.3815 24.0832 16.2915C24.0832 20.2015 20.9098 23.3748 16.9998 23.3748ZM16.9998 12.0415C14.6482 12.0415 12.7498 13.9398 12.7498 16.2915C12.7498 18.6432 14.6482 20.5415 16.9998 20.5415C19.3515 20.5415 21.2498 18.6432 21.2498 16.2915C21.2498 13.9398 19.3515 12.0415 16.9998 12.0415Z" fill="white"/>
</g>
<defs>
<clipPath id="clip0_2155_5993">
<rect width="34" height="34" fill="white"/>
</clipPath>
</defs>
</svg>
