<svg width="624" height="384" viewBox="0 0 624 384" fill="none" xmlns="http://www.w3.org/2000/svg">
<path d="M599.462 359.295C551.946 356.972 390.309 360.907 341.149 362.44C291.99 363.973 234.927 360.415 205.287 355.185C175.646 349.955 4.30919 355.631 12.0852 369.694C19.8612 383.757 88.4221 375.986 166.175 381.637C243.925 387.291 418.791 380.931 458.235 381.637C497.678 382.344 533.848 380.224 584.679 377.397C635.51 374.571 627.003 360.64 599.462 359.295Z" fill="#CCE2FF"/>
<path opacity="0.5" d="M496.411 49.7328C496.599 48.0545 496.698 46.3486 496.698 44.6206C496.698 43.7079 496.669 42.8043 496.616 41.9044L488.164 39.1716C487.643 35.6107 486.621 32.2118 485.172 29.0502L490.776 22.1567C489.48 19.8766 487.995 17.7198 486.338 15.7066L477.886 18.4633C475.423 15.9476 472.608 13.778 469.519 12.0334L470 3.15603C467.642 2.08317 465.175 1.20537 462.621 0.542874L457.402 7.74194C455.368 7.39966 453.279 7.21931 451.147 7.21931C449.695 7.21931 448.26 7.3058 446.85 7.46591L442.018 0C439.43 0.526312 436.92 1.27162 434.511 2.21751L434.522 11.1078C431.339 12.6885 428.415 14.7073 425.825 17.0868L417.534 13.8884C415.772 15.8133 414.172 17.8891 412.759 20.0956L417.99 27.2762C416.37 30.3642 415.168 33.7042 414.463 37.2246L405.881 39.5084C405.693 41.1867 405.594 42.8926 405.594 44.6206C405.594 45.5334 405.623 46.4388 405.677 47.3368L414.128 50.0696C414.649 53.6305 415.671 57.0295 417.12 60.191L411.516 67.0846C412.812 69.3647 414.298 71.5214 415.954 73.5347L424.406 70.778C426.869 73.2936 429.684 75.4633 432.773 77.2078L432.292 86.0852C434.651 87.1581 437.117 88.0377 439.671 88.6984L444.89 81.4993C446.924 81.8416 449.013 82.0219 451.145 82.0219C452.598 82.0219 454.032 81.9354 455.44 81.7753L460.272 89.2412C462.861 88.7149 465.37 87.9696 467.78 87.0237L467.769 78.1335C470.951 76.5527 473.877 74.5339 476.465 72.1545L484.756 75.3529C486.518 73.4279 488.118 71.3521 489.532 69.1457L484.3 61.965C485.92 58.8771 487.122 55.537 487.827 52.0166L496.411 49.7328ZM451.147 62.4803C441.28 62.4803 433.281 54.4844 433.281 44.6206C433.281 34.7569 441.28 26.761 451.147 26.761C461.014 26.761 469.013 34.7569 469.013 44.6206C469.013 54.4844 461.014 62.4803 451.147 62.4803Z" fill="#9EC8FF"/>
<path d="M475.516 65.2423C475.308 65.2423 475.099 65.1723 474.928 65.0288C474.538 64.7031 474.485 64.1234 474.809 63.7332C479.262 58.3818 481.714 51.5931 481.714 44.6204C481.714 41.2803 481.167 38.0028 480.09 34.8744C479.925 34.3941 480.18 33.8696 480.661 33.704C481.141 33.5384 481.666 33.7942 481.832 34.2745C482.975 37.5943 483.557 41.076 483.557 44.6185C483.557 52.02 480.954 59.2265 476.226 64.9092C476.042 65.1282 475.779 65.2423 475.516 65.2423Z" fill="white"/>
<path d="M472.929 23.0895C472.702 23.0895 472.476 23.0067 472.297 22.8393C469.306 20.0237 465.84 17.889 461.996 16.4941C461.517 16.3211 461.27 15.7929 461.443 15.3145C461.617 14.836 462.145 14.5894 462.624 14.7642C466.703 16.2438 470.383 18.5091 473.558 21.4996C473.929 21.8474 473.947 22.4307 473.597 22.8006C473.419 22.992 473.174 23.0895 472.929 23.0895Z" fill="white"/>
<path d="M444.218 15.6458C443.806 15.6458 443.432 15.368 443.327 14.9502C443.202 14.457 443.502 13.9565 443.994 13.8332C446.529 13.1928 449.152 12.8689 451.792 12.8689C452.3 12.8689 452.712 13.2811 452.712 13.789C452.712 14.2969 452.3 14.7092 451.792 14.7092C449.305 14.7092 446.832 15.0146 444.445 15.6182C444.367 15.6366 444.292 15.6458 444.218 15.6458Z" fill="white"/>
<path opacity="0.5" d="M423.597 0.130371H138.91V171.068H423.597V0.130371Z" fill="#9EC8FF"/>
<path d="M420.616 4.30273H152.779V161.227H420.616V4.30273Z" fill="white"/>
<path d="M381.168 85.4011C393.931 73.2554 415.746 73.5314 415.286 92.026C414.825 110.521 416.353 112.26 421.605 121.961C439.83 155.625 399.883 153.645 383.222 154.749C366.562 155.853 367.943 124.477 370.888 107.087C373.834 89.6962 377.433 88.9564 381.168 85.4011Z" fill="#303C60"/>
<path d="M387.118 191.444C383.025 225.796 375.59 251.191 374.762 267.476C373.933 283.762 370.62 347.884 370.62 347.884C370.62 347.884 379.732 347.247 380.561 345.867C381.389 344.486 397.681 308.327 396.853 285.97C396.024 263.613 413.124 229.618 413.124 229.618L409.003 196.263L387.118 191.444Z" fill="#4476BD"/>
<path d="M391.048 206.397L384.649 209.075C382.909 219.968 380.98 229.761 379.285 238.449C389.469 245.032 394.73 266.958 396.983 280.365C398.132 265.365 405.212 247.238 409.604 237.214L391.048 206.397Z" fill="#3E6BAB"/>
<path d="M420.6 187.98C420.6 187.98 434.392 205.568 433.959 225.52C433.3 255.893 429.986 264.564 435.752 296.412C438.004 308.85 430.782 349.54 430.782 349.54C430.782 349.54 424.613 350.024 421.299 348.375C421.575 345.385 417.312 296.752 409.009 274.395C404.989 263.569 399.337 233.249 396.3 215.86C393.262 198.47 392.71 194.883 393.814 194.883C394.919 194.883 420.6 187.98 420.6 187.98Z" fill="#4476BD"/>
<path d="M342.02 139.136C342.02 139.136 342.633 130.036 341.652 127.224C340.671 124.414 332.202 121.959 332.202 121.959C332.202 121.959 331.834 134.965 332.694 136.558C333.554 138.152 338.585 142.692 338.585 142.692L342.02 139.136Z" fill="#F09959"/>
<path d="M389.635 132.506C370.245 153.369 363.918 162.147 362.445 162.147C357.843 154.026 342.556 136.851 342.556 136.851L336.037 141.039C336.037 141.039 351.099 180.378 360.672 180.785C370.245 181.192 389.701 167.219 389.95 165.614C390.198 164.009 389.635 132.506 389.635 132.506Z" fill="#A2DFF2"/>
<path d="M369.413 178.746C378.897 174.885 389.766 166.812 389.95 165.616C390.196 164.011 389.635 132.508 389.635 132.508C385.408 137.055 381.717 141.089 378.516 144.616C375.042 157.546 375.27 171.626 369.413 178.746Z" fill="#96CFE0"/>
<path d="M409.334 118.772C409.334 118.772 427.888 128.069 431.938 144.526C435.988 160.983 424.004 181.315 422.531 192.165C421.058 203.015 387.188 204.923 387.188 193.309C387.188 182.176 378.701 158.54 379.18 152.52C380.303 138.394 400.959 121.09 400.959 121.09L409.334 118.772Z" fill="#A2DFF2"/>
<path d="M403.942 97.4524L411.908 122.007C411.908 122.007 403.403 128.567 388.847 144.351C389.412 133.849 398.215 122.399 398.215 122.399L392.19 99.2117L403.942 97.4524Z" fill="#F09959"/>
<path d="M407.658 108.904L403.943 97.4507L392.188 99.21L398.214 122.397C398.214 122.397 397.627 123.334 396.758 124.808C402.435 120.597 405.918 115.356 407.658 108.904Z" fill="#E38540"/>
<path d="M399.554 102.994C397.406 110.807 389.087 115.11 383.174 113.485C377.263 111.86 375.998 104.926 378.146 97.1123C380.295 89.2986 386.828 84.2802 392.741 85.9051C398.652 87.5282 401.702 95.18 399.554 102.994Z" fill="#F09959"/>
<path d="M385.709 182.3C388.288 198.639 378.711 233.595 378.711 233.595C378.711 233.595 384.422 234.892 401.542 233.236C418.663 231.58 426.211 214.498 428.788 214.022C431.365 213.545 432.689 229.918 433.961 231.212C435.231 232.505 435.426 210.536 432.101 201.9C426.211 186.591 427.365 180.097 429.566 170.82C433.48 154.326 385.709 182.3 385.709 182.3Z" fill="#A2DFF2"/>
<path d="M371.036 339.842C372.577 346.104 369.534 351.073 365.46 354.692C362.147 357.637 351.961 358.888 352.451 360.36C352.942 361.833 364.969 362.3 369.019 361.685C373.069 361.073 374.173 359.109 379.214 359.111C382.518 359.113 383.131 356.426 381.658 353.104C380.186 349.783 379.67 347.948 381.001 344.97C382.334 341.995 371.036 339.842 371.036 339.842Z" fill="#4476BD"/>
<path d="M431.138 339.842C430.893 346.343 430.137 351.189 431.733 354.201C437.894 359.354 443.016 365.206 441.061 365.611C431.733 367.536 428.174 361.949 422.896 360.359C416.42 358.41 423.509 350.274 420.973 339.84C419.563 334.039 430.752 335.429 430.752 335.429L431.138 339.842Z" fill="#4476BD"/>
<path d="M433.492 207.229C433.121 205.19 432.66 203.355 432.101 201.9C426.21 186.591 427.364 180.096 429.566 170.82C429.739 170.089 429.809 169.447 429.789 168.884C430.286 167.229 430.748 165.553 431.154 163.867L429.155 145.825L414.739 128.711C403.935 144.537 411.227 164.228 409.605 175.085C407.985 185.943 389.881 199.787 389.881 199.787L390.47 203.639C391.279 208.924 396.179 212.593 401.475 211.859C408.937 210.825 418.725 208.744 423.08 204.704C427.294 200.792 431.027 203.817 433.492 207.229Z" fill="#96CFE0"/>
<path d="M394.114 199.164C394.114 199.164 386.122 201.399 385.167 201.898C384.211 202.397 383.683 205.039 383.683 205.039C383.683 205.039 379.108 209.011 380.861 210.417C382.613 211.823 385.743 215.384 389.881 213.727C392.422 212.712 394.39 203.383 396.054 203.308C397.72 203.232 394.114 199.164 394.114 199.164Z" fill="#F09959"/>
<path d="M416.748 126.623C425.301 126.865 433.056 142.265 435.759 155.625C438.461 168.985 441.305 187.978 441.305 187.978C441.305 187.978 427.13 199.162 413.125 202.43C400.907 205.28 394.67 206.396 394.67 206.396L392.192 199.423L421.426 182.259C421.426 182.259 410.676 162.016 409.607 146.742C408.537 131.47 410.247 126.438 416.748 126.623Z" fill="#A2DFF2"/>
<path d="M334.481 118.916L313.158 123.191L315.875 136.727L337.198 132.453L334.481 118.916Z" fill="#F5DC95"/>
<path d="M336.891 138.032C337.185 132.434 334.411 124.797 332.815 124.808C331.219 124.819 333.306 129.812 332.447 133.124C331.981 134.921 336.891 138.032 336.891 138.032Z" fill="#F09959"/>
<path d="M379.712 88.3453C380.186 103.68 398.105 102.504 403.013 101.56C407.922 100.614 397.037 133.914 406.387 135.835C413.254 137.246 411.707 126.508 419.334 127.226C422.709 127.545 426.101 132.758 426.101 132.758C426.101 132.758 425.593 129.545 423.016 127.226C420.439 124.906 413.683 110.675 411.906 100.493C410.13 90.3107 398.103 83.7244 394.545 83.5202C390.986 83.3159 382.271 87.3645 382.271 87.3645L379.712 88.3453Z" fill="#303C60"/>
<path d="M406.231 139.306C405.988 139.306 405.743 139.28 405.492 139.227C402.499 138.59 401.049 135.445 400.925 129.331C400.82 124.09 401.685 117.364 402.604 110.244C402.974 107.368 403.359 104.392 403.674 101.512C403.701 101.266 403.92 101.087 404.169 101.115C404.416 101.142 404.592 101.363 404.566 101.61C404.25 104.499 403.865 107.478 403.495 110.36C401.72 124.138 400.043 137.151 405.68 138.351C405.855 138.387 406.03 138.406 406.205 138.406C409.443 138.406 412.359 132.097 414.06 125.953C414.126 125.714 414.373 125.574 414.612 125.64C414.852 125.706 414.992 125.953 414.925 126.192C413.799 130.246 410.781 139.306 406.231 139.306Z" fill="#303C60"/>
<path d="M405.032 142.87C404.012 142.87 403.123 142.474 402.381 141.692C396.273 135.238 402.313 102.852 402.573 101.477C402.619 101.234 402.855 101.074 403.098 101.12C403.341 101.166 403.501 101.4 403.455 101.644C403.392 101.977 397.238 134.953 403.033 141.077C403.707 141.79 404.504 142.073 405.47 141.946C408.642 141.526 410.474 137.226 412.089 133.429C413.655 129.747 415.13 126.271 417.755 126.361C418.002 126.37 418.197 126.578 418.187 126.825C418.178 127.073 417.97 127.272 417.724 127.257C417.701 127.257 417.679 127.255 417.659 127.255C415.691 127.255 414.342 130.426 412.913 133.779C411.203 137.796 409.266 142.347 405.586 142.833C405.401 142.857 405.215 142.87 405.032 142.87Z" fill="#303C60"/>
<path d="M403.679 104.506C402.416 106.133 400.437 106.711 399.259 105.798C398.081 104.884 398.149 102.824 399.412 101.198C400.675 99.5708 402.654 98.993 403.832 99.9057C405.01 100.818 404.942 102.88 403.679 104.506Z" fill="#F09959"/>
<path d="M264.457 161.293C268.831 170.038 265.21 180.108 256.608 183.665C247.948 187.246 238.478 185.213 234.104 176.468C229.73 167.723 232.98 157.237 241.361 153.047C249.741 148.858 260.081 152.55 264.457 161.293Z" fill="#303C60"/>
<path d="M240.875 184.716C239.909 184.716 238.007 184.375 235.586 182.228C233.602 180.466 232.175 177.767 231.573 174.627C230.813 170.663 231.308 166.105 233.046 161.079C233.127 160.846 233.381 160.721 233.617 160.802C233.85 160.882 233.976 161.138 233.895 161.372C232.208 166.247 231.724 170.649 232.455 174.458C233.02 177.406 234.344 179.927 236.183 181.558C239.252 184.279 241.308 183.784 241.33 183.779C241.567 183.716 241.814 183.858 241.879 184.094C241.943 184.331 241.807 184.576 241.571 184.642C241.54 184.651 241.297 184.716 240.875 184.716Z" fill="#303C60"/>
<path d="M254.253 195.322C259.233 196.437 265.518 210.266 268.596 219.127C271.699 228.063 276.963 239.149 280.409 242.594C283.855 246.039 306.496 254.024 306.496 254.024C306.496 254.024 250.553 254.132 251.698 254.022C252.845 253.91 254.253 195.322 254.253 195.322Z" fill="#A8CEFF"/>
<path d="M283.953 249.579C280.889 249.141 269.842 250.564 274.546 248.595C279.249 246.626 278.594 244.112 278.594 244.112C278.594 244.112 271.92 249.688 270.718 244.811C269.68 240.606 269.284 225.761 265.347 210.881C262.094 203.503 257.836 196.122 254.255 195.319C254.255 195.319 254.13 200.559 253.922 207.905C255.295 224.162 257.628 248.044 258.219 254.064C265.634 254.075 278.043 254.064 288.426 254.051L295.331 253.722C295.329 253.722 287.016 250.017 283.953 249.579Z" fill="#93BBF0"/>
<path d="M235.95 192.257C235.95 192.257 220.113 201.103 216.422 202.984C212.731 204.865 226.764 260.082 229.886 262.448C233.007 264.815 260.486 262.855 263.615 259.874C266.745 256.893 261.215 247.743 263.923 229.423C266.631 211.103 255.664 195.286 254.256 195.321C252.848 195.356 243.654 192.257 243.654 192.257H235.95Z" fill="#A8CEFF"/>
<path d="M229.885 262.448C233.006 264.815 252.67 264.868 261.039 262.264C261.983 261.97 266.273 260.262 266.374 258.655C265.363 258.466 261.354 258.948 259.725 258.573C254.064 257.271 250.947 250.262 250.947 250.262C250.947 250.262 247.831 249.141 240.857 246.189C233.884 243.238 236.756 234.298 236.592 230.361C236.428 226.425 229.701 213.549 217.067 203.79L215.907 204.309C215.004 213.282 226.997 260.258 229.885 262.448Z" fill="#93BBF0"/>
<path d="M338.688 219.126H300.554L283.187 256.073H325.191L340.912 222.628C341.68 220.998 340.49 219.126 338.688 219.126Z" fill="#75A1DE"/>
<path d="M285.46 256.596H262.513C261.09 256.596 259.936 255.442 259.936 254.019C259.936 252.597 261.09 251.443 262.513 251.443H283.814L298.218 220.457C298.818 219.167 300.349 218.607 301.642 219.206C302.932 219.805 303.492 221.337 302.894 222.628L287.798 255.105C287.375 256.014 286.464 256.596 285.46 256.596Z" fill="#3E6BAB"/>
<path d="M245.667 248.705C255.621 250.564 258.07 252.849 263.495 253.723C269.645 254.715 268.914 256.073 264.345 256.073C259.776 256.073 248.296 256.25 244.357 255.376C240.417 254.5 245.667 248.705 245.667 248.705Z" fill="#F09959"/>
<path d="M215.176 204.02C207.548 228.403 196.732 256.072 198.456 256.072C200.179 256.072 243.985 257.842 245.708 256.368C247.431 254.894 246.939 249.235 246.693 248.497C246.446 247.759 221.787 243.385 221.787 243.385C221.787 243.385 225.035 237.058 226.264 224.695C227.496 212.332 216.623 199.395 215.176 204.02Z" fill="#A8CEFF"/>
<path d="M241.75 171.068L235.605 193.518C235.605 193.518 245.99 209.721 248.845 208.282C251.7 206.843 247.249 195.111 247.249 193.518C247.249 191.924 251.7 175.476 251.7 175.476L241.75 171.068Z" fill="#F09959"/>
<path d="M247.461 194.662C247.328 194.13 247.247 193.733 247.247 193.518C247.247 191.924 251.698 175.476 251.698 175.476L241.75 171.068L239.716 178.497C241.492 186.171 244.697 191.282 247.461 194.662Z" fill="#E38540"/>
<path d="M264.745 170.696C265.915 177.205 265.144 185.853 259.362 188.05C253.58 190.249 246.614 186.042 243.804 178.657C240.995 171.271 243.405 163.501 249.187 161.304C254.969 159.105 263.346 162.92 264.745 170.696Z" fill="#F09959"/>
<path d="M245.174 174.36C245.984 176.636 245.281 178.964 243.602 179.562C241.923 180.16 239.905 178.799 239.094 176.524C238.284 174.248 238.987 171.92 240.666 171.322C242.345 170.724 244.364 172.084 245.174 174.36Z" fill="#F09959"/>
<path d="M264.813 162.519C262.845 177.795 244.278 175.827 244.278 175.827C244.278 175.827 240.449 170.796 238.726 173.435C237.002 176.074 241.115 157.947 251.768 157.377C255.27 157.187 264.813 162.519 264.813 162.519Z" fill="#303C60"/>
<path d="M235.885 165.49C241.438 165.49 245.94 161.268 245.94 156.059C245.94 150.85 241.438 146.628 235.885 146.628C230.331 146.628 225.83 150.85 225.83 156.059C225.83 161.268 230.331 165.49 235.885 165.49Z" fill="#303C60"/>
<path d="M215.856 367.07H218.155L233.004 298.298H227.945L215.856 367.07Z" fill="#2E5B9A"/>
<path d="M287.348 367.07H285.049L267.769 295.867H272.827L287.348 367.07Z" fill="#2E5B9A"/>
<path d="M242.092 300.875C232.881 300.875 227.045 299.22 223.321 295.595C218.704 291.099 217.748 284.136 217.735 275.063C217.724 267.923 217.555 263.273 217.167 259.513C217.021 258.098 218.05 256.832 219.466 256.687C220.881 256.541 222.148 257.57 222.293 258.985C222.698 262.925 222.877 267.732 222.888 275.054C222.903 284.25 224.07 289.13 226.916 291.903C229.836 294.747 235.117 295.921 244.033 295.698C252.643 295.486 258.569 294.281 263.331 293.313C269.594 292.042 274.121 291.121 279.487 293.685C280.772 294.298 281.315 295.836 280.702 297.121C280.089 298.405 278.55 298.948 277.265 298.335C273.456 296.515 270.225 297.172 264.358 298.365C259.397 299.373 253.224 300.626 244.16 300.851C243.455 300.866 242.764 300.875 242.092 300.875Z" fill="#2E5B9A"/>
<path d="M221.165 256.368L235.265 256.955L231.511 295.871C231.511 295.871 221.001 289.165 221.165 281.947C221.331 274.73 221.165 256.368 221.165 256.368Z" fill="#2E5B9A"/>
<path d="M290.77 259.993C302.694 258.184 306.744 258.754 314.041 272.33C321.337 285.904 331.051 310.346 336.637 313.502C345.048 318.255 347.835 329.912 351.288 329.387C354.742 328.863 356.964 330.39 353.207 333.511C349.449 336.634 343.38 339.291 341.305 338.737C339.23 338.183 337.622 329.22 332.2 326.31C326.78 323.399 328.408 321.008 328.765 318.434C329.12 315.859 312.944 304.008 300.748 289.268C293.296 280.261 289.46 274.316 288.891 268.927C288.32 263.539 290.77 259.993 290.77 259.993Z" fill="#F09959"/>
<path d="M320.326 309.216C317.558 302.194 314.78 290.604 312.169 279.978C308.456 264.868 304.564 261.279 302.099 259.667C299.119 258.92 295.586 259.262 290.77 259.993C290.77 259.993 288.322 263.539 288.891 268.927C289.46 274.316 293.296 280.26 300.748 289.268C307.167 297.028 314.691 303.988 320.326 309.216Z" fill="#E38540"/>
<path d="M294.399 271.94C294.399 271.94 291.227 295.867 288.273 298.298C286.159 300.037 284.663 300.153 283.186 293.016C281.71 285.88 285.484 259.246 285.484 259.246L294.399 271.94Z" fill="#2E5B9A"/>
<path d="M291.872 284.888L262.514 289.82L279.089 266.061L291.703 263.493L299.267 265.232L291.872 284.888Z" fill="#F09959"/>
<path d="M328.763 318.434C327.811 322.269 327.925 325.103 329.58 326.524C331.233 327.944 337.483 338.498 337.483 338.498L339.429 338.204L334.923 328.546L328.763 318.434Z" fill="#2E5B9A"/>
<path d="M341.302 338.737C343.377 339.291 349.447 336.634 353.204 333.511C356.961 330.388 354.739 328.862 351.286 329.387C351.091 329.416 350.899 329.403 350.708 329.357C348.983 333.209 343.309 336.098 341.479 332.029C339.666 327.997 331.892 319.972 328.76 318.255C328.768 318.318 328.77 318.378 328.762 318.434C328.407 321.008 326.778 323.399 332.197 326.31C337.617 329.219 339.228 338.183 341.302 338.737Z" fill="#2E5B9A"/>
<path d="M230.846 260.952C220.431 279.637 227.546 291.514 240.206 292.723C252.865 293.934 272.85 291.623 284.501 281.945C296.151 272.267 305.714 262.035 304.378 260.508C303.041 258.981 230.846 260.952 230.846 260.952Z" fill="#E38540"/>
<path d="M289.916 274.893C292.05 268.497 294.508 263.589 299.268 263.5C304.274 263.407 307.352 266.011 307.567 274.196C307.821 283.944 308.165 316.226 307.714 330.58C307.374 341.444 310.542 344.924 310.273 356.251C310.073 364.782 319.17 360.473 315.656 364.897C313.239 367.939 306.045 366.945 301.626 366.382C297.689 365.881 303.664 354.085 298.215 350.931C293.539 348.224 293.447 343.831 296.4 340.504C299.353 337.179 296.728 327.337 294.76 320.447C292.79 313.559 289.738 306.106 287.731 289.816C287.159 285.175 288.613 278.8 289.916 274.893Z" fill="#F09959"/>
<path d="M312.543 361.413C311.035 361.873 309.177 362.379 307.557 362.433C304.275 362.541 303.292 358.934 303.073 354.032C302.882 349.751 299.772 343.012 296.584 340.278C296.525 340.355 296.464 340.432 296.402 340.504C293.449 343.83 293.541 348.224 298.217 350.931C303.666 354.085 297.69 365.881 301.628 366.382C306.046 366.943 313.24 367.939 315.657 364.897C317.94 362.02 315.105 361.792 312.543 361.413Z" fill="#2E5B9A"/>
<path d="M297.138 339.286C297.138 339.286 292.351 344.282 292.79 346.36C293.228 348.437 294.702 353.686 294.949 357.733C295.196 361.779 295.415 366.422 295.415 366.422C295.415 366.422 297.138 366.422 297.274 365.933C297.41 365.443 298.368 349.488 298.368 349.488L297.138 339.286Z" fill="#2E5B9A"/>
<path d="M225.83 259.248C225.83 259.248 219.652 285.458 227.458 292.724C235.263 299.989 267.678 293.454 275.312 293.018C280.481 292.724 285.485 299.03 285.485 299.03C285.485 299.03 281.875 284.407 284.336 272.597C286.797 260.788 290.768 259.993 290.768 259.993L285.483 259.249H225.83V259.248Z" fill="#75A1DE"/>
<path d="M224.432 252.395C227.074 257.998 221.588 267.676 223.512 270.464C225.434 273.252 236.44 270.854 243.653 265.052C250.866 259.248 264.518 257.972 264.518 257.972L224.432 252.395Z" fill="#A8CEFF"/>
<path d="M235.606 300.153C257.43 300.973 280.401 300.585 280.401 297.335C280.401 294.085 279.416 291.789 262.516 293.101C245.617 294.413 234.131 296.218 229.045 295.07C223.959 293.921 235.606 300.153 235.606 300.153Z" fill="#2E5B9A"/>
<path d="M468.321 262.01H160.849C159.537 262.01 158.473 260.946 158.473 259.634V258.447C158.473 257.135 159.537 256.071 160.849 256.071H468.319C469.632 256.071 470.696 257.135 470.696 258.447V259.634C470.698 260.946 469.634 262.01 468.321 262.01Z" fill="#2E5B9A"/>
<path d="M509.177 176.48C511.292 183.931 506.128 191.609 500.44 193.223C494.751 194.835 490.692 189.772 488.579 182.323C486.465 174.872 489.361 167.526 495.05 165.912C500.738 164.298 507.062 169.029 509.177 176.48Z" fill="#F09959"/>
<path d="M477.284 320.857C477.284 320.857 491.863 343.491 493.831 344.475C495.798 345.46 500.721 345.705 498.876 349.396C497.03 353.086 496.292 367.602 494.569 368.34C492.846 369.078 478.08 370.8 480.294 368.34C482.509 365.879 483.871 367.11 484.989 362.681C486.106 358.253 487.676 349.887 485.585 348.165C483.494 346.442 470.696 330.944 470.696 330.944L477.284 320.857Z" fill="#F09959"/>
<path d="M403.913 330.577C403.913 330.577 386.193 359.773 382.911 362.397C379.628 365.021 368.8 368.958 377.66 369.615C386.521 370.272 390.786 366.663 396.366 365.021C401.946 363.38 408.836 362.397 406.211 358.133C403.586 353.869 404.676 344.56 410.336 338.654C415.995 332.749 403.913 330.577 403.913 330.577Z" fill="#F09959"/>
<path d="M494.344 262.876C494.344 262.876 450.477 261.73 433.084 275.997C422.911 291.415 398.3 336.906 396.388 341.919C397.7 343.231 405.084 345.6 408.366 345.27C418.048 333.732 430.842 323.756 435.932 314.705C442.204 303.552 444.135 297.976 454.31 296.991C464.485 296.007 487.454 292.727 494.346 292.727C501.238 292.727 494.344 262.876 494.344 262.876Z" fill="#6791C9"/>
<path d="M532.599 369.694H530.3L513.811 300.922H518.869L532.599 369.694Z" fill="#2E5B9A"/>
<path d="M463.715 369.694H466.016L484.937 298.491H479.879L463.715 369.694Z" fill="#2E5B9A"/>
<path d="M519.335 259.873L493.831 264.273C493.831 264.273 459.94 264.584 444.447 267.47C430.353 270.094 428.276 286.102 444.447 308.147C453.633 320.67 461.4 330.659 477.283 341.921C481.324 338.956 482.869 337.834 483.986 330.699C482.835 329.124 479.86 319.262 478.936 317.332C470.152 298.973 458.425 292.297 458.261 290.491C460.231 287.293 510.414 307.162 520.392 295.475C529.922 284.316 519.335 259.873 519.335 259.873Z" fill="#75A1DE"/>
<path d="M520.395 202.156C513.677 201.213 506.837 202.489 500.439 207.121C494.849 212.818 488.523 222.213 488.91 237.709C489.401 257.391 485.863 258.655 489.554 264.067C504.951 270.423 531.284 297.731 525.084 268.454C520.594 247.257 534.933 231.454 523.364 207.941C522.422 206.026 521.245 204.169 520.395 202.156Z" fill="#F37168"/>
<path d="M488.905 245.114C488.604 255.376 487.156 258.397 488.264 261.614C494.541 262.255 506.023 264.765 508.891 268.782C512.174 273.375 515.454 274.03 513.922 270.641C512.391 267.251 508.345 262.44 514.58 245.928C520.815 229.417 523.768 218.263 517.643 206.782L488.905 245.114Z" fill="#D54A41"/>
<path d="M520.395 202.155C516.259 192.367 515.243 181.37 515.243 181.37L504.414 184.568C504.414 184.568 510.567 198.344 504.661 203.265C503.406 204.31 501.949 205.58 500.44 207.118C506.837 202.488 513.678 201.211 520.395 202.155Z" fill="#F09959"/>
<path d="M515.568 183.976C514.928 183.405 514.125 182.693 513.282 181.948L504.449 184.557C504.444 184.574 504.436 184.589 504.431 184.605C504.644 185.093 506.894 190.341 507.19 195.389C509.823 193.793 512.704 191.19 515.999 186.642C515.82 185.634 515.679 184.734 515.568 183.976Z" fill="#E38540"/>
<path d="M512.781 205.232C501.627 209.132 502.864 220.876 492.601 238.199C487.289 247.163 482.355 247.03 482.355 247.03C482.355 247.03 469.896 247.129 454.828 245.287C445.391 244.133 444.793 246.942 451.356 249.288C464.592 254.019 478.327 259.111 489.402 257.88C500.477 256.651 519.418 228.403 520.395 221.049C521.747 210.882 518.398 203.269 512.781 205.232Z" fill="#F09959"/>
<path d="M507.042 303.5C506.35 303.5 505.643 303.491 504.914 303.472C495.849 303.248 489.676 301.995 484.715 300.986C478.85 299.794 475.617 299.138 471.809 300.957C470.524 301.569 468.986 301.027 468.372 299.742C467.757 298.458 468.302 296.921 469.587 296.306C474.953 293.743 479.478 294.663 485.742 295.935C490.505 296.903 496.431 298.106 505.041 298.32C514.737 298.559 520.668 297.107 523.698 293.747C526.404 290.747 527.201 285.745 526.206 278.009C525.869 275.388 525.532 273.209 525.233 271.286C524.4 265.892 523.847 262.33 524.528 256.837C525.164 251.715 526.863 244.884 530.8 231.629C531.205 230.265 532.639 229.489 534.005 229.892C535.37 230.296 536.148 231.73 535.743 233.095C528.38 257.889 528.753 260.309 530.329 270.499C530.631 272.451 530.973 274.665 531.32 277.35C532.522 286.689 531.316 292.996 527.527 297.195C523.621 301.527 517.255 303.5 507.042 303.5Z" fill="#2E5B9A"/>
<path d="M405.117 355.185C393.36 360.934 387.03 364.228 383.262 363.913C382.373 363.84 381.635 363.748 381.016 363.652C376.823 366.129 370.129 369.057 377.66 369.614C386.521 370.271 390.786 366.663 396.366 365.021C401.944 363.382 408.836 362.397 406.211 358.133C405.708 357.316 405.342 356.313 405.117 355.185Z" fill="#D54A41"/>
<path d="M495.115 344.956C494.827 354.262 493.548 363.483 487.854 365.226C486.344 365.688 484.969 365.754 483.752 365.592C482.858 366.698 481.764 366.711 480.297 368.34C478.082 370.8 492.848 369.078 494.571 368.34C496.295 367.602 497.033 353.086 498.879 349.396C500.394 346.365 497.342 345.657 495.115 344.956Z" fill="#D54A41"/>
<path d="M449.822 256.595H412.468C411.465 256.595 410.553 256.014 410.13 255.105L395.035 222.628C394.434 221.338 394.996 219.805 396.286 219.205C397.577 218.605 399.11 219.166 399.71 220.456L414.114 251.443H449.824C451.247 251.443 452.401 252.597 452.401 254.019C452.401 255.442 451.247 256.595 449.822 256.595Z" fill="#75A1DE"/>
<path d="M457.637 245.613C450.089 245.504 442.604 241.007 438.885 241.662C435.167 242.319 423.024 250.738 424.556 251.066C426.087 251.393 435.713 246.406 436.041 246.331C436.369 246.255 438.447 249.785 443.589 251.082C448.73 252.379 443.626 247.23 459.562 252.041C469.925 255.171 457.637 245.613 457.637 245.613Z" fill="#F09959"/>
<path d="M519.283 193.223L520.393 202.155C520.393 202.155 510.627 202.737 505.766 205.47C500.906 208.204 493.733 216.101 493.733 216.101L499.593 206.016L500.436 199.564L519.283 193.223Z" fill="#F2E5DE"/>
<path d="M515.128 204.158C507.873 202.8 504.517 209.298 499.814 219.903C495.11 230.51 487.08 243.392 485.484 245.054C483.888 246.716 458.576 245.054 458.576 245.054C458.576 245.054 457.81 252.38 458.576 253.254C459.342 254.128 463.717 254.019 463.717 254.019C463.717 254.019 465.468 255.416 467.108 256.522C468.749 257.628 482.642 259.706 489.094 259.378C495.548 259.051 501.454 258.504 502.33 257.52C503.205 256.535 520.817 229.417 521.91 219.686C523.004 209.953 518.83 204.852 515.128 204.158Z" fill="#F2E5DE"/>
<path d="M493.736 159.542C480.016 160.199 482.168 180.832 482.168 180.832C482.168 180.832 485.732 181.933 493.196 180.702C492.622 178.488 492.869 172.829 492.869 172.829C492.869 172.829 493.736 177.422 494.839 180.21C496.416 180.934 498.202 180.293 501.238 179.559C502.797 186.116 507.2 188.885 510.218 189.833C513.55 190.88 517.077 192.13 521.014 190.161C524.952 188.191 522.787 168.072 520.696 164.027C517.557 157.954 512.34 152.518 503.316 155.389C498.789 156.828 493.736 159.542 493.736 159.542Z" fill="#303C60"/>
<path d="M517.595 184.047L523.204 192.238C523.204 192.238 516.988 207.766 535.069 214.8C549.229 220.309 547.562 230.017 541.163 239.779C534.764 249.542 544.992 258.068 544.992 258.068C544.992 258.068 546.551 247.253 560.31 245.212C579.069 242.429 584.382 217.251 570.369 204.662C558.774 194.244 555.245 202.871 547.398 193.523C539.55 184.174 524.732 190.488 524.732 190.488L519.302 182.571L517.595 184.047Z" fill="#303C60"/>
<path d="M576.821 229.974C576.747 229.974 576.674 229.956 576.605 229.919C576.388 229.8 576.309 229.527 576.427 229.31C581.154 220.672 577.298 210.206 575.355 207.372C575.151 207.072 574.956 206.769 574.75 206.449C572.843 203.473 570.468 199.769 557.815 197.492C554.785 196.947 552.326 195.142 549.723 193.232C544.325 189.27 538.208 184.782 524.916 190.897C524.692 191 524.425 190.902 524.322 190.678C524.219 190.453 524.316 190.186 524.541 190.083C538.313 183.747 544.657 188.403 550.253 192.511C552.769 194.358 555.146 196.103 557.974 196.611C571.011 198.957 573.504 202.844 575.505 205.967C575.707 206.281 575.897 206.579 576.096 206.868C577.264 208.576 578.71 212.115 579.301 216.169C579.814 219.686 579.868 224.894 577.213 229.743C577.134 229.89 576.979 229.974 576.821 229.974Z" fill="#303C60"/>
<path d="M514.597 192.389C513.703 192.389 512.734 192.312 511.691 192.156C506.908 191.44 500.492 188.72 499.988 173.446C499.981 173.199 500.174 172.991 500.421 172.984C500.675 172.973 500.875 173.17 500.883 173.416C501.091 179.739 502.348 184.419 504.616 187.327C506.343 189.541 508.633 190.792 511.821 191.27C516.287 191.938 519.248 191.11 520.623 188.81C520.75 188.598 521.026 188.528 521.238 188.655C521.449 188.782 521.519 189.058 521.392 189.27C520.155 191.344 517.874 192.389 514.597 192.389Z" fill="#303C60"/>
<path d="M86.403 203.229C70.4791 212.33 48.3294 250.17 53.0053 256.344C57.6812 262.52 82.7838 246.281 82.7838 246.281L86.403 203.229Z" fill="#96CFE0"/>
<path d="M116.154 159.35C110.073 159.184 112.33 154.666 105.337 156.47C101.66 157.417 104.374 158.93 99.5985 158.439C94.8232 157.947 92.4724 157.454 91.8704 160.571C91.2684 163.689 90.9776 164.672 88.6801 165.165C86.3827 165.656 85.3462 169.758 88.6801 172.546C92.014 175.334 90.394 176.482 89.6558 178.779C88.9176 181.076 91.4341 181.239 92.8019 183.372C94.1697 185.505 91.5427 185.908 93.5125 187.756C95.4823 189.605 98.2436 189.44 98.2436 189.44L106.533 173.553L116.154 159.35Z" fill="#303C60"/>
<path d="M240.044 350.038C240.044 350.038 248.904 350.285 255.795 347.578C262.685 344.871 267.361 340.69 266.131 345.609C264.902 350.53 259.241 358.971 254.318 359.794C249.396 360.616 247.673 366.028 244.966 366.028C242.26 366.028 238.321 359.794 231.43 356.676C225.149 353.839 240.044 350.038 240.044 350.038Z" fill="#2E5B9A"/>
<path d="M170.222 349.208C170.222 349.208 173.948 354.345 180.433 357.918C187.13 361.608 194.858 363.386 190.067 365.055C185.275 366.724 178.27 368.021 171.437 366.038C166.645 364.646 161.026 364.356 159.541 362.092C158.057 359.829 161.288 354.144 159.944 345.649C158.869 338.84 170.222 349.208 170.222 349.208Z" fill="#2E5B9A"/>
<path d="M128.735 266.643C128.735 266.643 180.06 285.854 184.195 291.224C188.329 296.593 242.279 345.515 242.279 349.123C242.279 352.732 233.091 359.293 233.091 359.293C233.091 359.293 186.82 330.918 175.334 316.483C163.849 302.05 135.817 295.09 120.915 293.754C106.013 292.418 128.735 266.643 128.735 266.643Z" fill="#3E6BAB"/>
<path d="M130.702 266.644C130.702 266.644 165.816 265.332 173.363 266.644C180.911 267.956 197.466 267.941 186.638 298.491C178.152 322.437 175.35 352.753 175.35 352.753L158.474 356.897C158.474 356.897 159.144 302.383 167.196 287.867C161.331 288.833 150.567 290.72 135.651 294.984C107.976 302.895 92.8016 298.933 92.8016 298.933L88.6816 284.5L130.702 266.644Z" fill="#4476BD"/>
<path d="M101.38 176.019L92.8018 201.359L103.639 208.494L109.782 186.598L101.38 176.019Z" fill="#A86B48"/>
<path d="M104.609 205.037L109.782 186.596L101.38 176.016L98.2417 185.286C99.326 193.659 101.942 200.584 104.609 205.037Z" fill="#7A4E34"/>
<path d="M123.265 180.308C123.543 188.015 119.757 194.686 113.737 195.278C107.717 195.871 102.224 190.131 101.467 182.455C100.711 174.779 104.976 168.077 110.996 167.485C117.016 166.892 122.826 168.145 123.265 180.308Z" fill="#A86B48"/>
<path d="M88.6804 200.621C62.3444 218.4 78.7248 247.13 84.5071 268.125C89.4333 286.007 89.2713 296.815 90.0096 296.815C90.7478 296.815 108.86 294.108 119.195 284.759C129.532 275.411 136.52 266.355 136.52 266.355C136.52 266.355 123.277 263.997 118.949 246.872C116.751 238.177 117.75 233.457 112.741 219.68C107.736 205.904 88.6804 200.621 88.6804 200.621Z" fill="#A2DFF2"/>
<path d="M88.6802 200.621L91.5004 193.722C91.5004 193.722 100.444 199.627 104.011 202.415C107.581 205.203 109.781 205.86 109.781 205.86C109.781 205.86 111.071 215.75 110.234 214.852C99.6796 203.543 88.6802 200.621 88.6802 200.621Z" fill="#A2DFF2"/>
<path d="M77.0093 369.694H79.3086L95.7976 300.922H90.7388L77.0093 369.694Z" fill="#2E5B9A"/>
<path d="M145.89 369.694H143.591L124.67 298.491H129.729L145.89 369.694Z" fill="#2E5B9A"/>
<path d="M102.624 303.498C93.4126 303.498 87.5769 301.844 83.8527 298.219C79.2357 293.723 78.2803 286.759 78.2674 277.687C78.238 258.613 77.1831 254.669 71.8114 243.022C71.2149 241.73 71.7801 240.199 73.0724 239.603C74.3647 239.007 75.8963 239.571 76.4928 240.863C82.1702 253.175 83.3925 257.7 83.422 277.678C83.4367 286.873 84.602 291.754 87.4499 294.527C90.3696 297.37 95.6493 298.542 104.567 298.322C113.177 298.11 119.102 296.905 123.865 295.937C130.128 294.663 134.654 293.745 140.021 296.308C141.306 296.921 141.849 298.46 141.236 299.744C140.623 301.029 139.084 301.571 137.799 300.959C133.99 299.139 130.759 299.796 124.892 300.988C119.931 301.997 113.758 303.25 104.694 303.474C103.987 303.491 103.295 303.498 102.624 303.498Z" fill="#2E5B9A"/>
<path d="M216.417 256.298H179.061C177.638 256.298 176.484 255.144 176.484 253.721C176.484 252.299 177.638 251.145 179.061 251.145H214.771L229.174 220.159C229.774 218.869 231.306 218.309 232.598 218.907C233.889 219.507 234.449 221.038 233.85 222.33L218.755 254.807C218.331 255.716 217.418 256.298 216.417 256.298Z" fill="#3E6BAB"/>
<path d="M89.6562 226.506C89.6562 226.506 96.2191 246.517 104.341 254.8C112.463 263.083 128.809 265.865 133.926 265.54C129.847 263.9 122.076 259.235 118.952 246.87C116.754 238.175 117.754 233.455 112.745 219.679C109.026 209.452 97.5703 203.906 91.9114 201.727C98.9731 206.797 107.804 215.148 110.517 221.502C113.529 228.558 89.6562 226.506 89.6562 226.506Z" fill="#96CFE0"/>
<path d="M180.244 244.067C180.244 244.067 191.565 238.901 192.795 239.393C194.025 239.884 206.578 247.46 206.578 248.716C206.578 249.971 195.503 244.038 195.503 244.038C195.503 244.038 196.733 247.317 195.994 248.89C195.256 250.464 186.742 250.464 179.064 249.971C171.385 249.477 180.244 244.067 180.244 244.067Z" fill="#A86B48"/>
<path d="M90.0185 211.046C79.5824 232.428 115.381 254.102 136.617 256.029C157.856 257.956 183.087 251.009 183.087 251.009L180.243 244.067C180.243 244.067 137.696 238.515 136.617 237.739C135.54 236.962 93.8402 203.215 90.0185 211.046Z" fill="#A2DFF2"/>
<path d="M103.586 176.74C104.553 179.283 103.844 181.911 102.003 182.612C100.16 183.313 97.883 181.819 96.9166 179.276C95.9501 176.733 96.6588 174.105 98.5016 173.404C100.342 172.704 102.62 174.197 103.586 176.74Z" fill="#A86B48"/>
<path d="M123.28 160.461C126.163 159.257 129.41 157.969 128.405 162.866C127.967 164.999 128.405 164.397 129.171 166.364C129.936 168.334 127.241 169.877 126.365 170.972C125.491 172.066 127.639 173.254 125.888 174.566C124.138 175.879 121.831 174.081 120.2 174.566C115.332 176.018 115.934 172.191 113.199 171.396C110.463 170.599 109.123 170.722 108.604 172.472C108.085 174.222 110.519 179.979 108.44 179.432C106.362 178.886 105.894 183.532 105.335 186.156C104.775 188.781 103.35 184.346 103.442 181.342C103.584 176.738 102.441 174.804 100.743 173.516C99.046 172.228 98.3243 160.514 106.527 160.076C114.73 159.638 114.784 158.847 118.283 158.107C121.789 157.369 121.965 161.009 123.28 160.461Z" fill="#303C60"/>
<path d="M583.231 294.225C588.463 298.999 586.187 303.774 582.321 312.641C578.455 321.507 577.772 354.247 577.772 354.247L580.957 353.792C580.957 353.792 580.502 320.143 584.823 311.051C589.144 301.956 590.964 297.409 594.83 300.364C598.696 303.32 583.231 294.225 583.231 294.225Z" fill="#74B570"/>
<path d="M580.357 288.044C580.992 285.213 584.766 282.153 589.81 279.557C589.061 283.73 586.654 290.554 589.143 291.952C592.499 293.841 589.471 284.314 590.765 279.076C595.502 276.763 601.201 274.873 606.45 273.933C606.442 273.953 606.437 273.971 606.428 273.99C603.471 281.492 599.605 284.448 601.198 285.585C602.396 286.441 606.297 277.773 611.448 273.331C615.314 273.125 618.585 273.649 620.522 275.18C623.513 277.547 625.52 279.649 622.512 286.857C620.792 288.084 618.567 288.964 615.98 289.223C609.158 289.906 605.973 290.132 610.748 292.407C613.088 293.52 617.007 292.344 620.187 291.627C619.156 293.526 617.887 295.675 616.348 298.125C615.371 299.678 614.296 301.025 613.152 302.192C610.953 302.613 609.036 302.617 608.022 302.182C604.837 300.819 596.651 296.498 594.603 298.318C592.601 300.097 609.767 301.225 608.578 305.749C600.257 310.541 590.736 308.261 589.053 303.861C586.789 297.952 578.444 296.56 580.357 288.044Z" fill="#9CD499"/>
<path d="M597.558 320.372C588.46 313.552 579.136 319.917 574.359 327.192C569.583 334.466 572.994 350.837 572.994 350.837C572.994 350.837 574.813 350.837 574.813 350.154C574.813 349.471 569.81 330.83 581.636 322.418C589.034 317.155 594.371 319.689 595.054 322.19C595.737 324.691 592.097 329.238 592.097 329.238L597.558 320.372Z" fill="#74B570"/>
<path d="M576.635 306.351C585.732 306.351 588.689 320.447 586.187 328.631C583.685 336.816 580.274 352.048 580.274 352.048L578.001 349.775C578.001 349.775 586.644 328.404 584.597 318.855C582.549 309.306 577.546 307.714 576.636 307.714C575.725 307.714 576.635 306.351 576.635 306.351Z" fill="#9CD499"/>
<path d="M584.265 328.695C584.905 327.848 585.695 327.147 586.66 326.684C586.533 327.361 586.376 328.014 586.187 328.632C585.047 332.361 583.718 337.554 582.61 342.101C582.508 341.518 582.354 340.622 582.114 339.236C582.057 338.908 582.013 338.553 581.982 338.178C582.871 335.149 583.714 331.847 584.265 328.695Z" fill="#74B570"/>
<path d="M586.752 328.763C604.037 321.488 594.931 311.503 610.169 318.097C611.242 318.561 612.551 319.733 613.86 321.347C612.503 321.731 610.859 322.007 609.031 321.733C604.482 321.05 606.074 324.689 613.58 325.598C614.994 325.769 616.142 326.004 617.096 326.339C620.671 333.203 622.284 342.237 614.716 345.377C613.225 345.995 611.382 346.35 609.331 346.481C606.997 344.626 609.9 333.892 606.301 335.373C602.845 336.796 607.383 344.576 606.761 346.536C603.35 346.474 599.572 345.918 595.964 345.023C594.536 344.223 593.446 343.15 593.109 341.74C591.971 336.967 599.477 334.011 599.705 329.919C599.915 326.157 596.955 338.196 589.112 339.966C582.023 336.658 578.673 332.164 586.752 328.763Z" fill="#9CD499"/>
<path d="M574.435 315.9C576.254 312.035 571.479 311.126 571.705 314.081C571.908 316.7 571.93 323.067 569.242 324.799C564.608 324.297 558.303 322.431 553.537 319.586C553.476 319.201 553.535 318.805 553.738 318.401C555.785 314.308 568.977 310.898 564.883 309.534C561.622 308.448 555.91 314.86 551.306 318.091C548.541 315.994 546.689 313.494 546.689 310.705C546.689 306.928 551.28 302.652 557.217 300.609C559.888 300.878 562.372 302.339 566.249 304.534C571.976 307.779 570.652 302.534 565.236 299.42C569.91 299.661 574.571 301.658 578.008 306.428C578.008 306.428 577.682 308.467 579.842 311.621C585.731 320.224 578.934 325.248 570.81 324.921C571.271 322.652 573.18 318.57 574.435 315.9Z" fill="#9CD499"/>
<path d="M597.011 319.985C601.459 323.42 606.4 327.438 612.466 330.165C618.532 332.894 617.318 341.786 617.318 341.786C617.318 341.786 618.228 334.107 613.175 331.479C608.119 328.851 604.784 325.719 600.944 325.113C597.102 324.508 594.979 323.901 594.979 323.901C594.979 323.901 596.192 321.475 595.485 320.566C594.775 319.657 597.011 319.985 597.011 319.985Z" fill="#74B570"/>
<path d="M618.933 279.641C602.658 283.986 590.73 294.394 588.507 296.921C586.283 299.448 586.283 300.154 586.283 300.154L588 303.388L588.808 302.983C588.808 302.983 587.494 300.254 590.931 296.719C596.859 290.62 604.071 285.806 609.025 283.684C613.979 281.562 618.933 279.641 618.933 279.641Z" fill="#74B570"/>
<path d="M574.01 369.694H580.228C584.65 369.694 588.234 366.111 588.234 361.69V347.41H566.005V361.69C566.004 366.111 569.588 369.694 574.01 369.694Z" fill="#75A1DE"/>
<path d="M588.232 349.963H566.003V351.527H588.232V349.963Z" fill="white"/>
<path d="M588.232 352.815H566.003V353.735H588.232V352.815Z" fill="white"/>
<path d="M310.3 49.1881C310.3 32.348 296.751 18.6694 279.954 18.4559C263.08 18.2406 249.078 31.8235 248.81 48.6894C248.679 56.9227 251.788 64.4291 256.943 70.018C259.318 72.5925 260.637 75.9675 260.637 79.4695V93.2475C260.637 102.162 267.933 109.455 276.848 109.455H282.253C291.171 109.455 298.466 102.162 298.466 93.2475V79.4713C298.466 75.9399 299.829 72.5593 302.216 69.9572C307.236 64.4862 310.3 57.1951 310.3 49.1881Z" fill="#F5DC95"/>
<path opacity="0.5" d="M306.004 51.2512C306.004 36.7628 294.347 24.9963 279.898 24.8122C265.382 24.6264 253.336 36.312 253.105 50.8224C252.993 57.9055 255.668 64.363 260.103 69.1716C262.146 71.3872 263.28 74.2893 263.28 77.3036V89.1567C263.28 96.825 269.556 103.098 277.227 103.098H281.877C289.548 103.098 295.824 96.825 295.824 89.1567V77.3055C295.824 74.2672 296.996 71.3596 299.051 69.12C303.368 64.4127 306.004 58.1392 306.004 51.2512Z" fill="white"/>
<path d="M284.097 84.9941H273.972C273.497 84.9941 273.099 84.6316 273.055 84.1587C273.037 83.9618 271.148 64.4238 262.407 58.9509C261.977 58.6804 261.846 58.1136 262.117 57.6829C262.385 57.2523 262.954 57.1217 263.385 57.3922C271.91 62.7289 274.333 79.1937 274.8 83.1557H283.125C283.092 81.7958 283.171 79.1734 283.953 75.7781C285.001 71.2401 287.569 64.3943 293.856 57.5504C294.2 57.1769 294.782 57.1511 295.157 57.4952C295.531 57.8394 295.557 58.4209 295.212 58.7945C283.721 71.3008 284.999 83.8458 285.014 83.971C285.043 84.2323 284.96 84.4918 284.786 84.6868C284.609 84.8837 284.358 84.9941 284.097 84.9941Z" fill="#94BDF2"/>
<path d="M291.677 60.2098C288.259 60.2098 283.6 57.7825 278.69 55.1509C272.35 58.5259 266.429 61.5531 263.116 59.5436C261.558 58.5995 260.813 56.7519 260.839 53.8959C260.862 51.2072 261.634 49.3946 263.13 48.5076C266.451 46.5422 272.383 49.678 278.692 53.0622C285.126 49.632 291.182 46.4391 294.49 48.4524C295.976 49.3559 296.71 51.1944 296.677 53.9143C296.641 56.7446 295.827 58.6492 294.258 59.573C293.513 60.0165 292.644 60.2098 291.677 60.2098ZM280.647 54.1093C285.702 56.7943 290.989 59.3669 293.325 57.9904C294.303 57.4144 294.811 56.0361 294.838 53.8922C294.864 51.8679 294.426 50.5668 293.535 50.0258C291.278 48.653 285.798 51.3784 280.647 54.1093ZM265.619 49.7332C265.012 49.7332 264.489 49.8436 264.069 50.0921C263.165 50.6276 262.698 51.9121 262.679 53.9124C262.661 56.0342 263.129 57.3997 264.069 57.9702C266.341 59.3467 271.646 56.7887 276.735 54.1038C272.622 51.9102 268.303 49.7332 265.619 49.7332Z" fill="#94BDF2"/>
<path d="M282.809 113.826H276.918C274.844 113.826 273.145 112.127 273.145 110.053V109.501C273.145 107.427 274.844 105.729 276.918 105.729H282.809C284.884 105.729 286.583 107.427 286.583 109.501V110.053C286.583 112.129 284.884 113.826 282.809 113.826Z" fill="#94BDF2"/>
<path d="M259.745 83.3376V93.0836C259.745 102.417 267.384 110.056 276.723 110.056H282.384C291.721 110.056 299.363 102.419 299.363 93.0836V83.3376H259.745Z" fill="#94BDF2"/>
<path d="M299.193 86.406H260.41C259.195 86.406 258.201 85.4123 258.201 84.1977V83.9529C258.201 82.7384 259.195 81.7446 260.41 81.7446H299.193C300.408 81.7446 301.402 82.7384 301.402 83.9529V84.1977C301.402 85.4123 300.408 86.406 299.193 86.406Z" fill="#9EC8FF"/>
<path d="M299.332 89.9004L260.842 94.6538C259.636 94.8029 258.528 93.9379 258.379 92.7326L258.349 92.4897C258.2 91.2843 259.065 90.1765 260.271 90.0274L298.761 85.274C299.967 85.125 301.075 85.9899 301.224 87.1953L301.253 87.4382C301.403 88.6435 300.537 89.7514 299.332 89.9004Z" fill="#9EC8FF"/>
<path d="M299.332 96.6341L260.842 101.387C259.636 101.537 258.528 100.672 258.379 99.4662L258.349 99.2233C258.2 98.018 259.065 96.9101 260.271 96.7611L298.761 92.0077C299.967 91.8586 301.075 92.7235 301.224 93.9289L301.253 94.1718C301.403 95.3772 300.537 96.4869 299.332 96.6341Z" fill="#9EC8FF"/>
<path d="M296.957 103.84L264.901 107.798C263.795 107.935 262.777 107.142 262.641 106.036L262.565 105.432C262.429 104.326 263.222 103.308 264.329 103.172L296.384 99.2137C297.491 99.0775 298.509 99.8707 298.645 100.977L298.72 101.58C298.857 102.686 298.063 103.704 296.957 103.84Z" fill="#9EC8FF"/>
<path d="M574.499 112.577H595.162C595.162 123.908 585.834 133.232 574.499 133.232C563.165 133.232 553.837 123.908 553.837 112.577C553.837 101.247 563.165 91.9224 574.499 91.9224V112.577Z" fill="#9EC8FF"/>
<path d="M598.622 109.685C598.622 98.2775 589.372 89.0303 577.96 89.0303V109.685H598.622Z" fill="#F39892"/>
<path d="M557.298 109.685C557.298 121.093 566.548 130.34 577.96 130.34C566.626 130.34 557.298 121.015 557.298 109.685Z" fill="#F39892"/>
<path d="M577.96 89.0303C566.548 89.0303 557.298 98.2775 557.298 109.685C557.298 98.3548 566.626 89.0303 577.96 89.0303Z" fill="#F39892"/>
<path d="M577.96 130.34C589.372 130.34 598.622 121.093 598.622 109.685C598.622 121.015 589.294 130.34 577.96 130.34Z" fill="#F39892"/>
<path d="M174.636 98.9141H170.124V111.967H174.636V98.9141Z" fill="#9EC8FF"/>
<path d="M232.476 103.161H227.964V111.967H232.476V103.161Z" fill="#9EC8FF"/>
<path d="M193.759 81.4277H189.247V111.967H193.759V81.4277Z" fill="#9EC8FF"/>
<path d="M203.323 98.2402H198.811V111.967H203.323V98.2402Z" fill="#9EC8FF"/>
<path d="M212.884 94.3555H208.372V111.969H212.884V94.3555Z" fill="#9EC8FF"/>
<path d="M184.198 90.2959H179.686V111.967H184.198V90.2959Z" fill="#9EC8FF"/>
<path d="M222.478 85.2754H217.966V111.966H222.478V85.2754Z" fill="#9EC8FF"/>
<mask id="mask0_2173_7367" style="mask-type:luminance" maskUnits="userSpaceOnUse" x="0" y="33" width="53" height="53">
<path d="M26.1851 33.4783C11.7229 33.4783 0 45.197 0 59.654C0 74.1111 11.7229 85.8298 26.1851 85.8298C40.6472 85.8298 52.3701 74.1092 52.3701 59.6522C52.3701 45.1952 40.6472 33.4783 26.1851 33.4783ZM26.1851 73.5185C18.525 73.5185 12.3138 67.3113 12.3138 59.6522C12.3138 51.9931 18.5232 45.7859 26.1851 45.7859C33.8451 45.7859 40.0563 51.9931 40.0563 59.6522C40.0563 67.3113 33.8469 73.5185 26.1851 73.5185Z" fill="white"/>
</mask>
<g mask="url(#mask0_2173_7367)">
<path d="M49.8517 74.1205L26.1868 59.6543L21.9067 87.052C33.0221 88.8039 44.0492 83.596 49.8517 74.1205Z" fill="#A2DFF2"/>
</g>
<mask id="mask1_2173_7367" style="mask-type:luminance" maskUnits="userSpaceOnUse" x="0" y="33" width="53" height="53">
<path d="M26.1851 33.4783C11.7229 33.4783 0 45.197 0 59.654C0 74.1111 11.7229 85.8298 26.1851 85.8298C40.6472 85.8298 52.3701 74.1092 52.3701 59.6522C52.3701 45.1952 40.6472 33.4783 26.1851 33.4783ZM26.1851 73.5185C18.525 73.5185 12.3138 67.3113 12.3138 59.6522C12.3138 51.9931 18.5232 45.7859 26.1851 45.7859C33.8451 45.7859 40.0563 51.9931 40.0563 59.6522C40.0563 67.3113 33.8469 73.5185 26.1851 73.5185Z" fill="white"/>
</mask>
<g mask="url(#mask1_2173_7367)">
<path d="M49.8752 74.0874C49.9396 73.9825 50.0225 73.8389 50.0188 73.8445C55.0169 65.475 55.2194 55.0794 50.6337 46.5461C42.2594 50.9315 47.2464 48.2668 26.1846 59.6524C49.8899 74.1444 46.2081 71.9085 49.8752 74.0874Z" fill="#9CD499"/>
</g>
<mask id="mask2_2173_7367" style="mask-type:luminance" maskUnits="userSpaceOnUse" x="0" y="33" width="53" height="53">
<path d="M26.1851 33.4783C11.7229 33.4783 0 45.197 0 59.654C0 74.1111 11.7229 85.8298 26.1851 85.8298C40.6472 85.8298 52.3701 74.1092 52.3701 59.6522C52.3701 45.1952 40.6472 33.4783 26.1851 33.4783ZM26.1851 73.5185C18.525 73.5185 12.3138 67.3113 12.3138 59.6522C12.3138 51.9931 18.5232 45.7859 26.1851 45.7859C33.8451 45.7859 40.0563 51.9931 40.0563 59.6522C40.0563 67.3113 33.8469 73.5185 26.1851 73.5185Z" fill="white"/>
</mask>
<g mask="url(#mask2_2173_7367)">
<path d="M0.171387 50.0697L26.1871 59.6519L50.592 46.461C39.1747 25.3588 8.44811 27.8892 0.171387 50.0697Z" fill="#9EC8FF"/>
</g>
<mask id="mask3_2173_7367" style="mask-type:luminance" maskUnits="userSpaceOnUse" x="0" y="33" width="53" height="53">
<path d="M26.1851 33.4783C11.7229 33.4783 0 45.197 0 59.654C0 74.1111 11.7229 85.8298 26.1851 85.8298C40.6472 85.8298 52.3701 74.1092 52.3701 59.6522C52.3701 45.1952 40.6472 33.4783 26.1851 33.4783ZM26.1851 73.5185C18.525 73.5185 12.3138 67.3113 12.3138 59.6522C12.3138 51.9931 18.5232 45.7859 26.1851 45.7859C33.8451 45.7859 40.0563 51.9931 40.0563 59.6522C40.0563 67.3113 33.8469 73.5185 26.1851 73.5185Z" fill="white"/>
</mask>
<g mask="url(#mask3_2173_7367)">
<path d="M21.9055 87.0519L26.1856 59.6542L0.169942 50.072C-6.01551 66.649 4.96551 84.3817 21.9055 87.0519Z" fill="#F39892"/>
</g>
<mask id="mask4_2173_7367" style="mask-type:luminance" maskUnits="userSpaceOnUse" x="0" y="33" width="53" height="53">
<path d="M26.1851 33.4783C11.7229 33.4783 0 45.197 0 59.654C0 74.1111 11.7229 85.8298 26.1851 85.8298C40.6472 85.8298 52.3701 74.1092 52.3701 59.6522C52.3701 45.1952 40.6472 33.4783 26.1851 33.4783ZM26.1851 73.5185C18.525 73.5185 12.3138 67.3113 12.3138 59.6522C12.3138 51.9931 18.5232 45.7859 26.1851 45.7859C33.8451 45.7859 40.0563 51.9931 40.0563 59.6522C40.0563 67.3113 33.8469 73.5185 26.1851 73.5185Z" fill="white"/>
</mask>
<g mask="url(#mask4_2173_7367)">
<path d="M-1.53173 54.6063C-1.04757 54.6063 -0.602065 54.7296 -0.217315 54.9467C0.00727534 53.7045 0.320225 52.4716 0.727065 51.257L14.8524 56.4594C14.8524 56.4557 14.8505 56.4502 14.8505 56.4465C14.8211 55.8024 15.0641 55.2007 15.4635 54.724L14.0497 54.2032L1.3677 49.5327C2.40782 47.0005 3.79218 44.6983 5.45268 42.663C4.85438 42.444 4.3647 42.0208 4.04254 41.4797C2.2495 43.6733 0.756521 46.1613 -0.359069 48.896L-0.373794 48.8904L-0.694115 49.7498L-1.01627 50.6148L-1.00154 50.6203C-1.44888 51.9489 -1.79129 53.2978 -2.03613 54.6578C-1.86861 54.6247 -1.70109 54.6063 -1.53173 54.6063Z" fill="white"/>
</g>
<mask id="mask5_2173_7367" style="mask-type:luminance" maskUnits="userSpaceOnUse" x="0" y="33" width="53" height="53">
<path d="M26.1851 33.4783C11.7229 33.4783 0 45.197 0 59.654C0 74.1111 11.7229 85.8298 26.1851 85.8298C40.6472 85.8298 52.3701 74.1092 52.3701 59.6522C52.3701 45.1952 40.6472 33.4783 26.1851 33.4783ZM26.1851 73.5185C18.525 73.5185 12.3138 67.3113 12.3138 59.6522C12.3138 51.9931 18.5232 45.7859 26.1851 45.7859C33.8451 45.7859 40.0563 51.9931 40.0563 59.6522C40.0563 67.3113 33.8469 73.5185 26.1851 73.5185Z" fill="white"/>
</mask>
<g mask="url(#mask5_2173_7367)">
<path d="M51.8215 46.8422L51.8362 46.8349L51.3981 46.0251C51.3889 46.0086 51.3797 45.992 51.3705 45.9773L51.0133 45.3111L51.0004 45.3185C48.2391 40.5228 44.3014 36.6969 39.5666 34.231C34.9293 31.8166 29.657 30.7345 24.3183 31.1062C18.0408 31.5424 12.3211 33.8942 7.77962 37.6998C8.31348 38.0237 8.72216 38.528 8.9486 39.1242C13.2029 35.5559 18.5618 33.3495 24.4454 32.9409C34.7121 32.2269 44.1633 37.2508 49.3307 46.0988L42.1236 49.9946C40.6361 50.7951 38.5559 51.9195 35.0729 53.8039C32.8417 55.0111 30.0343 56.5293 26.4391 58.4726L26.2163 58.5922L25.491 58.1487L25.4523 58.4008L20.377 56.5312C20.3825 57.1771 20.1192 57.7752 19.6977 58.2426L25.1615 60.2558L21.1409 85.9826C13.549 84.5177 6.98067 79.8508 3.01719 73.0677C0.647945 69.0136 -0.57994 64.5031 -0.635167 59.9614C-0.922348 60.0644 -1.22425 60.1252 -1.52985 60.1252C-1.86673 60.1252 -2.18337 60.0626 -2.47607 59.9522C-2.42269 64.8197 -1.11012 69.6522 1.42849 73.9952C5.67178 81.2568 12.7169 86.2476 20.8574 87.7989L20.8556 87.8155L21.7632 87.959C21.765 87.959 22.6744 88.1025 22.6744 88.1025L22.6762 88.086C23.8544 88.2332 25.0326 88.3068 26.2108 88.3068C30.3491 88.3068 34.4488 87.4014 38.2614 85.6274C43.1416 83.3565 47.2431 79.8048 50.172 75.3293L50.1904 75.3404L50.3708 75.0459C50.3745 75.0478 50.6636 74.5656 50.6636 74.5656C50.7077 74.492 50.763 74.4 50.7924 74.3485L50.8127 74.3154C50.8182 74.308 50.8219 74.2988 50.8274 74.2896L51.1201 73.813L51.1072 73.8056C55.807 65.5429 56.074 55.3387 51.8215 46.8422ZM22.9579 86.2696L26.8809 61.1575L37.0924 67.3997C41.2087 69.9172 43.5632 71.3562 45.0469 72.2616L48.5723 74.4166C42.9501 82.9406 33.07 87.5137 22.9579 86.2696ZM49.5498 72.8229L49.3749 72.7199C48.4084 72.1475 47.9887 71.8991 46.0613 70.7232L28.0314 59.7019L42.998 51.6122C45.1961 50.4307 46.0963 49.9596 48.3293 48.7929C48.8742 48.5077 49.4983 48.1819 50.242 47.7936C54.141 55.692 53.887 65.1454 49.5498 72.8229Z" fill="#E7F3FE"/>
</g>
<path d="M177.944 64.7238H101.628C100.797 64.7238 100.124 64.0503 100.124 63.2203V30.3902C100.124 29.5603 100.797 28.8867 101.628 28.8867H177.944C178.774 28.8867 179.448 29.5603 179.448 30.3902V63.2185C179.448 64.0503 178.774 64.7238 177.944 64.7238Z" fill="#9EC8FF"/>
<path d="M176.065 63.0415H103.507C102.835 63.0415 102.292 62.4986 102.292 61.8269V39.5175C102.292 38.8459 102.837 38.303 103.507 38.303H176.065C176.736 38.303 177.28 38.8459 177.28 39.5175V61.8269C177.28 62.4968 176.735 63.0415 176.065 63.0415Z" fill="white"/>
<path d="M105.827 34.3211H104.065C103.693 34.3211 103.391 34.0193 103.391 33.6476V32.1975C103.391 31.8257 103.693 31.5239 104.065 31.5239H105.827C106.199 31.5239 106.501 31.8257 106.501 32.1975V33.6476C106.501 34.0193 106.199 34.3211 105.827 34.3211Z" fill="white"/>
<path d="M111.479 34.3211H109.716C109.344 34.3211 109.042 34.0193 109.042 33.6476V32.1975C109.042 31.8257 109.344 31.5239 109.716 31.5239H111.479C111.851 31.5239 112.153 31.8257 112.153 32.1975V33.6476C112.151 34.0193 111.851 34.3211 111.479 34.3211Z" fill="white"/>
<path d="M117.129 34.3211H115.366C114.994 34.3211 114.692 34.0193 114.692 33.6476V32.1975C114.692 31.8257 114.994 31.5239 115.366 31.5239H117.129C117.501 31.5239 117.803 31.8257 117.803 32.1975V33.6476C117.803 34.0193 117.501 34.3211 117.129 34.3211Z" fill="white"/>
<path d="M174.227 43.7248H134.563C133.911 43.7248 133.375 43.1911 133.375 42.5378C133.375 41.8863 133.909 41.3508 134.563 41.3508H174.227C174.879 41.3508 175.414 41.8845 175.414 42.5378C175.414 43.1911 174.881 43.7248 174.227 43.7248Z" fill="#9EC8FF"/>
<path d="M144.395 62.0243H104.731C104.077 62.0243 103.543 61.4906 103.543 60.8374C103.543 60.1859 104.077 59.6504 104.731 59.6504H144.395C145.047 59.6504 145.582 60.1841 145.582 60.8374C145.581 61.4906 145.047 62.0243 144.395 62.0243Z" fill="#9EC8FF"/>
<path d="M151.702 62.0243H147.598C147.376 62.0243 147.193 61.8421 147.193 61.6194V60.0589C147.193 59.8362 147.376 59.6541 147.598 59.6541H151.702C151.924 59.6541 152.107 59.8362 152.107 60.0589V61.6194C152.107 61.8421 151.924 62.0243 151.702 62.0243Z" fill="#9EC8FF"/>
<path d="M157.889 62.0243H153.786C153.563 62.0243 153.381 61.8421 153.381 61.6194V60.0589C153.381 59.8362 153.563 59.6541 153.786 59.6541H157.889C158.112 59.6541 158.294 59.8362 158.294 60.0589V61.6194C158.294 61.8421 158.112 62.0243 157.889 62.0243Z" fill="#9EC8FF"/>
<path d="M174.61 48.8914H108.927C108.483 48.8914 108.122 48.529 108.122 48.0875C108.122 47.6442 108.485 47.2837 108.927 47.2837H174.61C175.054 47.2837 175.415 47.6461 175.415 48.0875C175.415 48.5308 175.052 48.8914 174.61 48.8914Z" fill="#9EC8FF"/>
<path d="M174.61 52.366H108.927C108.483 52.366 108.122 52.0036 108.122 51.5621C108.122 51.1188 108.485 50.7583 108.927 50.7583H174.61C175.054 50.7583 175.415 51.1207 175.415 51.5621C175.415 52.0036 175.052 52.366 174.61 52.366Z" fill="#9EC8FF"/>
<path d="M372.767 41.9048H338.894V22.1699H364.369C367.649 25.4493 369.488 27.2877 372.767 30.5652V41.9048Z" fill="#FFB8B3"/>
<path d="M363.746 22.1702V32.7038H372.767V30.6795L364.311 22.2272L363.746 22.1702Z" fill="#F39892"/>
<path d="M364.369 22.1702V30.6795H372.767L364.369 22.1702Z" fill="#FFB8B3"/>
<path d="M357.809 29.5746H342.714C342.384 29.5746 342.116 29.306 342.116 28.9767C342.116 28.6475 342.384 28.3789 342.714 28.3789H357.809C358.139 28.3789 358.408 28.6475 358.408 28.9767C358.408 29.306 358.139 29.5746 357.809 29.5746Z" fill="white"/>
<path d="M357.809 32.6349H342.714C342.384 32.6349 342.116 32.3663 342.116 32.037C342.116 31.7078 342.384 31.4392 342.714 31.4392H357.809C358.139 31.4392 358.408 31.7078 358.408 32.037C358.408 32.3645 358.139 32.6349 357.809 32.6349Z" fill="white"/>
<path d="M357.809 35.8553H342.714C342.384 35.8553 342.116 35.5868 342.116 35.2575C342.116 34.9282 342.384 34.6597 342.714 34.6597H357.809C358.139 34.6597 358.408 34.9282 358.408 35.2575C358.408 35.5849 358.139 35.8553 357.809 35.8553Z" fill="white"/>
<path d="M354.818 24.6972C355.378 24.6972 355.831 24.2443 355.831 23.6855C355.831 23.1268 355.378 22.6738 354.818 22.6738C354.259 22.6738 353.806 23.1268 353.806 23.6855C353.806 24.2443 354.259 24.6972 354.818 24.6972Z" fill="#3E6BAB"/>
<path d="M227.105 23.1316L205.969 19.0493L201.045 44.5246L222.181 48.607L227.105 23.1316Z" fill="#FAE8B6"/>
<path d="M222.644 34.148L211.439 31.9839C211.14 31.9268 210.943 31.6361 211.001 31.338C211.058 31.0398 211.348 30.8429 211.647 30.9L222.852 33.0641C223.151 33.1212 223.348 33.4119 223.29 33.71C223.233 34.0082 222.943 34.2051 222.644 34.148Z" fill="#9EC8FF"/>
<path d="M222.103 36.9488L210.898 34.7847C210.599 34.7276 210.402 34.4369 210.46 34.1387C210.517 33.8406 210.807 33.6437 211.106 33.7008L222.311 35.8649C222.61 35.9219 222.806 36.2127 222.749 36.5108C222.692 36.8089 222.402 37.0059 222.103 36.9488Z" fill="#9EC8FF"/>
<path d="M221.548 39.827L210.342 37.6628C210.044 37.6058 209.847 37.315 209.904 37.0169C209.961 36.7188 210.254 36.5219 210.55 36.5789L221.756 38.7431C222.054 38.8001 222.251 39.0909 222.194 39.389C222.137 39.6871 221.846 39.884 221.548 39.827Z" fill="#9EC8FF"/>
<path d="M215.059 22.4676C214.964 22.9661 214.479 23.2917 213.98 23.1961C213.481 23.1004 213.155 22.6166 213.251 22.1181C213.347 21.6197 213.831 21.2941 214.33 21.3897C214.829 21.4872 215.157 21.9691 215.059 22.4676Z" fill="#3E6BAB"/>
<path d="M388.4 69.5174L355.687 66.0724L357.846 45.5757L383.783 48.3066C386.15 51.2308 387.478 52.8686 389.845 55.7928L388.4 69.5174Z" fill="#9EC8FF"/>
<path d="M383.321 49.7694L358.972 47.2041L357.151 64.4988L387.421 67.688L388.489 57.561L382.566 56.9372L383.321 49.7694Z" fill="white"/>
<path d="M380.02 56.0522L364.247 54.3904C363.886 54.3518 363.621 54.0261 363.66 53.6635C363.698 53.3028 364.024 53.0379 364.387 53.0765L380.16 54.7382C380.52 54.7769 380.785 55.1026 380.747 55.4651C380.708 55.8258 380.382 56.0908 380.02 56.0522Z" fill="#9EC8FF"/>
<path d="M379.653 59.5273L363.881 57.8655C363.52 57.8269 363.255 57.5012 363.293 57.1386C363.332 56.7779 363.658 56.513 364.02 56.5516L379.793 58.2133C380.154 58.252 380.419 58.5777 380.381 58.9402C380.342 59.3009 380.016 59.5659 379.653 59.5273Z" fill="#9EC8FF"/>
<path d="M379.274 63.1557L363.501 61.494C363.14 61.4553 362.875 61.1296 362.913 60.7671C362.952 60.4064 363.278 60.1414 363.641 60.18L379.413 61.8418C379.774 61.8804 380.039 62.2061 380.001 62.5687C379.962 62.9312 379.634 63.1925 379.274 63.1557Z" fill="#9EC8FF"/>
<path d="M370.088 51.3205C370.648 51.3205 371.101 50.8676 371.101 50.3088C371.101 49.7501 370.648 49.2971 370.088 49.2971C369.529 49.2971 369.076 49.7501 369.076 50.3088C369.076 50.8676 369.529 51.3205 370.088 51.3205Z" fill="#3E6BAB"/>
<path d="M550.936 34.3212C550.936 40.556 545.879 45.6112 539.642 45.6112C533.405 45.6112 528.348 40.556 528.348 34.3212C528.348 28.0864 533.405 23.0312 539.642 23.0312C545.879 23.0313 550.936 28.0864 550.936 34.3212Z" fill="#9CD499"/>
<path d="M538.52 38.1857C538.513 38.1857 538.507 38.1857 538.5 38.1857C538.349 38.1802 538.205 38.1121 538.106 37.998L535.039 34.5126C534.838 34.2844 534.86 33.9347 535.089 33.7342C535.317 33.5336 535.667 33.5557 535.867 33.7838L538.55 36.8313L544.687 30.8266C544.904 30.6131 545.254 30.6168 545.468 30.8358C545.681 31.0529 545.678 31.4026 545.46 31.616L538.907 38.0275C538.804 38.1287 538.664 38.1857 538.52 38.1857Z" fill="white"/>
<path d="M30.7794 139.124H95.8923C97.562 139.124 98.9261 137.758 98.9261 136.091V112.834C98.9261 111.165 97.5602 109.801 95.8923 109.801H30.7794C29.1097 109.801 27.7456 111.166 27.7456 112.834V136.089C27.7456 137.758 29.1116 139.124 30.7794 139.124Z" fill="#9EC8FF"/>
<path d="M90.3291 134.699V150.877L71.6807 132.235C71.6807 132.235 89.9498 134.699 90.3291 134.699Z" fill="#9EC8FF"/>
<path d="M34 136.215H92.6734C94.089 136.215 95.2451 135.058 95.2451 133.645V115.279C95.2451 113.864 94.0872 112.708 92.6734 112.708H34C32.5843 112.708 31.4282 113.866 31.4282 115.279V133.645C31.4282 135.058 32.5862 136.215 34 136.215Z" fill="white"/>
<path d="M60.4927 118.522H89.3195C90.0154 118.522 90.5842 117.953 90.5842 117.257C90.5842 116.562 90.0154 115.993 89.3195 115.993H60.4927C59.7969 115.993 59.228 116.562 59.228 117.257C59.228 117.953 59.7969 118.522 60.4927 118.522Z" fill="#9EC8FF"/>
<path d="M36.4132 123.354H89.8787C90.2652 123.354 90.5819 123.038 90.5819 122.651V122.637C90.5819 122.25 90.2652 121.934 89.8787 121.934H36.4132C36.0266 121.934 35.71 122.25 35.71 122.637V122.651C35.7118 123.038 36.0266 123.354 36.4132 123.354Z" fill="#9EC8FF"/>
<path d="M36.4132 126.105H89.8787C90.2652 126.105 90.5819 125.788 90.5819 125.402V125.387C90.5819 125.001 90.2652 124.685 89.8787 124.685H36.4132C36.0266 124.685 35.71 125.001 35.71 125.387V125.402C35.7118 125.788 36.0266 126.105 36.4132 126.105Z" fill="#9EC8FF"/>
<path d="M512.356 118.636H515.769C516.49 118.636 517.074 118.052 517.074 117.331V114.521C517.074 113.802 516.49 113.216 515.769 113.216H512.356C511.634 113.216 511.05 113.8 511.05 114.521V117.331C511.052 118.052 511.636 118.636 512.356 118.636Z" fill="#9EC8FF"/>
<path d="M501.406 118.636H504.819C505.54 118.636 506.124 118.052 506.124 117.331V114.521C506.124 113.802 505.54 113.216 504.819 113.216H501.406C500.684 113.216 500.101 113.8 500.101 114.521V117.331C500.102 118.052 500.686 118.636 501.406 118.636Z" fill="#9EC8FF"/>
<path d="M490.457 118.636H493.87C494.591 118.636 495.175 118.052 495.175 117.331V114.521C495.175 113.802 494.591 113.216 493.87 113.216H490.457C489.737 113.216 489.151 113.8 489.151 114.521V117.331C489.153 118.052 489.737 118.636 490.457 118.636Z" fill="#9EC8FF"/>
</svg>
