<svg width="150" height="150" viewBox="0 0 150 150" fill="none" xmlns="http://www.w3.org/2000/svg">
<path d="M150 114.72H0V114.795H150V114.72Z" fill="#EBEBEB"/>
<path d="M51.9662 116.634H45.0122V116.709H51.9662V116.634Z" fill="#EBEBEB"/>
<path d="M137.631 118.242H120.63V118.317H137.631V118.242Z" fill="#EBEBEB"/>
<path d="M29.8169 118.242H12.8159V118.317H29.8169V118.242Z" fill="#EBEBEB"/>
<path d="M71.0999 101.34H13.1729C12.7191 101.339 12.2842 101.158 11.9636 100.837C11.643 100.516 11.4629 100.081 11.4629 99.627V18.198C11.4668 17.7468 11.6486 17.3154 11.9688 16.9975C12.289 16.6795 12.7217 16.5008 13.1729 16.5H71.0999C71.5542 16.5 71.9899 16.6805 72.3112 17.0017C72.6324 17.323 72.8129 17.7587 72.8129 18.213V99.627C72.8129 100.081 72.6324 100.517 72.3112 100.838C71.9899 101.16 71.5542 101.34 71.0999 101.34ZM13.1729 16.56C12.739 16.5608 12.3231 16.7337 12.0166 17.0408C11.7101 17.3479 11.5379 17.7641 11.5379 18.198V99.627C11.5379 100.061 11.7101 100.477 12.0166 100.784C12.3231 101.091 12.739 101.264 13.1729 101.265H71.0999C71.5338 101.263 71.9495 101.09 72.2564 100.783C72.5632 100.477 72.7363 100.061 72.7379 99.627V18.198C72.7363 17.7641 72.5632 17.3483 72.2564 17.0415C71.9495 16.7347 71.5338 16.5616 71.0999 16.56H13.1729Z" fill="#EBEBEB"/>
<path d="M135.993 101.34H78.0631C77.6093 101.338 77.1745 101.157 76.8536 100.837C76.5327 100.516 76.3517 100.081 76.3501 99.627V18.198C76.3548 17.7465 76.5373 17.3151 76.858 16.9973C77.1786 16.6794 77.6116 16.5008 78.0631 16.5H135.993C136.444 16.5016 136.876 16.6807 137.195 16.9985C137.515 17.3164 137.696 17.7473 137.7 18.198V99.627C137.7 99.8516 137.657 100.074 137.571 100.282C137.486 100.489 137.36 100.678 137.201 100.837C137.043 100.996 136.855 101.122 136.647 101.209C136.44 101.295 136.218 101.34 135.993 101.34ZM78.0631 16.56C77.6292 16.5616 77.2134 16.7347 76.9066 17.0415C76.5998 17.3483 76.4267 17.7641 76.4251 18.198V99.627C76.4267 100.061 76.5998 100.477 76.9066 100.783C77.2134 101.09 77.6292 101.263 78.0631 101.265H135.993C136.427 101.263 136.843 101.09 137.15 100.783C137.456 100.477 137.63 100.061 137.631 99.627V18.198C137.63 17.7641 137.456 17.3483 137.15 17.0415C136.843 16.7347 136.427 16.5616 135.993 16.56H78.0631Z" fill="#EBEBEB"/>
<path d="M135.192 123.993H128.712V124.068H135.192V123.993Z" fill="#EBEBEB"/>
<path d="M140.442 87.9871C139.815 86.1871 134.868 88.6351 132.873 91.6141C131.538 93.5971 130.722 95.7181 130.344 98.5621C130.389 95.3101 130.44 91.8271 130.491 88.5361C130.896 87.7171 131.82 85.8211 132.489 84.3361C134.709 79.3321 139.989 77.4721 141.813 74.3101C144.213 70.1701 144.189 63.9631 142.155 61.7251C140.4 59.7661 134.529 72.9301 133.869 74.4001C132.073 78.3368 130.94 82.5437 130.518 86.8501C130.563 83.7571 130.611 80.9191 130.65 78.7171C130.773 71.5741 130.929 69.2761 130.998 68.5711C131.244 68.2231 131.532 67.8211 131.697 67.6051C133.113 65.7811 136.257 63.6091 137.829 60.9571C140.124 57.0841 139.752 52.4491 138.144 50.7361C136.461 48.9361 133.485 53.1961 131.907 57.4201C130.329 61.6441 131.007 65.6911 130.56 69.2011C130.467 69.9001 130.371 72.5011 130.281 76.1311C129.801 72.2311 128.847 69.6151 127.08 67.1791C124.902 64.1791 123.024 60.5341 121.233 61.0051C119.442 61.4761 120.405 66.3061 121.833 69.7051C123.096 72.7231 129.333 75.7321 130.233 78.1591C130.128 83.0731 130.029 89.3101 129.96 95.1001C129.471 92.1001 129.807 91.8481 127.794 87.2701C126.594 84.5431 121.692 81.1801 121.11 83.0551C120.528 84.9301 121.41 88.4551 123.264 90.9541C124.764 92.9551 128.064 92.9521 128.841 94.1941C129.018 94.4941 129.609 95.5861 129.948 96.2311C129.867 103.308 129.831 109.557 129.873 111.69L130.194 111.711C130.179 111.162 130.218 107.559 130.281 102.792C131.085 100.26 136.506 98.7781 138.18 96.1411C139.935 93.3661 141.192 90.1471 140.442 87.9871Z" fill="#E6E6E6"/>
<path d="M135.345 114.882H124.947C124.673 114.879 124.409 114.782 124.198 114.608C123.987 114.434 123.841 114.193 123.786 113.925L123.045 110.283H137.265L136.527 113.925C136.471 114.196 136.322 114.44 136.107 114.615C135.891 114.789 135.622 114.884 135.345 114.882Z" fill="#E6E6E6"/>
<path d="M137.553 111.693H122.739C122.567 111.694 122.401 111.632 122.273 111.517C122.144 111.403 122.062 111.246 122.043 111.075L121.743 108.375C121.723 108.194 121.774 108.011 121.886 107.867C121.998 107.723 122.162 107.629 122.343 107.604H137.847C137.939 107.603 138.03 107.621 138.115 107.655C138.2 107.689 138.277 107.74 138.342 107.805C138.407 107.869 138.459 107.946 138.495 108.03C138.53 108.115 138.549 108.205 138.549 108.297C138.551 108.324 138.551 108.351 138.549 108.378L138.249 111.078C138.231 111.249 138.149 111.406 138.02 111.52C137.891 111.634 137.725 111.696 137.553 111.693Z" fill="#F0F0F0"/>
<path d="M36.813 26.7029H15.873V49.6949H36.813V26.7029Z" fill="#E6E6E6"/>
<path d="M38.6039 26.7029H16.1519V49.6949H38.6039V26.7029Z" fill="#F5F5F5"/>
<path d="M37.173 28.134H17.583V48.261H37.173V28.134Z" fill="white"/>
<path d="M24.444 45.357C23.3243 44.2364 22.6953 42.7171 22.6953 41.133C22.6953 39.5489 23.3243 38.0296 24.444 36.909L30.3 31.041C31.4197 32.1616 32.0486 33.6809 32.0486 35.265C32.0486 36.8491 31.4197 38.3684 30.3 39.489L24.444 45.357Z" fill="#F5F5F5"/>
<path d="M30.4351 61.8181H16.1821V77.9041H30.4351V61.8181Z" fill="#E6E6E6"/>
<path d="M32.4958 61.8181H16.5298V77.9041H32.4958V61.8181Z" fill="#F5F5F5"/>
<path d="M30.8522 63.4651H18.1802V76.2601H30.8522V63.4651Z" fill="white"/>
<path d="M23.3652 67.2634L21.9121 68.7165C21.2795 69.3492 21.2795 70.3749 21.9121 71.0076L23.3652 72.4607C23.9979 73.0933 25.0236 73.0933 25.6562 72.4607L27.1093 71.0076C27.742 70.3749 27.742 69.3492 27.1093 68.7165L25.6562 67.2634C25.0236 66.6308 23.9979 66.6308 23.3652 67.2634Z" fill="#F5F5F5"/>
<path d="M61.7582 81.9121H55.2632V114.675H61.7582V81.9121Z" fill="#E6E6E6"/>
<path d="M55.2632 81.915H27.2402V114.678H55.2632V81.915Z" fill="#F0F0F0"/>
<path d="M52.71 94.5181H29.793V102.069H52.71V94.5181Z" fill="#E6E6E6"/>
<path d="M52.71 103.755H29.793V111.306H52.71V103.755Z" fill="#E6E6E6"/>
<path d="M38.6759 95.5321H43.8239C43.9913 95.5305 44.1514 95.4634 44.2698 95.345C44.3881 95.2266 44.4553 95.0665 44.4569 94.8991C44.4561 94.7315 44.3892 94.5709 44.2706 94.4524C44.1521 94.3338 43.9915 94.2669 43.8239 94.2661H38.6759C38.5085 94.2669 38.3483 94.3339 38.2302 94.4526C38.1122 94.5712 38.0459 94.7317 38.0459 94.8991C38.0459 95.0665 38.1122 95.227 38.2302 95.3457C38.3483 95.4643 38.5085 95.5313 38.6759 95.5321Z" fill="#F0F0F0"/>
<path d="M52.71 85.2839H29.793V92.8349H52.71V85.2839Z" fill="#E6E6E6"/>
<path d="M38.6759 86.2951H43.8239C43.9915 86.2943 44.1521 86.2273 44.2706 86.1088C44.3892 85.9902 44.4561 85.8297 44.4569 85.6621C44.4553 85.4947 44.3881 85.3346 44.2698 85.2162C44.1514 85.0978 43.9913 85.0306 43.8239 85.0291H38.6759C38.5085 85.0298 38.3483 85.0969 38.2302 85.2155C38.1122 85.3341 38.0459 85.4947 38.0459 85.6621C38.0459 85.8294 38.1122 85.99 38.2302 86.1086C38.3483 86.2272 38.5085 86.2943 38.6759 86.2951Z" fill="#F0F0F0"/>
<path d="M38.6759 104.769H43.8239C43.9921 104.768 44.1531 104.701 44.2717 104.582C44.3903 104.462 44.4569 104.301 44.4569 104.133C44.4561 103.966 44.3891 103.805 44.2704 103.687C44.1518 103.569 43.9913 103.503 43.8239 103.503H38.6759C38.5932 103.503 38.5112 103.519 38.4348 103.551C38.3584 103.583 38.2889 103.629 38.2304 103.687C38.1719 103.746 38.1255 103.815 38.0939 103.892C38.0622 103.968 38.0459 104.05 38.0459 104.133C38.0455 104.216 38.0615 104.298 38.0929 104.375C38.1244 104.452 38.1707 104.522 38.2292 104.581C38.2877 104.64 38.3572 104.687 38.4339 104.72C38.5105 104.752 38.5928 104.769 38.6759 104.769Z" fill="#F0F0F0"/>
<path d="M55.263 80.1899H26.373V81.9119H55.263V80.1899Z" fill="#E6E6E6"/>
<path d="M62.6642 80.1931H55.2632V81.9151H62.6642V80.1931Z" fill="#E0E0E0"/>
<path d="M76.8 133.992C105.823 133.992 129.351 132.136 129.351 129.846C129.351 127.556 105.823 125.7 76.8 125.7C47.7769 125.7 24.249 127.556 24.249 129.846C24.249 132.136 47.7769 133.992 76.8 133.992Z" fill="#F5F5F5"/>
<path d="M119.292 38.6489C118.86 37.217 118.287 35.8312 117.582 34.5119L118.647 31.0259L111.765 24.1259L108.273 25.1999C106.958 24.4866 105.573 23.9116 104.139 23.4839L102.429 20.2649H92.7001L90.9871 23.4839C89.5488 23.9119 88.1585 24.4869 86.8381 25.1999L83.3491 24.1289L76.4491 31.0289L77.5171 34.5179C76.8088 35.8356 76.2358 37.2217 75.8071 38.6549L72.6001 40.3679V50.0999L75.8191 51.8129C76.2476 53.2457 76.8216 54.6309 77.5321 55.9469L76.4641 59.4299L83.3641 66.3299L86.8531 65.2649C88.1703 65.9735 89.5565 66.5455 90.9901 66.9719L92.7001 70.1999H102.444L104.154 66.9809C105.586 66.5511 106.972 65.9772 108.288 65.2679L111.78 66.3329L118.68 59.4329L117.6 55.9529C118.304 54.635 118.875 53.2501 119.304 51.8189L122.511 50.0999V40.3589L119.292 38.6489ZM97.5541 62.8979C94.06 62.8973 90.6446 61.8606 87.7397 59.919C84.8347 57.9774 82.5708 55.218 81.2341 51.9897C79.8973 48.7614 79.5479 45.2093 80.2299 41.7824C80.912 38.3555 82.5948 35.2079 85.0657 32.7374C87.5366 30.2669 90.6846 28.5846 94.1115 27.9031C97.5385 27.2217 101.091 27.5717 104.319 28.909C107.547 30.2463 110.306 32.5107 112.247 35.4159C114.188 38.3212 115.224 41.7368 115.224 45.2309C115.223 49.9167 113.361 54.4104 110.048 57.7235C106.734 61.0366 102.24 62.8979 97.5541 62.8979Z" fill="#3686F7"/>
<path d="M97.5542 30.042C94.5497 30.0432 91.6131 30.9352 89.1156 32.6052C86.6181 34.2753 84.6718 36.6483 83.5229 39.4244C82.3739 42.2005 82.0739 45.2549 82.6608 48.2015C83.2477 51.148 84.695 53.8544 86.8199 55.9785C88.9448 58.1025 91.6518 59.5488 94.5986 60.1345C97.5454 60.7202 100.6 60.419 103.375 59.269C106.151 58.119 108.523 56.1718 110.192 53.6736C111.861 51.1754 112.752 48.2384 112.752 45.234C112.752 43.2384 112.359 41.2624 111.595 39.4189C110.831 37.5753 109.712 35.9003 108.3 34.4895C106.889 33.0787 105.214 31.9598 103.37 31.1967C101.526 30.4336 99.5497 30.0412 97.5542 30.042ZM97.5542 58.404C94.9494 58.4046 92.4029 57.6328 90.2368 56.1861C88.0707 54.7395 86.3822 52.683 85.3848 50.2767C84.3875 47.8704 84.1261 45.2224 84.6336 42.6676C85.1412 40.1128 86.395 37.7658 88.2365 35.9235C90.0779 34.0812 92.4243 32.8264 94.9789 32.3176C97.5335 31.8089 100.182 32.0691 102.588 33.0654C104.995 34.0616 107.052 35.7492 108.5 37.9146C109.948 40.0801 110.721 42.6262 110.721 45.231C110.714 48.7215 109.325 52.067 106.857 54.5357C104.39 57.0044 101.045 58.3953 97.5542 58.404Z" fill="#3686F7"/>
<path opacity="0.4" d="M119.292 38.6489C118.86 37.217 118.287 35.8312 117.582 34.5119L118.647 31.0259L111.765 24.1259L108.273 25.1999C106.958 24.4866 105.573 23.9116 104.139 23.4839L102.429 20.2649H92.7001L90.9871 23.4839C89.5488 23.9119 88.1585 24.4869 86.8381 25.1999L83.3491 24.1289L76.4491 31.0289L77.5171 34.5179C76.8088 35.8356 76.2358 37.2217 75.8071 38.6549L72.6001 40.3679V50.0999L75.8191 51.8129C76.2476 53.2457 76.8216 54.6309 77.5321 55.9469L76.4641 59.4299L83.3641 66.3299L86.8531 65.2649C88.1703 65.9735 89.5565 66.5455 90.9901 66.9719L92.7001 70.1999H102.444L104.154 66.9809C105.586 66.5511 106.972 65.9772 108.288 65.2679L111.78 66.3329L118.68 59.4329L117.6 55.9529C118.304 54.635 118.875 53.2501 119.304 51.8189L122.511 50.0999V40.3589L119.292 38.6489ZM97.5541 62.8979C94.06 62.8973 90.6446 61.8606 87.7397 59.919C84.8347 57.9774 82.5708 55.218 81.2341 51.9897C79.8973 48.7614 79.5479 45.2093 80.2299 41.7824C80.912 38.3555 82.5948 35.2079 85.0657 32.7374C87.5366 30.2669 90.6846 28.5846 94.1115 27.9031C97.5385 27.2217 101.091 27.5717 104.319 28.909C107.547 30.2463 110.306 32.5107 112.247 35.4159C114.188 38.3212 115.224 41.7368 115.224 45.2309C115.223 49.9167 113.361 54.4104 110.048 57.7235C106.734 61.0366 102.24 62.8979 97.5541 62.8979Z" fill="white"/>
<path opacity="0.4" d="M97.5542 30.042C94.5497 30.0432 91.6131 30.9352 89.1156 32.6052C86.6181 34.2753 84.6718 36.6483 83.5229 39.4244C82.3739 42.2005 82.0739 45.2549 82.6608 48.2015C83.2477 51.148 84.695 53.8544 86.8199 55.9785C88.9448 58.1025 91.6518 59.5488 94.5986 60.1345C97.5454 60.7202 100.6 60.419 103.375 59.269C106.151 58.119 108.523 56.1718 110.192 53.6736C111.861 51.1754 112.752 48.2384 112.752 45.234C112.752 43.2384 112.359 41.2624 111.595 39.4189C110.831 37.5753 109.712 35.9003 108.3 34.4895C106.889 33.0787 105.214 31.9598 103.37 31.1967C101.526 30.4336 99.5497 30.0412 97.5542 30.042ZM97.5542 58.404C94.9494 58.4046 92.4029 57.6328 90.2368 56.1861C88.0707 54.7395 86.3822 52.683 85.3848 50.2767C84.3875 47.8704 84.1261 45.2224 84.6336 42.6676C85.1412 40.1128 86.395 37.7658 88.2365 35.9235C90.0779 34.0812 92.4243 32.8264 94.9789 32.3176C97.5335 31.8089 100.182 32.0691 102.588 33.0654C104.995 34.0616 107.052 35.7492 108.5 37.9146C109.948 40.0801 110.721 42.6262 110.721 45.231C110.714 48.7215 109.325 52.067 106.857 54.5357C104.39 57.0044 101.045 58.3953 97.5542 58.404Z" fill="white"/>
<path d="M57.996 57.9359C57.7699 57.1767 57.4684 56.442 57.096 55.7429L57.663 53.8919L54 50.2349L52.149 50.8019C51.4499 50.4294 50.7152 50.1279 49.956 49.9019L49.056 48.2039H43.872L42.972 49.9019C42.2128 50.1279 41.4781 50.4294 40.779 50.8019L38.928 50.2349L35.274 53.8919L35.838 55.7429C35.4667 56.4425 35.1653 57.1771 34.938 57.9359L33.228 58.8359V64.0079L34.938 64.9079C35.164 65.6671 35.4655 66.4018 35.838 67.1009L35.274 68.9519L38.928 72.6089L40.779 72.0419C41.4787 72.4131 42.2133 72.7145 42.972 72.9419L43.872 74.6369H49.044L49.944 72.9419C50.7028 72.7145 51.4373 72.4131 52.137 72.0419L53.988 72.6089L57.645 68.9519L57.078 67.1009C57.4504 66.4017 57.7519 65.667 57.978 64.9079L59.685 64.0079V58.8449L57.996 57.9359ZM46.458 68.7749C45.0049 68.7749 43.5845 68.344 42.3763 67.5367C41.168 66.7294 40.2264 65.5819 39.6703 64.2394C39.1142 62.8969 38.9687 61.4197 39.2522 59.9945C39.5357 58.5694 40.2354 57.2602 41.2629 56.2327C42.2904 55.2052 43.5995 54.5055 45.0247 54.222C46.4499 53.9385 47.9271 54.084 49.2696 54.6401C50.6121 55.1962 51.7595 56.1379 52.5668 57.3461C53.3741 58.5543 53.805 59.9748 53.805 61.4279C53.8042 63.3762 53.0299 65.2444 51.6523 66.6221C50.2746 67.9998 48.4063 68.7741 46.458 68.7749Z" fill="#263238"/>
<path d="M57.996 57.9359C57.7699 57.1767 57.4684 56.442 57.096 55.7429L57.663 53.8919L54 50.2349L52.149 50.8019C51.4499 50.4294 50.7152 50.1279 49.956 49.9019L49.056 48.2039H43.872L42.972 49.9019C42.2128 50.1279 41.4781 50.4294 40.779 50.8019L38.928 50.2349L35.274 53.8919L35.838 55.7429C35.4667 56.4425 35.1653 57.1771 34.938 57.9359L33.228 58.8359V64.0079L34.938 64.9079C35.164 65.6671 35.4655 66.4018 35.838 67.1009L35.274 68.9519L38.928 72.6089L40.779 72.0419C41.4787 72.4131 42.2133 72.7145 42.972 72.9419L43.872 74.6369H49.044L49.944 72.9419C50.7028 72.7145 51.4373 72.4131 52.137 72.0419L53.988 72.6089L57.645 68.9519L57.078 67.1009C57.4504 66.4017 57.7519 65.667 57.978 64.9079L59.685 64.0079V58.8449L57.996 57.9359ZM46.458 68.7749C45.0049 68.7749 43.5845 68.344 42.3763 67.5367C41.168 66.7294 40.2264 65.5819 39.6703 64.2394C39.1142 62.8969 38.9687 61.4197 39.2522 59.9945C39.5357 58.5694 40.2354 57.2602 41.2629 56.2327C42.2904 55.2052 43.5995 54.5055 45.0247 54.222C46.4499 53.9385 47.9271 54.084 49.2696 54.6401C50.6121 55.1962 51.7595 56.1379 52.5668 57.3461C53.3741 58.5543 53.805 59.9748 53.805 61.4279C53.8042 63.3762 53.0299 65.2444 51.6523 66.6221C50.2746 67.9998 48.4063 68.7741 46.458 68.7749Z" fill="#3686F7"/>
<path d="M46.458 58.9949C45.9762 58.9949 45.5052 59.1377 45.1046 59.4054C44.704 59.6731 44.3918 60.0535 44.2074 60.4987C44.023 60.9438 43.9748 61.4336 44.0688 61.9061C44.1628 62.3787 44.3948 62.8127 44.7355 63.1534C45.0761 63.4941 45.5102 63.7261 45.9827 63.8201C46.4553 63.9141 46.9451 63.8658 47.3902 63.6814C47.8353 63.4971 48.2158 63.1848 48.4834 62.7842C48.7511 62.3836 48.894 61.9127 48.894 61.4309C48.894 60.7848 48.6373 60.1652 48.1805 59.7084C47.7236 59.2515 47.104 58.9949 46.458 58.9949Z" fill="#263238"/>
<path opacity="0.4" d="M57.996 57.9359C57.7699 57.1767 57.4684 56.442 57.096 55.7429L57.663 53.8919L54 50.2349L52.149 50.8019C51.4499 50.4294 50.7152 50.1279 49.956 49.9019L49.056 48.2039H43.872L42.972 49.9019C42.2128 50.1279 41.4781 50.4294 40.779 50.8019L38.928 50.2349L35.274 53.8919L35.838 55.7429C35.4667 56.4425 35.1653 57.1771 34.938 57.9359L33.228 58.8359V64.0079L34.938 64.9079C35.164 65.6671 35.4655 66.4018 35.838 67.1009L35.274 68.9519L38.928 72.6089L40.779 72.0419C41.4787 72.4131 42.2133 72.7145 42.972 72.9419L43.872 74.6369H49.044L49.944 72.9419C50.7028 72.7145 51.4373 72.4131 52.137 72.0419L53.988 72.6089L57.645 68.9519L57.078 67.1009C57.4504 66.4017 57.7519 65.667 57.978 64.9079L59.685 64.0079V58.8449L57.996 57.9359ZM46.458 68.7749C45.0049 68.7749 43.5845 68.344 42.3763 67.5367C41.168 66.7294 40.2264 65.5819 39.6703 64.2394C39.1142 62.8969 38.9687 61.4197 39.2522 59.9945C39.5357 58.5694 40.2354 57.2602 41.2629 56.2327C42.2904 55.2052 43.5995 54.5055 45.0247 54.222C46.4499 53.9385 47.9271 54.084 49.2696 54.6401C50.6121 55.1962 51.7595 56.1379 52.5668 57.3461C53.3741 58.5543 53.805 59.9748 53.805 61.4279C53.8042 63.3762 53.0299 65.2444 51.6523 66.6221C50.2746 67.9998 48.4063 68.7741 46.458 68.7749Z" fill="white"/>
<path opacity="0.2" d="M46.458 58.9949C45.9762 58.9949 45.5052 59.1377 45.1046 59.4054C44.704 59.6731 44.3918 60.0535 44.2074 60.4987C44.023 60.9438 43.9748 61.4336 44.0688 61.9061C44.1628 62.3787 44.3948 62.8127 44.7355 63.1534C45.0761 63.4941 45.5102 63.7261 45.9827 63.8201C46.4553 63.9141 46.9451 63.8658 47.3902 63.6814C47.8353 63.4971 48.2158 63.1848 48.4834 62.7842C48.7511 62.3836 48.894 61.9127 48.894 61.4309C48.894 60.7848 48.6373 60.1652 48.1805 59.7084C47.7236 59.2515 47.104 58.9949 46.458 58.9949Z" fill="white"/>
<path d="M62.7002 53.2468L60.7202 52.4308L60.6482 51.6868C60.463 51.5307 60.2905 51.3601 60.1322 51.1768L59.3942 51.1018L58.5752 49.1248L59.0522 48.5578C59.0312 48.3153 59.0312 48.0714 59.0522 47.8288L58.5752 47.2648L59.4002 45.2998L60.1382 45.2278C60.2986 45.0389 60.4731 44.8624 60.6602 44.6998L60.7322 43.9588L62.7122 43.1428L63.2762 43.6168C63.5189 43.5988 63.7625 43.5988 64.0052 43.6168L64.5692 43.1428L66.5492 43.9588L66.6182 44.6998C66.802 44.8586 66.9744 45.03 67.1342 45.2128L67.8722 45.2848L68.6882 47.2618L68.2142 47.8258C68.2352 48.0684 68.2352 48.3123 68.2142 48.5548L68.6882 49.1218L67.8722 51.0988L67.1342 51.1738C66.9759 51.3581 66.8034 51.5296 66.6182 51.6868L66.5492 52.4278L64.5692 53.2438L64.0052 52.7698C63.7635 52.7878 63.5209 52.7878 63.2792 52.7698L62.7002 53.2468ZM64.1342 52.3468L64.6472 52.7698L66.1472 52.1488L66.2072 51.4858L66.2792 51.4318C66.4896 51.2614 66.6834 51.0716 66.8582 50.8648L66.9122 50.7958L67.5752 50.7328L68.1962 49.2328L67.8002 48.7048V48.6178C67.8272 48.3455 67.8272 48.0712 67.8002 47.7988V47.6998L68.2232 47.1838L67.6022 45.6838L66.9422 45.6238L66.8852 45.5518C66.7087 45.3492 66.5127 45.1643 66.3002 44.9998L66.2282 44.9428L66.1682 44.2828L64.6682 43.6588L64.1462 44.0998H64.0592C63.787 44.0698 63.5124 44.0698 63.2402 44.0998H63.1502L62.6372 43.6738L61.1372 44.2978L61.0742 44.9578L61.0082 45.0148C60.7955 45.1825 60.6005 45.3715 60.4262 45.5788L60.3692 45.6508L59.7062 45.7108L59.0792 47.2108L59.5052 47.7238V47.8108C59.4752 48.083 59.4752 48.3576 59.5052 48.6298V48.7198L59.0792 49.1998L59.7032 50.6998L60.3632 50.7628L60.4202 50.8288C60.5924 51.0425 60.7864 51.2376 60.9992 51.4108L61.0682 51.4648L61.1312 52.1308L62.6312 52.7518L63.1472 52.3288H63.2342C63.5065 52.3558 63.7809 52.3558 64.0532 52.3288L64.1342 52.3468Z" fill="#263238"/>
<path d="M64.5269 50.3159C64.107 50.4903 63.6448 50.5363 63.1988 50.448C62.7528 50.3597 62.343 50.141 62.0213 49.8197C61.6996 49.4984 61.4804 49.0889 61.3915 48.643C61.3026 48.1971 61.348 47.7348 61.5219 47.3147C61.6959 46.8946 61.9905 46.5356 62.3686 46.283C62.7466 46.0304 63.1911 45.8956 63.6458 45.8958C64.1005 45.8959 64.5449 46.0309 64.9228 46.2837C65.3007 46.5365 65.5952 46.8957 65.7689 47.3159C65.8845 47.5942 65.9442 47.8926 65.9445 48.194C65.9448 48.4954 65.8858 48.7939 65.7707 49.0725C65.6557 49.3511 65.4869 49.6043 65.274 49.8176C65.0611 50.0309 64.8082 50.2003 64.5299 50.3159H64.5269Z" fill="#263238"/>
<path d="M47.9999 48.5578C47.9625 48.5578 47.9266 48.543 47.9002 48.5165C47.8737 48.4901 47.8589 48.4542 47.8589 48.4168V47.6998C47.8589 47.6624 47.8737 47.6266 47.9002 47.6001C47.9266 47.5737 47.9625 47.5588 47.9999 47.5588C48.0373 47.5588 48.0731 47.5737 48.0996 47.6001C48.126 47.6266 48.1409 47.6624 48.1409 47.6998V48.4048C48.1426 48.4243 48.1401 48.444 48.1338 48.4625C48.1275 48.481 48.1173 48.498 48.1041 48.5124C48.0908 48.5268 48.0747 48.5383 48.0568 48.5461C48.0388 48.5539 48.0195 48.5579 47.9999 48.5578Z" fill="#3686F7"/>
<path d="M47.9999 46.4368C47.9625 46.4368 47.9266 46.4219 47.9002 46.3955C47.8737 46.369 47.8589 46.3332 47.8589 46.2958V44.8798C47.8589 44.8424 47.8737 44.8065 47.9002 44.7801C47.9266 44.7536 47.9625 44.7388 47.9999 44.7388C48.0373 44.7388 48.0731 44.7536 48.0996 44.7801C48.126 44.8065 48.1409 44.8424 48.1409 44.8798V46.2958C48.1409 46.3332 48.126 46.369 48.0996 46.3955C48.0731 46.4219 48.0373 46.4368 47.9999 46.4368ZM47.9999 43.6048C47.9625 43.6048 47.9266 43.5899 47.9002 43.5635C47.8737 43.537 47.8589 43.5012 47.8589 43.4638V42.0478C47.8589 42.0104 47.8737 41.9745 47.9002 41.9481C47.9266 41.9216 47.9625 41.9068 47.9999 41.9068C48.0373 41.9068 48.0731 41.9216 48.0996 41.9481C48.126 41.9745 48.1409 42.0104 48.1409 42.0478V43.4638C48.1409 43.5012 48.126 43.537 48.0996 43.5635C48.0731 43.5899 48.0373 43.6048 47.9999 43.6048ZM47.9999 40.7758C47.9622 40.775 47.9264 40.7595 47.9 40.7326C47.8736 40.7056 47.8589 40.6695 47.8589 40.6318V39.2188C47.8589 39.1814 47.8737 39.1455 47.9002 39.1191C47.9266 39.0926 47.9625 39.0778 47.9999 39.0778C48.0373 39.0778 48.0731 39.0926 48.0996 39.1191C48.126 39.1455 48.1409 39.1814 48.1409 39.2188V40.6318C48.1409 40.6695 48.1261 40.7056 48.0998 40.7326C48.0734 40.7595 48.0376 40.775 47.9999 40.7758ZM47.9999 37.9348C47.9818 37.936 47.9637 37.9335 47.9466 37.9274C47.9295 37.9214 47.9139 37.9118 47.9007 37.8995C47.8874 37.8871 47.8769 37.8721 47.8697 37.8555C47.8625 37.8388 47.8588 37.8209 47.8589 37.8028V37.7818C47.8588 37.2999 47.9389 36.8214 48.0959 36.3658C48.1088 36.3308 48.1348 36.3022 48.1683 36.286C48.2019 36.2697 48.2405 36.2672 48.2759 36.2788C48.2937 36.2845 48.3101 36.2938 48.3243 36.306C48.3384 36.3183 48.3498 36.3333 48.358 36.3501C48.3661 36.367 48.3707 36.3853 48.3716 36.404C48.3724 36.4226 48.3695 36.4413 48.3629 36.4588C48.2155 36.8843 48.1404 37.3315 48.1409 37.7818C48.141 37.8204 48.1265 37.8576 48.1004 37.8859C48.0743 37.9143 48.0384 37.9318 47.9999 37.9348ZM48.8999 35.3188C48.8683 35.3193 48.8375 35.3087 48.8129 35.2888C48.7983 35.2774 48.7861 35.2632 48.777 35.247C48.7679 35.2309 48.7621 35.2131 48.7599 35.1948C48.7576 35.1764 48.7591 35.1577 48.764 35.1399C48.769 35.122 48.7775 35.1054 48.7889 35.0908C49.0938 34.709 49.461 34.3814 49.8749 34.1218C49.8906 34.1119 49.9082 34.1053 49.9265 34.1022C49.9448 34.0991 49.9636 34.0997 49.9817 34.1039C49.9998 34.1081 50.0169 34.1158 50.0321 34.1266C50.0472 34.1374 50.06 34.151 50.0699 34.1668C50.0797 34.1825 50.0864 34.2001 50.0895 34.2184C50.0925 34.2367 50.092 34.2555 50.0878 34.2736C50.0836 34.2917 50.0759 34.3088 50.0651 34.3239C50.0543 34.3391 50.0406 34.3519 50.0249 34.3618C49.6381 34.6019 49.2952 34.9063 49.0109 35.2618C48.9896 35.2906 48.9588 35.3108 48.9239 35.3188H48.8999ZM51.2549 33.8488C51.2199 33.8491 51.1861 33.8363 51.16 33.813C51.1339 33.7898 51.1173 33.7576 51.1136 33.7229C51.1099 33.6881 51.1192 33.6532 51.1397 33.6249C51.1603 33.5966 51.1907 33.577 51.2249 33.5698C51.5322 33.5013 51.8461 33.4671 52.1609 33.4678H52.6619C52.6804 33.4678 52.6987 33.4714 52.7158 33.4785C52.733 33.4856 52.7485 33.496 52.7616 33.5091C52.7747 33.5222 52.7851 33.5377 52.7922 33.5548C52.7992 33.5719 52.8029 33.5903 52.8029 33.6088C52.8029 33.6273 52.7992 33.6456 52.7922 33.6627C52.7851 33.6798 52.7747 33.6954 52.7616 33.7085C52.7485 33.7216 52.733 33.732 52.7158 33.7391C52.6987 33.7461 52.6804 33.7498 52.6619 33.7498H52.1999C51.9053 33.7501 51.6116 33.7823 51.3239 33.8458L51.2549 33.8488ZM75.3119 33.7498H73.9199C73.8825 33.7498 73.8466 33.7349 73.8202 33.7085C73.7937 33.682 73.7789 33.6462 73.7789 33.6088C73.7789 33.5714 73.7937 33.5355 73.8202 33.5091C73.8466 33.4826 73.8825 33.4678 73.9199 33.4678H75.3359C75.3544 33.4678 75.3727 33.4714 75.3898 33.4785C75.407 33.4856 75.4225 33.496 75.4356 33.5091C75.4487 33.5222 75.4591 33.5377 75.4662 33.5548C75.4732 33.5719 75.4769 33.5903 75.4769 33.6088C75.4769 33.6273 75.4732 33.6456 75.4662 33.6627C75.4591 33.6798 75.4487 33.6954 75.4356 33.7085C75.4225 33.7216 75.407 33.732 75.3898 33.7391C75.3727 33.7461 75.3544 33.7498 75.3359 33.7498H75.3119ZM72.4799 33.7498H71.0999C71.0814 33.7498 71.063 33.7461 71.0459 33.7391C71.0288 33.732 71.0133 33.7216 71.0002 33.7085C70.9871 33.6954 70.9767 33.6798 70.9696 33.6627C70.9625 33.6456 70.9589 33.6273 70.9589 33.6088C70.9589 33.5903 70.9625 33.5719 70.9696 33.5548C70.9767 33.5377 70.9871 33.5222 71.0002 33.5091C71.0133 33.496 71.0288 33.4856 71.0459 33.4785C71.063 33.4714 71.0814 33.4678 71.0999 33.4678H72.5129C72.5314 33.4678 72.5497 33.4714 72.5668 33.4785C72.584 33.4856 72.5995 33.496 72.6126 33.5091C72.6257 33.5222 72.6361 33.5377 72.6432 33.5548C72.6502 33.5719 72.6539 33.5903 72.6539 33.6088C72.6539 33.6273 72.6502 33.6456 72.6432 33.6627C72.6361 33.6798 72.6257 33.6954 72.6126 33.7085C72.5995 33.7216 72.584 33.732 72.5668 33.7391C72.5497 33.7461 72.5314 33.7498 72.5129 33.7498H72.4799ZM69.6509 33.7498H68.2349C68.1975 33.7498 68.1616 33.7349 68.1352 33.7085C68.1087 33.682 68.0939 33.6462 68.0939 33.6088C68.0939 33.5714 68.1087 33.5355 68.1352 33.5091C68.1616 33.4826 68.1975 33.4678 68.2349 33.4678H69.6509C69.6694 33.4678 69.6877 33.4714 69.7048 33.4785C69.722 33.4856 69.7375 33.496 69.7506 33.5091C69.7637 33.5222 69.7741 33.5377 69.7812 33.5548C69.7882 33.5719 69.7919 33.5903 69.7919 33.6088C69.7919 33.6273 69.7882 33.6456 69.7812 33.6627C69.7741 33.6798 69.7637 33.6954 69.7506 33.7085C69.7375 33.7216 69.722 33.732 69.7048 33.7391C69.6877 33.7461 69.6694 33.7498 69.6509 33.7498ZM66.8189 33.7498H65.4029C65.3655 33.7498 65.3296 33.7349 65.3032 33.7085C65.2767 33.682 65.2619 33.6462 65.2619 33.6088C65.2619 33.5714 65.2767 33.5355 65.3032 33.5091C65.3296 33.4826 65.3655 33.4678 65.4029 33.4678H66.8189C66.8374 33.4678 66.8557 33.4714 66.8728 33.4785C66.89 33.4856 66.9055 33.496 66.9186 33.5091C66.9317 33.5222 66.9421 33.5377 66.9492 33.5548C66.9562 33.5719 66.9599 33.5903 66.9599 33.6088C66.9599 33.6273 66.9562 33.6456 66.9492 33.6627C66.9421 33.6798 66.9317 33.6954 66.9186 33.7085C66.9055 33.7216 66.89 33.732 66.8728 33.7391C66.8557 33.7461 66.8374 33.7498 66.8189 33.7498ZM63.9869 33.7498H62.5709C62.5335 33.7498 62.4976 33.7349 62.4712 33.7085C62.4447 33.682 62.4299 33.6462 62.4299 33.6088C62.4299 33.5714 62.4447 33.5355 62.4712 33.5091C62.4976 33.4826 62.5335 33.4678 62.5709 33.4678H63.9869C64.0054 33.4678 64.0237 33.4714 64.0408 33.4785C64.058 33.4856 64.0735 33.496 64.0866 33.5091C64.0997 33.5222 64.1101 33.5377 64.1172 33.5548C64.1242 33.5719 64.1279 33.5903 64.1279 33.6088C64.1279 33.6273 64.1242 33.6456 64.1172 33.6627C64.1101 33.6798 64.0997 33.6954 64.0866 33.7085C64.0735 33.7216 64.058 33.732 64.0408 33.7391C64.0237 33.7461 64.0054 33.7498 63.9869 33.7498ZM61.1549 33.7498H59.7419C59.7234 33.7498 59.705 33.7461 59.6879 33.7391C59.6708 33.732 59.6553 33.7216 59.6422 33.7085C59.6291 33.6954 59.6187 33.6798 59.6116 33.6627C59.6045 33.6456 59.6009 33.6273 59.6009 33.6088C59.6009 33.5903 59.6045 33.5719 59.6116 33.5548C59.6187 33.5377 59.6291 33.5222 59.6422 33.5091C59.6553 33.496 59.6708 33.4856 59.6879 33.4785C59.705 33.4714 59.7234 33.4678 59.7419 33.4678H61.1549C61.1734 33.4678 61.1917 33.4714 61.2088 33.4785C61.226 33.4856 61.2415 33.496 61.2546 33.5091C61.2677 33.5222 61.2781 33.5377 61.2852 33.5548C61.2922 33.5719 61.2959 33.5903 61.2959 33.6088C61.2959 33.6273 61.2922 33.6456 61.2852 33.6627C61.2781 33.6798 61.2677 33.6954 61.2546 33.7085C61.2415 33.7216 61.226 33.732 61.2088 33.7391C61.1917 33.7461 61.1734 33.7498 61.1549 33.7498ZM58.3259 33.7498H56.9099C56.8725 33.7498 56.8366 33.7349 56.8102 33.7085C56.7837 33.682 56.7689 33.6462 56.7689 33.6088C56.7689 33.5714 56.7837 33.5355 56.8102 33.5091C56.8366 33.4826 56.8725 33.4678 56.9099 33.4678H58.3259C58.3444 33.4678 58.3627 33.4714 58.3798 33.4785C58.397 33.4856 58.4125 33.496 58.4256 33.5091C58.4387 33.5222 58.4491 33.5377 58.4562 33.5548C58.4632 33.5719 58.4669 33.5903 58.4669 33.6088C58.4669 33.6273 58.4632 33.6456 58.4562 33.6627C58.4491 33.6798 58.4387 33.6954 58.4256 33.7085C58.4125 33.7216 58.397 33.732 58.3798 33.7391C58.3627 33.7461 58.3444 33.7498 58.3259 33.7498ZM55.4939 33.7498H54.0779C54.0405 33.7498 54.0046 33.7349 53.9782 33.7085C53.9517 33.682 53.9369 33.6462 53.9369 33.6088C53.9369 33.5714 53.9517 33.5355 53.9782 33.5091C54.0046 33.4826 54.0405 33.4678 54.0779 33.4678H55.4939C55.5124 33.4678 55.5307 33.4714 55.5478 33.4785C55.565 33.4856 55.5805 33.496 55.5936 33.5091C55.6067 33.5222 55.6171 33.5377 55.6242 33.5548C55.6312 33.5719 55.6349 33.5903 55.6349 33.6088C55.6349 33.6273 55.6312 33.6456 55.6242 33.6627C55.6171 33.6798 55.6067 33.6954 55.5936 33.7085C55.5805 33.7216 55.565 33.732 55.5478 33.7391C55.5307 33.7461 55.5124 33.7498 55.4939 33.7498Z" fill="#3686F7"/>
<path d="M77.4633 33.7498H76.7553C76.7179 33.7498 76.682 33.7349 76.6556 33.7085C76.6291 33.682 76.6143 33.6462 76.6143 33.6088C76.6143 33.5714 76.6291 33.5355 76.6556 33.5091C76.682 33.4826 76.7179 33.4678 76.7553 33.4678H77.4633C77.5006 33.4678 77.5365 33.4826 77.563 33.5091C77.5894 33.5355 77.6043 33.5714 77.6043 33.6088C77.6043 33.6462 77.5894 33.682 77.563 33.7085C77.5365 33.7349 77.5006 33.7498 77.4633 33.7498Z" fill="#3686F7"/>
<path d="M47.9277 129.531H49.4067L49.4067 83.31H47.9277L47.9277 129.531Z" fill="#263238"/>
<path d="M108.861 104.04H84.4351V100.653H108.861C109.156 100.653 109.439 100.77 109.648 100.979C109.857 101.188 109.974 101.471 109.974 101.766V102.927C109.974 103.073 109.945 103.218 109.889 103.353C109.833 103.488 109.751 103.611 109.648 103.714C109.545 103.817 109.422 103.899 109.287 103.955C109.152 104.011 109.007 104.04 108.861 104.04Z" fill="#3686F7"/>
<path d="M107.922 129.786L106.152 101.811" stroke="#3686F7" stroke-width="2.8255" stroke-linecap="round" stroke-linejoin="round"/>
<path d="M101.145 131.172L99.375 103.197" stroke="#3686F7" stroke-width="2.8255" stroke-linecap="round" stroke-linejoin="round"/>
<path d="M83.3818 129.786L85.1518 101.811" stroke="#3686F7" stroke-width="2.8255" stroke-linecap="round" stroke-linejoin="round"/>
<path d="M90.1592 131.172L91.9292 103.197" stroke="#3686F7" stroke-width="2.8255" stroke-linecap="round" stroke-linejoin="round"/>
<path d="M111.03 101.811H86.6041V98.424H111.03C111.325 98.424 111.608 98.5413 111.817 98.75C112.026 98.9588 112.143 99.2418 112.143 99.537V100.698C112.143 100.993 112.026 101.276 111.817 101.485C111.608 101.694 111.325 101.811 111.03 101.811Z" fill="#3686F7"/>
<path opacity="0.2" d="M111.03 101.811H86.6041V98.424H111.03C111.325 98.424 111.608 98.5413 111.817 98.75C112.026 98.9588 112.143 99.2418 112.143 99.537V100.698C112.143 100.993 112.026 101.276 111.817 101.485C111.608 101.694 111.325 101.811 111.03 101.811Z" fill="black"/>
<path d="M86.4302 130.635H87.9092V84.414H86.4302V130.635Z" fill="#263238"/>
<path d="M91.4698 87.9302C91.4698 87.9302 74.5648 88.5662 71.7568 95.3522C71.7568 95.3522 72.1468 115.563 74.4088 122.196L79.2478 121.647L78.4738 102L95.9608 87.9362L91.4698 87.9302Z" fill="#263238"/>
<path opacity="0.2" d="M91.4698 87.9302C91.4698 87.9302 74.5648 88.5662 71.7568 95.3522C71.7568 95.3522 72.1468 115.563 74.4088 122.196L79.2478 121.647L78.4738 102L95.9608 87.9362L91.4698 87.9302Z" fill="black"/>
<path d="M78.447 126.705H75.426L75.384 124.692L75.354 123.114L78.306 123.294L78.363 124.692L78.447 126.705Z" fill="#B55B52"/>
<path opacity="0.2" d="M78.363 124.692H75.384L75.354 123.114L78.306 123.294L78.363 124.692Z" fill="black"/>
<path d="M79.7969 123.756L73.3289 123.951L72.1499 121.551L79.6169 121.482L79.7969 123.756Z" fill="#3686F7"/>
<path d="M74.6518 127.161C74.6518 127.161 74.8078 125.388 74.1898 125.634C73.5718 125.88 74.2618 126.786 74.6518 127.161Z" stroke="#3686F7" stroke-width="0.941833" stroke-miterlimit="10"/>
<path d="M74.6519 127.161C74.6519 127.161 73.3229 126.231 72.9839 126.705C72.6449 127.179 74.6519 127.161 74.6519 127.161Z" stroke="#3686F7" stroke-width="0.941833" stroke-miterlimit="10"/>
<path d="M75.705 126.3L78.105 126.324C78.2743 126.328 78.4361 126.395 78.5591 126.511C78.6821 126.627 78.7576 126.785 78.771 126.954L78.939 129.075C78.947 129.167 78.9355 129.26 78.9054 129.347C78.8752 129.434 78.827 129.514 78.7639 129.581C78.7008 129.649 78.6241 129.702 78.539 129.738C78.4539 129.774 78.3622 129.791 78.2699 129.789C76.9709 129.75 74.2979 129.681 73.3499 129.708C72.0809 129.744 70.2779 129.765 70.0199 129.282C69.9466 129.153 69.9217 129.001 69.9497 128.855C69.9777 128.709 70.0569 128.577 70.1729 128.484C70.1729 128.484 73.632 128.163 75.222 126.519C75.2837 126.452 75.3583 126.398 75.4413 126.361C75.5242 126.323 75.6139 126.302 75.705 126.3Z" fill="#263238"/>
<path d="M106.638 87.9302C106.638 87.9302 106.959 91.8692 106.839 94.9142C106.701 98.4242 99.1437 101.514 88.1427 99.7142C88.1427 99.7142 87.2847 105.645 84.2427 111.114C81.2007 116.583 76.4427 124.692 76.4427 124.692L71.7627 121.647C71.7627 121.647 77.9247 104.547 79.0977 99.8012C80.2707 95.0552 80.7357 92.7782 84.0897 91.2962C87.4437 89.8142 94.7787 87.9302 94.7787 87.9302H106.638Z" fill="#263238"/>
<path d="M74.6517 123.798L74.0967 124.65L72.8757 126.531L70.5327 125.166L71.7597 123.258L72.2367 122.52L74.6517 123.798Z" fill="#B55B52"/>
<path opacity="0.2" d="M74.6518 123.798L74.0968 124.65L71.7598 123.258L72.2368 122.52L74.6518 123.798Z" fill="black"/>
<path d="M77.6607 123.114L71.5257 119.442L70.5327 121.893L76.3557 125.256L77.6607 123.114Z" fill="#3686F7"/>
<path d="M68.928 125.256C68.928 125.256 69.375 123.72 68.874 123.69C68.373 123.66 68.928 125.256 68.928 125.256Z" stroke="#3686F7" stroke-width="0.941833" stroke-miterlimit="10"/>
<path d="M68.811 125.199C68.811 125.199 68.118 123.531 67.56 123.903C67.002 124.275 68.811 125.199 68.811 125.199Z" stroke="#3686F7" stroke-width="0.941833" stroke-miterlimit="10"/>
<path d="M70.8358 124.998L72.8818 126.198C73.0256 126.282 73.132 126.418 73.1794 126.578C73.2267 126.738 73.2115 126.91 73.1368 127.059L72.2098 128.94C72.1688 129.022 72.1112 129.095 72.0406 129.154C71.97 129.213 71.8879 129.256 71.7997 129.281C71.7114 129.307 71.6188 129.314 71.5277 129.301C71.4367 129.289 71.3492 129.258 71.2708 129.21C70.1698 128.532 67.8988 127.143 67.0708 126.696C65.9548 126.096 64.3918 125.22 64.4128 124.683C64.417 124.536 64.4733 124.395 64.5716 124.285C64.6699 124.175 64.8039 124.103 64.9498 124.083C64.9498 124.083 68.0938 125.529 70.2988 124.929C70.3884 124.904 70.482 124.898 70.5743 124.909C70.6665 124.921 70.7554 124.951 70.8358 124.998Z" fill="#263238"/>
<path d="M87.6479 70.7161C87.6479 70.7161 87.0179 77.5981 87.2699 79.3681C87.2699 79.3681 80.6939 80.3311 77.3699 79.8751L75.1439 79.3171L72.3599 79.9981L73.1189 82.2031H75.3449C75.3449 82.2031 76.9649 82.6591 77.6729 82.2031C77.6729 82.2031 83.2379 83.3161 86.5259 82.9621C89.8139 82.6081 90.8339 81.3571 90.9809 78.8641C91.1189 76.4641 92.6999 71.1181 91.4369 69.9031L87.6479 70.7161Z" fill="#B55B52"/>
<path d="M110.232 71.4902C110.232 71.4902 107.709 65.0822 105.255 63.6362C102.801 62.1902 91.4367 64.9562 91.4367 64.9562C91.4367 64.9562 86.5617 66.5252 86.2827 74.1422L90.7617 76.0412L91.4697 87.9302H106.638L106.557 72.5312L110.232 71.4902Z" fill="#3686F7"/>
<path d="M91.644 52.3981C91.644 52.3981 90.144 52.2091 89.736 51.0841C89.328 49.9591 90.894 50.5261 90.762 48.4921C90.63 46.4581 92.967 45.9721 94.662 46.8661C96.357 47.7601 99.048 46.7851 100.062 48.0061C101.076 49.2271 100.632 50.3641 100.632 50.3641C100.632 50.3641 103.548 53.6641 99.852 55.9171C96.156 58.1701 91.644 52.3981 91.644 52.3981Z" fill="#263238"/>
<path d="M100.464 63.3631C98.8442 65.8321 97.3862 66.0871 95.4332 66.0841C93.2402 66.0841 93.9752 64.5271 93.9752 64.5271C94.8932 64.0681 95.5622 63.5761 95.6672 62.4451C95.6885 62.2258 95.6935 62.0052 95.6822 61.7851C95.6607 61.2759 95.573 60.7717 95.4212 60.2851C92.3162 60.5671 91.2212 59.0521 90.8342 56.1931C90.6182 54.4346 90.9382 52.6518 91.7522 51.0781C93.5522 53.1961 96.9392 51.5371 96.9392 51.5371C95.9882 54.2881 98.3162 55.2751 98.3162 55.2751C99.2162 54.7111 99.9362 55.2031 99.8672 56.2981C99.8538 56.6036 99.7491 56.898 99.5668 57.1435C99.3845 57.3889 99.1328 57.5741 98.8442 57.6751C98.6672 62.5501 100.464 63.3631 100.464 63.3631Z" fill="#B55B52"/>
<path d="M92.6069 57.3182C92.5825 57.3182 92.5589 57.309 92.5411 57.2922C92.5233 57.2755 92.5125 57.2526 92.5109 57.2282C92.5101 57.2156 92.5118 57.2029 92.5159 57.191C92.52 57.179 92.5264 57.168 92.5348 57.1585C92.5431 57.149 92.5533 57.1413 92.5646 57.1358C92.576 57.1302 92.5883 57.127 92.6009 57.1262C93.6869 57.0692 94.1009 56.5472 94.1159 56.5412C94.1235 56.5314 94.133 56.5233 94.1438 56.5172C94.1546 56.5112 94.1665 56.5074 94.1788 56.506C94.1911 56.5046 94.2035 56.5056 94.2154 56.5091C94.2273 56.5126 94.2383 56.5184 94.2479 56.5262C94.258 56.5339 94.2665 56.5434 94.2729 56.5544C94.2792 56.5653 94.2834 56.5774 94.285 56.59C94.2867 56.6025 94.2859 56.6153 94.2826 56.6275C94.2793 56.6397 94.2737 56.6512 94.2659 56.6612C94.2479 56.6852 93.7919 57.2612 92.6129 57.3182H92.6069Z" fill="#263238"/>
<path d="M92.607 56.1362L92.43 54.3152L91.644 55.9712C91.7763 56.0802 91.9347 56.1527 92.1036 56.1816C92.2725 56.2106 92.4461 56.1949 92.607 56.1362Z" fill="#A02724"/>
<path d="M93.8188 54.3151C93.8188 54.5431 93.9238 54.7291 94.0558 54.7291C94.1878 54.7291 94.2928 54.5431 94.2928 54.3151C94.2928 54.0871 94.1878 53.9011 94.0558 53.9011C93.9238 53.9011 93.8188 54.0871 93.8188 54.3151Z" fill="#263238"/>
<path d="M91.4069 54.7291C91.5378 54.7291 91.6439 54.5438 91.6439 54.3151C91.6439 54.0865 91.5378 53.9011 91.4069 53.9011C91.276 53.9011 91.1699 54.0865 91.1699 54.3151C91.1699 54.5438 91.276 54.7291 91.4069 54.7291Z" fill="#263238"/>
<path d="M95.3999 53.4C95.3793 53.4005 95.3589 53.3958 95.3405 53.3864C95.3222 53.377 95.3065 53.3631 95.2949 53.346C95.2799 53.322 94.8869 52.794 93.9749 52.962C93.9584 52.9654 93.9413 52.9655 93.9247 52.9623C93.908 52.959 93.8923 52.9524 93.8783 52.9428C93.8643 52.9333 93.8523 52.9211 93.8432 52.9068C93.834 52.8926 93.8278 52.8767 93.8249 52.86C93.8196 52.8267 93.8271 52.7926 93.8461 52.7647C93.8651 52.7368 93.894 52.7172 93.9269 52.71C95.0069 52.512 95.4839 53.169 95.5049 53.199C95.5179 53.2182 95.5254 53.2407 95.5267 53.2638C95.528 53.287 95.523 53.3101 95.5123 53.3307C95.5015 53.3513 95.4854 53.3686 95.4656 53.3808C95.4458 53.393 95.4232 53.3996 95.3999 53.4Z" fill="#263238"/>
<path d="M91.005 53.232C90.9842 53.2316 90.9637 53.2265 90.945 53.217C90.9302 53.2094 90.917 53.1989 90.9062 53.1862C90.8955 53.1734 90.8873 53.1587 90.8823 53.1428C90.8773 53.1269 90.8755 53.1101 90.877 53.0935C90.8785 53.0769 90.8833 53.0607 90.891 53.046C90.9922 52.8774 91.1412 52.7426 91.319 52.6588C91.4969 52.5749 91.6956 52.5458 91.89 52.575C91.9067 52.5772 91.9227 52.5827 91.9371 52.5912C91.9516 52.5996 91.9642 52.6109 91.9743 52.6243C91.9844 52.6377 91.9916 52.653 91.9957 52.6693C91.9998 52.6855 92.0006 52.7024 91.998 52.719C91.9962 52.7355 91.9911 52.7514 91.9829 52.7659C91.9748 52.7803 91.9638 52.793 91.9506 52.8031C91.9374 52.8132 91.9223 52.8205 91.9063 52.8246C91.8902 52.8287 91.8734 52.8295 91.857 52.827C91.7147 52.8056 91.5692 52.826 91.4382 52.8856C91.3073 52.9452 91.1964 53.0416 91.119 53.163C91.1076 53.1834 91.0911 53.2004 91.0711 53.2125C91.0512 53.2246 91.0284 53.2313 91.005 53.232Z" fill="#263238"/>
<path d="M90.8008 55.734C90.5202 55.7334 90.2462 55.6497 90.0132 55.4934C89.7803 55.3371 89.5989 55.1153 89.4919 54.8559C89.385 54.5966 89.3573 54.3114 89.4124 54.0363C89.4675 53.7613 89.6029 53.5087 89.8014 53.3106C90 53.1124 90.2529 52.9776 90.528 52.923C90.8032 52.8685 91.0884 52.8968 91.3475 53.0043C91.6066 53.1118 91.828 53.2937 91.9838 53.527C92.1396 53.7602 92.2228 54.0345 92.2228 54.315C92.2228 54.5016 92.186 54.6864 92.1145 54.8587C92.043 55.0311 91.9382 55.1876 91.8061 55.3194C91.674 55.4512 91.5172 55.5557 91.3447 55.6268C91.1722 55.698 90.9874 55.7344 90.8008 55.734ZM90.8008 53.085C90.5575 53.085 90.3197 53.1571 90.1174 53.2923C89.9151 53.4274 89.7575 53.6195 89.6644 53.8443C89.5713 54.069 89.5469 54.3164 89.5944 54.555C89.6419 54.7935 89.759 55.0127 89.931 55.1847C90.103 55.3568 90.3222 55.4739 90.5608 55.5214C90.7994 55.5688 91.0467 55.5445 91.2715 55.4514C91.4962 55.3583 91.6883 55.2006 91.8235 54.9983C91.9586 54.7961 92.0308 54.5583 92.0308 54.315C92.0268 53.9914 91.8955 53.6824 91.6652 53.4549C91.435 53.2275 91.1244 53.1 90.8008 53.1V53.085Z" fill="white"/>
<path d="M94.1998 55.734C93.9191 55.734 93.6448 55.6508 93.4114 55.4949C93.1781 55.3389 92.9962 55.1173 92.8888 54.858C92.7814 54.5987 92.7533 54.3134 92.808 54.0382C92.8628 53.7629 92.9979 53.5101 93.1964 53.3116C93.3948 53.1132 93.6477 52.978 93.9229 52.9233C94.1982 52.8685 94.4835 52.8966 94.7428 53.004C95.0021 53.1114 95.2237 53.2933 95.3796 53.5266C95.5355 53.76 95.6188 54.0343 95.6188 54.315C95.618 54.6911 95.4682 55.0516 95.2023 55.3175C94.9363 55.5834 94.5759 55.7332 94.1998 55.734ZM94.1998 53.085C93.9564 53.0844 93.7183 53.156 93.5156 53.2908C93.3129 53.4256 93.1548 53.6175 93.0613 53.8422C92.9677 54.0669 92.9429 54.3143 92.99 54.5531C93.0371 54.7919 93.1541 55.0114 93.326 55.1837C93.4979 55.356 93.717 55.4734 93.9557 55.5211C94.1944 55.5688 94.4418 55.5447 94.6668 55.4517C94.8917 55.3586 95.084 55.201 95.2193 54.9987C95.3545 54.7963 95.4268 54.5584 95.4268 54.315C95.422 53.9922 95.2909 53.684 95.0615 53.4568C94.832 53.2297 94.5226 53.1015 94.1998 53.1V53.085Z" fill="white"/>
<path d="M92.2231 54.3152H92.7691" stroke="white" stroke-width="0.941833" stroke-miterlimit="10"/>
<path d="M95.5171 54.5762L98.1781 55.2152" stroke="white" stroke-width="0.941833" stroke-linecap="round" stroke-linejoin="round"/>
<path opacity="0.2" d="M96.4499 60C96.2799 60.6246 96.0212 61.2217 95.6819 61.773C95.6605 61.2638 95.5727 60.7595 95.4209 60.273L96.4499 60Z" fill="black"/>
<path opacity="0.2" d="M90.7621 76.0411V74.1421L89.9941 75.7171L90.7621 76.0411Z" fill="black"/>
<path opacity="0.2" d="M103.281 73.5061L102.696 70.0891L102.531 73.8091L103.281 73.5061Z" fill="black"/>
<path d="M107.466 80.676C107.43 83.175 106.305 84.42 103.014 84.774C99.7231 85.128 94.1611 84.015 94.1611 84.015C93.4531 84.471 91.8331 84.015 91.8331 84.015H89.6071L88.8511 81.81L91.6321 81.132L93.8581 81.687C97.1971 82.143 103.773 81.183 103.773 81.183C103.584 79.857 103.371 75.528 103.281 73.506L107.205 72.345C107.592 75 107.499 78.522 107.466 80.676Z" fill="#B55B52"/>
<path d="M49.4312 67.6262L52.0862 81.1592C52.145 81.4525 52.3036 81.7164 52.5349 81.9062C52.7662 82.0959 53.056 82.1998 53.3552 82.2002H75.8342C76.0228 82.2001 76.2092 82.1586 76.38 82.0787C76.5509 81.9987 76.7022 81.8823 76.8232 81.7376C76.9442 81.5928 77.032 81.4233 77.0803 81.2409C77.1287 81.0586 77.1365 80.8679 77.1032 80.6822L74.7032 67.1492C74.6503 66.8512 74.494 66.5814 74.262 66.3872C74.0299 66.193 73.7368 66.0867 73.4342 66.0872H50.7002C50.5092 66.0862 50.3204 66.1276 50.1475 66.2086C49.9745 66.2896 49.8218 66.4081 49.7003 66.5554C49.5788 66.7027 49.4916 66.8753 49.4451 67.0605C49.3985 67.2457 49.3938 67.4389 49.4312 67.6262Z" fill="#3686F7"/>
<path opacity="0.2" d="M73.7607 66.0872L76.5687 82.2002C76.6673 82.2004 76.7647 82.179 76.8541 82.1374C76.9434 82.0958 77.0226 82.0351 77.0858 81.9595C77.1491 81.884 77.195 81.7954 77.2202 81.7001C77.2454 81.6048 77.2493 81.5051 77.2317 81.4082L74.6007 66.6392C74.5731 66.4837 74.4914 66.343 74.3701 66.242C74.2488 66.141 74.0956 66.0862 73.9377 66.0872H73.7607Z" fill="black"/>
<path d="M52.3501 83.4932H86.9221C86.9225 83.3233 86.8893 83.155 86.8245 82.9979C86.7596 82.8409 86.6644 82.6982 86.5443 82.578C86.4241 82.4579 86.2814 82.3627 86.1244 82.2978C85.9673 82.233 85.799 82.1998 85.6291 82.2002H53.6491C53.4789 82.1998 53.3103 82.2329 53.1529 82.2977C52.9955 82.3625 52.8524 82.4576 52.7318 82.5777C52.6112 82.6977 52.5154 82.8404 52.4499 82.9975C52.3844 83.1546 52.3505 83.323 52.3501 83.4932Z" fill="#3686F7"/>
<path opacity="0.2" d="M75.501 83.4932H86.922C86.9224 83.3233 86.8892 83.155 86.8244 82.9979C86.7595 82.8409 86.6643 82.6982 86.5441 82.578C86.424 82.4579 86.2813 82.3627 86.1243 82.2978C85.9672 82.233 85.7989 82.1998 85.629 82.2002H76.8C76.6298 82.1998 76.4612 82.2329 76.3038 82.2977C76.1464 82.3625 76.0033 82.4576 75.8827 82.5777C75.7621 82.6977 75.6663 82.8404 75.6008 82.9975C75.5353 83.1546 75.5014 83.323 75.501 83.4932Z" fill="black"/>
<path opacity="0.4" d="M60.5187 74.6462C60.7617 76.3292 61.9257 77.5562 63.1197 77.3852C64.3137 77.2142 65.0847 75.7082 64.8447 74.0252C64.6047 72.3422 63.4377 71.1152 62.2437 71.2862C61.0497 71.4572 60.2757 72.9602 60.5187 74.6462Z" fill="white"/>
<path opacity="0.2" d="M52.3501 83.4932H86.9221C86.9225 83.3233 86.8893 83.155 86.8245 82.9979C86.7596 82.8409 86.6644 82.6982 86.5443 82.578C86.4241 82.4579 86.2814 82.3627 86.1244 82.2978C85.9673 82.233 85.799 82.1998 85.6291 82.2002H53.6491C53.4789 82.1998 53.3103 82.2329 53.1529 82.2977C52.9955 82.3625 52.8524 82.4576 52.7318 82.5777C52.6112 82.6977 52.5154 82.8404 52.4499 82.9975C52.3844 83.1546 52.3505 83.323 52.3501 83.4932Z" fill="black"/>
<path d="M38.1899 85.167H97.8899C97.8899 84.6005 97.6649 84.0572 97.2643 83.6566C96.8637 83.2561 96.3204 83.031 95.7539 83.031H40.3289C39.7622 83.031 39.2186 83.256 38.8175 83.6564C38.4164 84.0569 38.1907 84.6002 38.1899 85.167Z" fill="#263238"/>
</svg>
