<svg width="150" height="150" viewBox="0 0 150 150" fill="none" xmlns="http://www.w3.org/2000/svg">
<path opacity="0.5" d="M37.32 123.402C61.338 134.847 100.278 134.847 124.296 123.402C148.314 111.957 148.311 93.4021 124.296 81.9481C100.281 70.4941 61.338 70.5001 37.32 81.9481C13.302 93.3961 13.305 111.954 37.32 123.402Z" fill="#EBEBEB"/>
<path d="M115.152 101.985C124.317 101.985 131.748 98.4432 131.748 94.0741C131.748 89.705 124.317 86.1631 115.152 86.1631C105.986 86.1631 98.5557 89.705 98.5557 94.0741C98.5557 98.4432 105.986 101.985 115.152 101.985Z" fill="#E0E0E0"/>
<path d="M90.0539 125.565C85.6199 127.68 78.4319 127.68 73.9979 125.565C69.5639 123.45 69.5639 120.027 73.9979 117.912C78.4319 115.797 85.6199 115.812 90.0539 117.912C94.4879 120.012 94.4999 123.453 90.0539 125.565Z" fill="#E0E0E0"/>
<path d="M30.4201 98.577L32.8591 97.17C32.8591 97.17 34.1461 91.431 32.2291 84.141C30.3121 76.851 24.7831 71.4 21.9001 72.543C19.0171 73.686 19.0921 75.843 20.6821 78.03C22.0021 79.83 26.2831 84.21 28.3411 89.256C29.5671 92.2196 30.2705 95.3732 30.4201 98.577Z" fill="#3686F7"/>
<path opacity="0.1" d="M30.4201 98.577L32.8591 97.17C32.8591 97.17 34.1461 91.431 32.2291 84.141C30.3121 76.851 24.7831 71.4 21.9001 72.543C19.0171 73.686 19.0921 75.843 20.6821 78.03C22.0021 79.83 26.2831 84.21 28.3411 89.256C29.5671 92.2196 30.2705 95.3732 30.4201 98.577Z" fill="black"/>
<path d="M31.7192 97.9769H31.6982C31.6593 97.9709 31.6244 97.95 31.6008 97.9186C31.5773 97.8872 31.567 97.8478 31.5721 97.8089C33.2371 85.8089 25.8001 76.1069 22.4161 74.0819C22.3965 74.0734 22.379 74.0608 22.3646 74.045C22.3502 74.0292 22.3394 74.0105 22.3329 73.9901C22.3263 73.9698 22.3242 73.9483 22.3267 73.927C22.3291 73.9058 22.3361 73.8853 22.3471 73.867C22.3581 73.8487 22.3728 73.8329 22.3904 73.8208C22.408 73.8086 22.428 73.8004 22.449 73.7966C22.47 73.7928 22.4916 73.7935 22.5123 73.7987C22.5331 73.804 22.5524 73.8136 22.5692 73.8269C26.0042 75.8789 33.5552 85.7099 31.8692 97.8509C31.8628 97.8861 31.8444 97.918 31.817 97.941C31.7896 97.964 31.7549 97.9767 31.7192 97.9769Z" fill="white"/>
<path d="M30.42 98.577L26.766 100.677C26.0029 100.296 25.1762 100.058 24.327 99.975C22.773 99.78 21.738 98.28 21.891 97.161C21.993 96.405 22.236 95.544 22.119 94.779C22.017 94.095 21.354 93.48 20.736 93.24C20.2101 93.0757 19.661 92.9977 19.11 93.009C18.231 92.967 17.31 92.868 16.569 92.409C15.828 91.95 15.282 91.032 15.522 90.183C15.6834 89.7436 15.9454 89.3481 16.287 89.028C16.6273 88.7072 16.9032 88.3243 17.1 87.9C17.424 87.054 16.851 86.514 16.17 86.121C13.77 84.741 12.69 83.652 13.554 82.608C14.418 81.564 16.791 81.108 19.224 82.386C21.657 83.664 23.676 82.293 25.281 82.563C27.795 82.983 27.942 84.759 27.63 86.301C27.318 87.843 30.429 88.5 31.2 90.351C31.779 91.695 32.253 96.111 30.42 98.577Z" fill="#3686F7"/>
<path d="M29.2018 99.429C29.1631 99.429 29.1258 99.414 29.0978 99.3872C29.0699 99.3603 29.0534 99.3237 29.0518 99.285C28.7518 90.72 17.7748 83.25 15.1858 82.821C15.1663 82.8181 15.1476 82.8113 15.1307 82.8011C15.1138 82.7909 15.0991 82.7775 15.0873 82.7616C15.0756 82.7457 15.0672 82.7277 15.0625 82.7085C15.0577 82.6894 15.0568 82.6695 15.0598 82.65C15.0672 82.6109 15.0894 82.5762 15.1219 82.5532C15.1544 82.5302 15.1945 82.5208 15.2338 82.527C17.9608 82.977 29.0488 90.39 29.3518 99.273C29.3526 99.2927 29.3495 99.3124 29.3427 99.3309C29.3359 99.3494 29.3255 99.3664 29.3122 99.3808C29.2988 99.3953 29.2827 99.407 29.2648 99.4153C29.2469 99.4236 29.2275 99.4282 29.2078 99.429H29.2018Z" fill="white"/>
<path d="M76.2781 114.9C76.1581 113.4 75.0001 110.838 73.2781 109.014C71.5561 107.19 68.8201 106.314 67.1281 107.046C65.5531 107.73 65.9011 109.842 67.9801 111.093C70.0591 112.344 73.1551 113.874 74.2171 116.241L76.2691 119.082L76.2781 114.9Z" fill="#3686F7"/>
<path opacity="0.1" d="M76.2781 114.9C76.1581 113.4 75.0001 110.838 73.2781 109.014C71.5561 107.19 68.8201 106.314 67.1281 107.046C65.5531 107.73 65.9011 109.842 67.9801 111.093C70.0591 112.344 73.1551 113.874 74.2171 116.241L76.2691 119.082L76.2781 114.9Z" fill="black"/>
<path d="M76.2781 117.648H76.3081C76.3347 117.644 76.3603 117.635 76.3835 117.622C76.4067 117.608 76.4269 117.59 76.4431 117.569C76.4593 117.547 76.471 117.523 76.4777 117.497C76.4844 117.471 76.4859 117.444 76.4821 117.417C75.7351 111.858 70.0861 107.991 67.8391 107.565C67.8127 107.56 67.7855 107.56 67.7591 107.565C67.7327 107.57 67.7077 107.581 67.6854 107.596C67.6631 107.611 67.6439 107.63 67.6291 107.653C67.6143 107.675 67.6041 107.7 67.5991 107.727C67.5939 107.753 67.5939 107.78 67.5992 107.807C67.6046 107.833 67.6151 107.858 67.6301 107.881C67.6452 107.903 67.6645 107.922 67.687 107.937C67.7095 107.952 67.7347 107.962 67.7611 107.967C69.8611 108.366 75.3631 112.191 76.0741 117.471C76.0813 117.52 76.1058 117.565 76.1432 117.597C76.1807 117.63 76.2285 117.648 76.2781 117.648Z" fill="white"/>
<path d="M76.0561 121.11C75.7561 120.285 74.6041 118.974 72.8431 117.96C70.8961 116.835 68.5171 116.436 67.8991 115.491C67.1581 114.351 68.0701 113.148 69.9811 113.229C71.8921 113.31 75.4351 115.629 76.2811 119.478L76.0561 121.11Z" fill="#3686F7"/>
<path d="M76.2 120.3H76.239C76.2657 120.295 76.2912 120.285 76.3139 120.27C76.3366 120.255 76.3561 120.235 76.3712 120.213C76.3863 120.19 76.3967 120.165 76.4018 120.138C76.4069 120.111 76.4067 120.084 76.401 120.057C75.834 117.207 71.703 114.255 69.033 114.132C68.9792 114.132 68.9272 114.152 68.8872 114.188C68.8473 114.224 68.8222 114.274 68.817 114.327C68.8153 114.382 68.8351 114.435 68.8721 114.475C68.9091 114.516 68.9603 114.54 69.015 114.543C71.493 114.657 75.474 117.498 75.999 120.138C76.0087 120.184 76.034 120.225 76.0706 120.255C76.1072 120.284 76.1529 120.3 76.2 120.3Z" fill="white"/>
<path d="M27.7979 100.8C27.6248 100.684 27.4901 100.519 27.411 100.326C27.3319 100.133 27.312 99.9211 27.3539 99.7169L37.9919 52.6349C38.1199 52.1796 38.4088 51.7863 38.8049 51.5279L102.105 14.9879C102.298 14.8855 102.513 14.8303 102.732 14.8266C102.951 14.823 103.168 14.871 103.365 14.9669C103.535 15.0837 103.668 15.2482 103.745 15.4397C103.822 15.6313 103.841 15.8415 103.8 16.0439L93.1589 63.1259C93.0306 63.5818 92.7405 63.9754 92.3429 64.2329L29.0579 100.773C28.8648 100.876 28.6501 100.932 28.4311 100.937C28.2122 100.942 27.9952 100.895 27.7979 100.8Z" fill="#F0F0F0"/>
<path d="M39.2097 53.3309L28.5717 100.431C28.4817 100.833 28.6977 100.995 29.0577 100.788L92.3577 64.2479C92.7553 63.9905 93.0454 63.5969 93.1737 63.1409L103.8 16.0439C103.89 15.6389 103.674 15.4799 103.314 15.6869L40.0137 52.2269C39.6217 52.4864 39.3363 52.8783 39.2097 53.3309Z" fill="#E6E6E6"/>
<path d="M104.571 15.6629C104.374 15.5675 104.157 15.52 103.938 15.5242C103.719 15.5283 103.504 15.5841 103.311 15.6869L40.0108 52.2269C39.8272 52.3458 39.6795 52.5126 39.5838 52.7093C39.4881 52.906 39.448 53.1251 39.4678 53.3429L47.7988 111.66C47.8395 111.881 47.9238 112.092 48.0469 112.28C48.1701 112.468 48.3295 112.629 48.5158 112.755C48.7122 112.851 48.9286 112.899 49.1472 112.895C49.3658 112.891 49.5802 112.834 49.7728 112.731L113.061 76.1999C113.245 76.0808 113.393 75.9136 113.489 75.7163C113.584 75.519 113.624 75.2993 113.604 75.0809L105.3 16.7579C105.258 16.5359 105.172 16.3245 105.047 16.1364C104.921 15.9483 104.76 15.7873 104.571 15.6629Z" fill="#F0F0F0"/>
<path d="M40.6979 54.0478L49.0169 112.365C49.0185 112.452 49.0442 112.537 49.0911 112.61C49.138 112.683 49.2043 112.742 49.2826 112.78C49.3609 112.818 49.4481 112.833 49.5346 112.825C49.6212 112.816 49.7037 112.783 49.7729 112.731L113.061 76.1998C113.245 76.0807 113.393 75.9134 113.489 75.7161C113.584 75.5188 113.624 75.2991 113.604 75.0808L105.3 16.7578C105.299 16.6705 105.273 16.5854 105.227 16.5117C105.18 16.438 105.114 16.3787 105.036 16.3405C104.957 16.3022 104.87 16.2865 104.783 16.295C104.696 16.3035 104.613 16.336 104.544 16.3888L41.2439 52.9288C41.0592 53.0475 40.9107 53.2146 40.8144 53.4119C40.7181 53.6092 40.6778 53.8292 40.6979 54.0478Z" fill="#FAFAFA"/>
<path d="M28.6289 100.167L44.8289 90.8098L45.2999 94.1998L37.8719 98.4898C37.8719 98.4898 35.8919 99.1918 35.1059 99.3898C34.3199 99.5878 28.6289 100.167 28.6289 100.167Z" fill="#E0E0E0"/>
<path d="M45.3089 94.2029L47.7389 111.243L37.8809 98.4929L45.3089 94.2029Z" fill="#E6E6E6"/>
<path d="M47.4477 111.81L38.6127 100.335C38.466 100.164 38.2806 100.03 38.0719 99.945C37.8632 99.86 37.6372 99.826 37.4127 99.8458L29.1507 101.046C28.6854 101.096 28.2157 101.01 27.7977 100.8C27.4617 100.608 27.5187 100.386 27.9237 100.308L37.4187 98.4808C37.6413 98.4473 37.8688 98.472 38.0791 98.5524C38.2894 98.6329 38.4753 98.7663 38.6187 98.9398L48.6777 112.5C48.9237 112.833 48.8517 112.944 48.5157 112.749C48.1107 112.496 47.7499 112.179 47.4477 111.81Z" fill="#E0E0E0"/>
<path d="M103.815 15.8128C103.814 15.6438 103.771 15.4776 103.691 15.329C103.61 15.1804 103.494 15.054 103.353 14.9608C103.156 14.8664 102.939 14.8193 102.72 14.8235C102.501 14.8277 102.287 14.8829 102.093 14.9848L38.7931 51.5248C38.6 51.6458 38.432 51.8026 38.2981 51.9868C38.1494 52.1784 38.0403 52.3977 37.9771 52.6318L36.4771 59.2828L37.6951 59.9818L102.3 22.6918L103.8 16.0438C103.814 15.9677 103.82 15.8902 103.818 15.8128H103.815Z" fill="#3686F7"/>
<path opacity="0.2" d="M103.8 16.0439C103.89 15.6389 103.674 15.4799 103.314 15.6869L40.0137 52.2269C39.6184 52.4848 39.3296 52.8769 39.2007 53.3309L37.7007 59.9819L102.3 22.6919L103.8 16.0439Z" fill="black"/>
<path opacity="0.1" d="M39.5277 52.6889C39.3788 52.8788 39.2705 53.0973 39.2097 53.3309L37.7097 59.9819L36.4917 59.2799L37.9917 52.6289C38.0549 52.3947 38.164 52.1755 38.3127 51.9839L39.5277 52.6889Z" fill="black"/>
<path opacity="0.4" d="M103.815 15.8099C103.785 15.5849 103.59 15.5099 103.311 15.6869L40.0108 52.2239C39.8165 52.3443 39.6482 52.5024 39.5159 52.6889L38.2979 51.9839C38.4318 51.7997 38.5998 51.6428 38.7928 51.5219L102.093 14.9819C102.286 14.88 102.501 14.8247 102.72 14.8206C102.939 14.8164 103.155 14.8634 103.353 14.9579C103.494 15.051 103.61 15.1775 103.69 15.3261C103.771 15.4747 103.814 15.6408 103.815 15.8099Z" fill="white"/>
<path d="M105.363 17.3159L105.3 16.7579C105.295 16.7306 105.289 16.7036 105.282 16.6769C105.283 16.669 105.283 16.6609 105.282 16.6529C105.18 16.2492 104.933 15.897 104.589 15.6629C104.392 15.5675 104.175 15.52 103.956 15.5242C103.737 15.5283 103.522 15.5841 103.329 15.6869L40.0287 52.2269C39.8371 52.3456 39.6855 52.5191 39.5937 52.7249C39.5 52.9166 39.4625 53.1309 39.4857 53.3429L40.6857 61.6979L41.9037 62.4029L106.479 25.1159L105.363 17.3159Z" fill="#3686F7"/>
<path opacity="0.1" d="M41.892 62.3999L40.674 61.6949L39.474 53.3399C39.4508 53.1279 39.4882 52.9136 39.582 52.7219L40.803 53.4239C40.7071 53.6149 40.6685 53.8295 40.692 54.0419L41.892 62.3999Z" fill="black"/>
<path opacity="0.4" d="M105.264 16.6529C105.247 16.5774 105.211 16.5073 105.16 16.4493C105.108 16.3912 105.043 16.347 104.97 16.3207C104.897 16.2944 104.819 16.2869 104.742 16.2988C104.666 16.3107 104.594 16.3417 104.532 16.3889L41.2321 52.9289C41.0397 53.0467 40.888 53.2205 40.7971 53.4269L39.6001 52.7249C39.6927 52.5188 39.844 52.3445 40.0351 52.2239L103.335 15.6869C103.528 15.5841 103.743 15.5283 103.962 15.5242C104.181 15.52 104.398 15.5675 104.595 15.6629C104.931 15.9004 105.169 16.2524 105.264 16.6529Z" fill="white"/>
<path d="M58.6947 102.702L57.9387 97.3889C57.9376 97.3197 57.9176 97.2522 57.8808 97.1936C57.8439 97.135 57.7917 97.0877 57.7298 97.0567C57.6679 97.0258 57.5987 97.0124 57.5298 97.0181C57.4608 97.0238 57.3947 97.0483 57.3387 97.0889L51.8217 100.275C51.6731 100.37 51.5537 100.505 51.4769 100.663C51.4001 100.822 51.3689 100.999 51.3867 101.175L52.1397 106.5C52.1397 106.57 52.1591 106.638 52.1957 106.697C52.2323 106.756 52.2847 106.804 52.347 106.835C52.4093 106.866 52.479 106.88 52.5484 106.873C52.6178 106.867 52.684 106.842 52.7397 106.8L58.2567 103.614C58.4081 103.519 58.5296 103.382 58.6071 103.221C58.6845 103.06 58.7149 102.88 58.6947 102.702Z" fill="#3686F7"/>
<path d="M67.2268 97.7819L66.4678 92.4719C66.4678 92.4023 66.4484 92.334 66.4118 92.2748C66.3752 92.2155 66.3228 92.1677 66.2606 92.1365C66.1983 92.1054 66.1285 92.0922 66.0592 92.0984C65.9898 92.1047 65.9236 92.1301 65.8678 92.1719L60.3508 95.3549C60.2024 95.4503 60.0833 95.5848 60.0065 95.7436C59.9297 95.9024 59.8984 96.0794 59.9158 96.2549L60.6748 101.568C60.6748 101.638 60.6942 101.706 60.7309 101.765C60.7675 101.824 60.8198 101.872 60.8821 101.903C60.9444 101.934 61.0142 101.948 61.0835 101.941C61.1529 101.935 61.2191 101.91 61.2748 101.868L66.7918 98.6819C66.9407 98.5871 67.0603 98.4526 67.1371 98.2937C67.214 98.1347 67.245 97.9575 67.2268 97.7819Z" fill="#EBEBEB"/>
<path d="M75.7591 92.8618L75.0001 87.5518C75.0001 87.4821 74.9807 87.4138 74.9441 87.3546C74.9075 87.2954 74.8551 87.2475 74.7929 87.2163C74.7306 87.1852 74.6608 87.172 74.5915 87.1783C74.5221 87.1845 74.4559 87.21 74.4001 87.2518L68.8801 90.4408C68.7317 90.5361 68.6126 90.6706 68.5358 90.8294C68.459 90.9883 68.4277 91.1652 68.4451 91.3408L69.2041 96.6538C69.2041 96.7234 69.2235 96.7917 69.2601 96.8509C69.2968 96.9101 69.3492 96.958 69.4114 96.9892C69.4737 97.0203 69.5435 97.0335 69.6128 97.0272C69.6822 97.021 69.7484 96.9955 69.8041 96.9538L75.3211 93.7678C75.4716 93.6728 75.5924 93.5376 75.6698 93.3774C75.7472 93.2173 75.7782 93.0386 75.7591 92.8618Z" fill="#EBEBEB"/>
<path d="M84.3 87.9448L83.541 82.6318C83.541 82.5622 83.5216 82.4939 83.485 82.4347C83.4484 82.3754 83.396 82.3276 83.3337 82.2964C83.2714 82.2653 83.2017 82.2521 83.1323 82.2584C83.063 82.2646 82.9967 82.2901 82.941 82.3318L77.4 85.5238C77.2511 85.6187 77.1316 85.7531 77.0547 85.9121C76.9779 86.071 76.9468 86.2482 76.965 86.4238L77.724 91.7338C77.724 91.8035 77.7434 91.8717 77.78 91.931C77.8166 91.9902 77.869 92.0381 77.9313 92.0693C77.9936 92.1004 78.0633 92.1136 78.1327 92.1073C78.2021 92.1011 78.2683 92.0756 78.324 92.0338L83.841 88.8508C83.9948 88.7581 84.1195 88.624 84.2006 88.4637C84.2818 88.3035 84.3162 88.1237 84.3 87.9448Z" fill="#EBEBEB"/>
<path d="M92.8229 83.0249L92.0639 77.6999C92.0639 77.6303 92.0445 77.562 92.0079 77.5028C91.9713 77.4436 91.9189 77.3957 91.8566 77.3645C91.7943 77.3334 91.7246 77.3202 91.6552 77.3265C91.5858 77.3327 91.5196 77.3582 91.4639 77.3999L85.9469 80.5859C85.798 80.6808 85.6784 80.8152 85.6016 80.9742C85.5248 81.1331 85.4937 81.3103 85.5119 81.4859L86.2709 86.7959C86.2709 86.8656 86.2903 86.9339 86.3269 86.9931C86.3635 87.0523 86.4159 87.1002 86.4782 87.1314C86.5405 87.1625 86.6102 87.1757 86.6796 87.1694C86.7489 87.1632 86.8152 87.1377 86.8709 87.0959L92.3999 83.919C92.5451 83.8226 92.6613 83.6884 92.7358 83.5308C92.8104 83.3733 92.8405 83.1984 92.8229 83.0249Z" fill="#EBEBEB"/>
<path d="M101.355 78.105L100.596 72.792C100.596 72.7224 100.577 72.6541 100.54 72.5948C100.503 72.5356 100.451 72.4877 100.389 72.4566C100.327 72.4254 100.257 72.4123 100.187 72.4185C100.118 72.4248 100.052 72.4502 99.9961 72.492L94.4791 75.678C94.3302 75.7728 94.2107 75.9073 94.1338 76.0662C94.057 76.2252 94.0259 76.4024 94.0441 76.578L94.8001 81.9C94.8001 81.9696 94.8195 82.0379 94.8561 82.0971C94.8927 82.1564 94.9451 82.2043 95.0074 82.2354C95.0697 82.2666 95.1394 82.2797 95.2088 82.2735C95.2781 82.2672 95.3444 82.2418 95.4001 82.2L100.917 79.014C101.068 78.9186 101.189 78.7828 101.266 78.6221C101.344 78.4615 101.374 78.2823 101.355 78.105Z" fill="#EBEBEB"/>
<path d="M109.887 73.2L109.128 67.887C109.128 67.8173 109.108 67.7491 109.072 67.6898C109.035 67.6306 108.983 67.5827 108.92 67.5516C108.858 67.5204 108.788 67.5072 108.719 67.5135C108.65 67.5197 108.583 67.5452 108.528 67.587L103.011 70.773C102.862 70.8681 102.743 71.0025 102.666 71.1614C102.589 71.3203 102.558 71.4974 102.576 71.673L103.332 76.986C103.333 77.0552 103.353 77.1227 103.39 77.1813C103.426 77.2399 103.479 77.2872 103.541 77.3182C103.602 77.3491 103.672 77.3625 103.741 77.3568C103.81 77.3511 103.876 77.3266 103.932 77.286L109.449 74.1C109.598 74.0052 109.718 73.8709 109.795 73.712C109.873 73.5531 109.904 73.3758 109.887 73.2Z" fill="#EBEBEB"/>
<path d="M57.2129 92.3068L56.4539 86.9998C56.4528 86.9306 56.4327 86.863 56.3959 86.8044C56.359 86.7459 56.3068 86.6985 56.2449 86.6676C56.1831 86.6366 56.1139 86.6233 56.0449 86.629C55.9759 86.6346 55.9099 86.6591 55.8539 86.6998L50.3369 89.8858C50.1882 89.9809 50.0688 90.1154 49.992 90.2742C49.9152 90.4331 49.884 90.6102 49.9019 90.7858L50.6579 96.0988C50.6589 96.168 50.679 96.2355 50.7158 96.2941C50.7527 96.3527 50.8049 96.4 50.8668 96.431C50.9287 96.4619 50.9979 96.4753 51.0668 96.4696C51.1358 96.4639 51.2019 96.4394 51.2579 96.3988L56.7749 93.2128C56.9241 93.1166 57.0439 92.9811 57.1211 92.8213C57.1984 92.6615 57.2301 92.4835 57.2129 92.3068Z" fill="#3686F7"/>
<path d="M65.7451 87.387L64.9861 82.074C64.985 82.0048 64.9649 81.9373 64.9281 81.8787C64.8913 81.8201 64.8391 81.7728 64.7772 81.7418C64.7153 81.7109 64.6461 81.6975 64.5771 81.7032C64.5082 81.7089 64.4421 81.7333 64.3861 81.774L58.8691 84.96C58.7204 85.0551 58.6011 85.1896 58.5243 85.3485C58.4475 85.5073 58.4163 85.6844 58.4341 85.86L59.1901 91.173C59.1912 91.2422 59.2112 91.3098 59.2481 91.3683C59.2849 91.4269 59.3371 91.4742 59.399 91.5052C59.4609 91.5361 59.5301 91.5495 59.599 91.5438C59.668 91.5381 59.7341 91.5136 59.7901 91.473L65.3071 88.287C65.4553 88.1913 65.5745 88.0568 65.6517 87.8981C65.729 87.7395 65.7612 87.5627 65.7451 87.387Z" fill="#EBEBEB"/>
<path d="M74.2768 82.4668L73.5178 77.1538C73.5167 77.0846 73.4967 77.0171 73.4598 76.9585C73.423 76.8999 73.3708 76.8526 73.3089 76.8216C73.247 76.7907 73.1778 76.7773 73.1089 76.783C73.0399 76.7887 72.9738 76.8132 72.9178 76.8538L67.4008 80.0398C67.2522 80.1349 67.1328 80.2694 67.056 80.4283C66.9792 80.5872 66.948 80.7643 66.9658 80.9398L67.7218 86.2528C67.7229 86.322 67.743 86.3896 67.7798 86.4482C67.8166 86.5067 67.8688 86.5541 67.9307 86.585C67.9926 86.616 68.0618 86.6293 68.1308 86.6236C68.1997 86.618 68.2658 86.5935 68.3218 86.5528L73.8388 83.3668C73.9871 83.2711 74.1063 83.1366 74.1835 82.978C74.2607 82.8193 74.293 82.6425 74.2768 82.4668Z" fill="#EBEBEB"/>
<path d="M82.7999 77.5469L82.0409 72.2339C82.0399 72.1647 82.0198 72.0972 81.983 72.0386C81.9461 71.98 81.8939 71.9327 81.832 71.9017C81.7702 71.8708 81.701 71.8574 81.632 71.8631C81.563 71.8688 81.4969 71.8933 81.4409 71.9339L75.93 75.1259C75.7815 75.2213 75.6624 75.3558 75.5856 75.5146C75.5088 75.6734 75.4775 75.8504 75.4949 76.0259L76.2509 81.3389C76.252 81.4081 76.2721 81.4757 76.3089 81.5342C76.3458 81.5928 76.398 81.6401 76.4599 81.6711C76.5217 81.702 76.5909 81.7154 76.6599 81.7097C76.7289 81.7041 76.795 81.6796 76.851 81.6389L82.3679 78.4529C82.5163 78.3562 82.6351 78.2205 82.7113 78.0606C82.7875 77.9008 82.8182 77.723 82.7999 77.5469Z" fill="#EBEBEB"/>
<path d="M91.3407 72.6269L90.5817 67.3169C90.5817 67.2473 90.5623 67.179 90.5257 67.1197C90.4891 67.0605 90.4367 67.0126 90.3744 66.9815C90.3121 66.9503 90.2424 66.9372 90.173 66.9434C90.1036 66.9497 90.0374 66.9751 89.9817 67.0169L84.4617 70.1999C84.3133 70.2952 84.1941 70.4298 84.1173 70.5886C84.0406 70.7474 84.0092 70.9244 84.0267 71.0999L84.7827 76.4129C84.7838 76.4821 84.8038 76.5496 84.8407 76.6082C84.8775 76.6668 84.9297 76.7141 84.9916 76.7451C85.0535 76.776 85.1227 76.7894 85.1916 76.7837C85.2606 76.778 85.3267 76.7535 85.3827 76.7129L90.8997 73.5209C91.0478 73.4263 91.1671 73.293 91.2449 73.1354C91.3226 72.9778 91.3557 72.802 91.3407 72.6269Z" fill="#EBEBEB"/>
<path d="M99.8731 67.7069L99.1141 62.3999C99.1141 62.3303 99.0947 62.262 99.0581 62.2028C99.0215 62.1435 98.9691 62.0956 98.9068 62.0645C98.8445 62.0333 98.7748 62.0202 98.7054 62.0264C98.6361 62.0327 98.5698 62.0581 98.5141 62.0999L93.0001 65.2889C92.8512 65.3838 92.7317 65.5182 92.6548 65.6771C92.578 65.8361 92.5469 66.0133 92.5651 66.1889L93.3211 71.4989C93.3222 71.5681 93.3423 71.6357 93.3791 71.6942C93.4159 71.7528 93.4681 71.8001 93.53 71.8311C93.5919 71.862 93.6611 71.8754 93.7301 71.8697C93.799 71.864 93.8651 71.8396 93.9211 71.7989L99.4381 68.6129C99.587 68.5166 99.7064 68.381 99.7832 68.2212C99.8599 68.0613 99.8911 67.8833 99.8731 67.7069Z" fill="#EBEBEB"/>
<path d="M108.405 62.7898L107.646 57.4768C107.646 57.4072 107.627 57.3389 107.59 57.2797C107.553 57.2204 107.501 57.1725 107.439 57.1414C107.376 57.1103 107.307 57.0971 107.237 57.1033C107.168 57.1096 107.102 57.135 107.046 57.1768L101.526 60.3628C101.378 60.4583 101.259 60.5929 101.183 60.7518C101.107 60.9107 101.076 61.0875 101.094 61.2628L101.85 66.5728C101.851 66.642 101.871 66.7096 101.908 66.7681C101.945 66.8267 101.997 66.874 102.059 66.905C102.121 66.9359 102.19 66.9493 102.259 66.9436C102.328 66.938 102.394 66.9135 102.45 66.8728L107.967 63.6898C108.115 63.5939 108.234 63.4593 108.311 63.3007C108.388 63.1421 108.421 62.9655 108.405 62.7898Z" fill="#EBEBEB"/>
<path d="M55.7281 81.8999L54.9721 76.5869C54.971 76.5177 54.9509 76.4502 54.9141 76.3916C54.8772 76.333 54.825 76.2857 54.7631 76.2547C54.7013 76.2238 54.6321 76.2104 54.5631 76.2161C54.4941 76.2218 54.4281 76.2463 54.3721 76.2869L48.8491 79.4999C48.7011 79.5958 48.5823 79.7304 48.5056 79.8891C48.4289 80.0478 48.3973 80.2245 48.4141 80.3999L49.1731 85.7099C49.1731 85.7796 49.1924 85.8478 49.2291 85.9071C49.2657 85.9663 49.3181 86.0142 49.3803 86.0453C49.4426 86.0765 49.5124 86.0897 49.5817 86.0834C49.6511 86.0772 49.7173 86.0517 49.7731 86.0099L55.2931 82.7999C55.4415 82.7046 55.5606 82.5701 55.6374 82.4112C55.7142 82.2524 55.7455 82.0755 55.7281 81.8999Z" fill="#3686F7"/>
<path d="M64.2601 76.992L63.5041 71.679C63.5031 71.6098 63.483 71.5422 63.4462 71.4837C63.4093 71.4251 63.3571 71.3777 63.2952 71.3468C63.2333 71.3158 63.1641 71.3025 63.0952 71.3082C63.0262 71.3138 62.9601 71.3383 62.9041 71.379L57.3871 74.565C57.2392 74.6608 57.1204 74.7954 57.0437 74.9541C56.967 75.1128 56.9353 75.2895 56.9521 75.465L57.7111 80.778C57.7122 80.8472 57.7323 80.9147 57.7691 80.9733C57.8059 81.0319 57.8582 81.0792 57.92 81.1102C57.9819 81.1411 58.0511 81.1545 58.1201 81.1488C58.1891 81.1431 58.2551 81.1186 58.3111 81.078L63.8281 77.892C63.9762 77.7965 64.095 77.6619 64.1713 77.503C64.2475 77.3441 64.2783 77.1673 64.2601 76.992Z" fill="#EBEBEB"/>
<path d="M72.7917 72.0718L72.0357 66.7588C72.0346 66.6896 72.0146 66.6221 71.9777 66.5635C71.9409 66.5049 71.8887 66.4576 71.8268 66.4266C71.7649 66.3957 71.6957 66.3823 71.6268 66.388C71.5578 66.3937 71.4917 66.4182 71.4357 66.4588L65.9187 69.6448C65.771 69.7409 65.6524 69.8755 65.5758 70.0342C65.4991 70.1928 65.4673 70.3694 65.4837 70.5448L66.2427 75.8578C66.2438 75.927 66.2639 75.9946 66.3007 76.0531C66.3375 76.1117 66.3897 76.1591 66.4516 76.19C66.5135 76.2209 66.5827 76.2343 66.6517 76.2286C66.7206 76.223 66.7867 76.1985 66.8427 76.1578L72.3597 72.9718C72.5078 72.8763 72.6266 72.7417 72.7028 72.5828C72.7791 72.424 72.8099 72.2471 72.7917 72.0718Z" fill="#EBEBEB"/>
<path d="M81.3239 67.1519L80.5679 61.8389C80.5669 61.7697 80.5468 61.7021 80.51 61.6436C80.4731 61.585 80.4209 61.5377 80.359 61.5067C80.2971 61.4758 80.2279 61.4624 80.159 61.4681C80.09 61.4737 80.0239 61.4982 79.9679 61.5389L74.4509 64.7249C74.3033 64.821 74.1847 64.9556 74.108 65.1142C74.0313 65.2729 73.9995 65.4495 74.0159 65.6249L74.7749 70.9379C74.776 71.0071 74.7961 71.0746 74.8329 71.1332C74.8698 71.1918 74.922 71.2391 74.9839 71.2701C75.0457 71.301 75.1149 71.3144 75.1839 71.3087C75.2529 71.303 75.3189 71.2785 75.3749 71.2379L80.8919 68.0519C81.0401 67.9564 81.1588 67.8218 81.2351 67.6629C81.3113 67.504 81.3421 67.3272 81.3239 67.1519Z" fill="#EBEBEB"/>
<path d="M89.8557 62.232L89.0997 56.919C89.0986 56.8498 89.0785 56.7822 89.0417 56.7236C89.0049 56.6651 88.9527 56.6177 88.8908 56.5868C88.8289 56.5558 88.7597 56.5425 88.6907 56.5481C88.6218 56.5538 88.5557 56.5783 88.4997 56.619L82.9827 59.805C82.835 59.901 82.7164 60.0357 82.6397 60.1943C82.563 60.353 82.5312 60.5295 82.5477 60.705L83.3067 66.018C83.3078 66.0872 83.3278 66.1547 83.3647 66.2133C83.4015 66.2719 83.4537 66.3192 83.5156 66.3502C83.5775 66.3811 83.6467 66.3945 83.7156 66.3888C83.7846 66.3831 83.8507 66.3586 83.9067 66.318L89.4237 63.132C89.5718 63.0365 89.6905 62.9018 89.7668 62.743C89.8431 62.5841 89.8738 62.4072 89.8557 62.232Z" fill="#EBEBEB"/>
<path d="M98.3998 57.2998L97.6438 51.9868C97.6427 51.9176 97.6226 51.8501 97.5858 51.7915C97.549 51.7329 97.4968 51.6856 97.4349 51.6547C97.373 51.6237 97.3038 51.6103 97.2348 51.616C97.1659 51.6217 97.0998 51.6462 97.0438 51.6868L91.4998 54.8998C91.3521 54.9959 91.2335 55.1306 91.1568 55.2892C91.0801 55.4478 91.0483 55.6244 91.0648 55.7998L91.8238 61.1128C91.8249 61.182 91.8449 61.2496 91.8817 61.3082C91.9186 61.3667 91.9708 61.4141 92.0327 61.445C92.0946 61.476 92.1638 61.4893 92.2327 61.4837C92.3017 61.478 92.3678 61.4535 92.4238 61.4128L97.9528 58.1998C98.1039 58.1065 98.2259 57.9728 98.3049 57.8137C98.3839 57.6546 98.4167 57.4766 98.3998 57.2998Z" fill="#EBEBEB"/>
<path d="M106.92 52.3918L106.164 47.0818C106.163 47.0126 106.143 46.9451 106.106 46.8865C106.069 46.8279 106.017 46.7806 105.955 46.7496C105.893 46.7187 105.824 46.7053 105.755 46.711C105.686 46.7167 105.62 46.7412 105.564 46.7818L100.047 49.9648C99.8989 50.0607 99.7801 50.1952 99.7034 50.3539C99.6267 50.5126 99.595 50.6894 99.6118 50.8648L100.371 56.1778C100.372 56.247 100.392 56.3146 100.429 56.3731C100.466 56.4317 100.518 56.479 100.58 56.51C100.642 56.5409 100.711 56.5543 100.78 56.5486C100.849 56.543 100.915 56.5185 100.971 56.4778L106.5 53.2858C106.645 53.1895 106.761 53.0553 106.835 52.8976C106.909 52.74 106.938 52.565 106.92 52.3918Z" fill="#EBEBEB"/>
<path d="M54.2459 71.5139L53.4869 66.2039C53.4869 66.1342 53.4675 66.066 53.4309 66.0067C53.3943 65.9475 53.3419 65.8996 53.2796 65.8684C53.2173 65.8373 53.1476 65.8241 53.0782 65.8304C53.0089 65.8366 52.9426 65.8621 52.8869 65.9039L47.3699 69.0869C47.2215 69.1822 47.1023 69.3167 47.0255 69.4755C46.9488 69.6344 46.9174 69.8113 46.9349 69.9869L47.6999 75.2999C47.6999 75.3695 47.7193 75.4378 47.7559 75.497C47.7925 75.5563 47.8449 75.6041 47.9072 75.6353C47.9695 75.6664 48.0392 75.6796 48.1086 75.6733C48.1779 75.6671 48.2442 75.6416 48.2999 75.5999L53.8169 72.4139C53.9647 72.3182 54.083 72.1835 54.1588 72.0246C54.2345 71.8657 54.2647 71.6889 54.2459 71.5139Z" fill="#3686F7"/>
<path d="M62.778 66.5998L62.019 61.2898C62.019 61.2202 61.9996 61.1519 61.963 61.0926C61.9264 61.0334 61.874 60.9855 61.8117 60.9544C61.7494 60.9232 61.6797 60.9101 61.6103 60.9163C61.5409 60.9226 61.4747 60.948 61.419 60.9898L55.902 64.1758C55.7531 64.2706 55.6335 64.4051 55.5567 64.564C55.4799 64.723 55.4488 64.9002 55.467 65.0758L56.226 70.3858C56.226 70.4554 56.2454 70.5237 56.282 70.5829C56.3186 70.6422 56.371 70.6901 56.4333 70.7212C56.4956 70.7524 56.5653 70.7655 56.6346 70.7593C56.704 70.753 56.7703 70.7276 56.826 70.6858L62.343 67.4998C62.4919 67.4049 62.6114 67.2705 62.6883 67.1116C62.7651 66.9526 62.7961 66.7754 62.778 66.5998Z" fill="#EBEBEB"/>
<path d="M71.3097 61.6768L70.5507 56.3638C70.5507 56.2941 70.5313 56.2259 70.4947 56.1666C70.4581 56.1074 70.4057 56.0595 70.3434 56.0284C70.2811 55.9972 70.2114 55.984 70.142 55.9903C70.0727 55.9965 70.0064 56.022 69.9507 56.0638L64.4337 59.2498C64.2848 59.3446 64.1652 59.4791 64.0884 59.638C64.0116 59.797 63.9805 59.9742 63.9987 60.1498L64.7577 65.4598C64.7577 65.5294 64.7771 65.5977 64.8137 65.6569C64.8503 65.7162 64.9027 65.764 64.965 65.7952C65.0273 65.8263 65.097 65.8395 65.1664 65.8333C65.2357 65.827 65.302 65.8016 65.3577 65.7598L70.8747 62.5768C71.0231 62.4814 71.1423 62.3469 71.2191 62.1881C71.2958 62.0293 71.3272 61.8523 71.3097 61.6768Z" fill="#EBEBEB"/>
<path d="M79.8419 56.7568L79.0829 51.4438C79.0829 51.3742 79.0635 51.3059 79.0269 51.2467C78.9903 51.1875 78.9379 51.1396 78.8756 51.1084C78.8133 51.0773 78.7436 51.0641 78.6743 51.0704C78.6049 51.0766 78.5386 51.1021 78.4829 51.1438L72.9659 54.3299C72.817 54.4247 72.6975 54.5591 72.6206 54.7181C72.5438 54.877 72.5128 55.0542 72.5309 55.2299L73.2869 60.5428C73.288 60.612 73.3081 60.6796 73.3449 60.7382C73.3817 60.7968 73.4339 60.8441 73.4958 60.875C73.5577 60.906 73.6269 60.9193 73.6959 60.9137C73.7649 60.908 73.8309 60.8835 73.8869 60.8428L79.4039 57.6568C79.5529 57.5619 79.6727 57.4275 79.75 57.2687C79.8273 57.1098 79.8591 56.9327 79.8419 56.7568Z" fill="#EBEBEB"/>
<path d="M88.3737 51.8369L87.6147 46.5239C87.6147 46.4543 87.5953 46.386 87.5587 46.3268C87.5221 46.2675 87.4697 46.2197 87.4074 46.1885C87.3451 46.1574 87.2754 46.1442 87.206 46.1504C87.1366 46.1567 87.0704 46.1821 87.0147 46.2239L81.4977 49.4099C81.3488 49.5048 81.2292 49.6392 81.1524 49.7982C81.0756 49.9571 81.0445 50.1343 81.0627 50.3099L81.8187 55.6229C81.8198 55.6921 81.8398 55.7597 81.8766 55.8182C81.9135 55.8768 81.9657 55.9242 82.0276 55.9551C82.0895 55.9861 82.1587 55.9994 82.2276 55.9937C82.2966 55.9881 82.3627 55.9636 82.4187 55.9229L87.9357 52.7369C88.0849 52.6422 88.2048 52.5079 88.2822 52.349C88.3595 52.1901 88.3912 52.0128 88.3737 51.8369Z" fill="#EBEBEB"/>
<path d="M96.8999 46.9168L96.1409 41.6038C96.1409 41.5341 96.1215 41.4659 96.0849 41.4066C96.0482 41.3474 95.9959 41.2995 95.9336 41.2684C95.8713 41.2372 95.8016 41.224 95.7322 41.2303C95.6628 41.2365 95.5966 41.262 95.5409 41.3038L90.0239 44.4898C89.8752 44.5849 89.7559 44.7193 89.6791 44.8782C89.6023 45.0371 89.571 45.2142 89.5889 45.3898L90.3479 50.6998C90.3489 50.7689 90.369 50.8365 90.4058 50.8951C90.4427 50.9537 90.4949 51.001 90.5568 51.0319C90.6187 51.0629 90.6879 51.0763 90.7568 51.0706C90.8258 51.0649 90.8919 51.0404 90.9479 50.9998L96.4649 47.8138C96.613 47.7189 96.7321 47.5849 96.8089 47.4266C96.8856 47.2683 96.9171 47.0918 96.8999 46.9168Z" fill="#EBEBEB"/>
<path d="M105.438 41.9998L104.679 36.6868C104.679 36.6171 104.66 36.5489 104.623 36.4896C104.586 36.4304 104.534 36.3825 104.472 36.3514C104.409 36.3202 104.34 36.307 104.27 36.3133C104.201 36.3195 104.135 36.345 104.079 36.3868L98.562 39.5728C98.4133 39.6679 98.2939 39.8023 98.2171 39.9612C98.1403 40.1201 98.1091 40.2972 98.127 40.4728L98.8829 45.7858C98.884 45.855 98.9041 45.9225 98.9409 45.9811C98.9778 46.0397 99.03 46.087 99.0919 46.118C99.1538 46.1489 99.223 46.1623 99.2919 46.1566C99.3609 46.1509 99.427 46.1264 99.4829 46.0858L105 42.8998C105.149 42.805 105.269 42.6707 105.346 42.5118C105.424 42.3529 105.455 42.1756 105.438 41.9998Z" fill="#EBEBEB"/>
<path d="M52.935 62.1238L52.743 60.7678C52.743 60.6982 52.7236 60.6299 52.687 60.5707C52.6504 60.5114 52.598 60.4636 52.5357 60.4324C52.4734 60.4013 52.4037 60.3881 52.3343 60.3943C52.2649 60.4006 52.1987 60.426 52.143 60.4678L46.623 63.6598C46.4743 63.7549 46.355 63.8894 46.2782 64.0483C46.2014 64.2072 46.1702 64.3843 46.188 64.5598L46.377 65.9158C46.3781 65.985 46.3981 66.0526 46.435 66.1111C46.4718 66.1697 46.524 66.2171 46.5859 66.248C46.6478 66.279 46.717 66.2923 46.7859 66.2866C46.8549 66.281 46.921 66.2565 46.977 66.2158L52.5 63.0178C52.647 62.9225 52.7651 62.7888 52.8418 62.6313C52.9184 62.4738 52.9507 62.2983 52.935 62.1238Z" fill="#E6E6E6"/>
<path d="M61.4667 57.2039L61.2747 55.8479C61.2747 55.7783 61.2553 55.71 61.2187 55.6508C61.1821 55.5915 61.1297 55.5436 61.0674 55.5125C61.0051 55.4813 60.9354 55.4682 60.866 55.4744C60.7967 55.4807 60.7304 55.5061 60.6747 55.5479L55.1547 58.7399C55.0061 58.835 54.8867 58.9695 54.8099 59.1284C54.7331 59.2873 54.7019 59.4643 54.7197 59.6399L54.9087 60.9959C54.9098 61.0651 54.9299 61.1327 54.9667 61.1912C55.0035 61.2498 55.0557 61.2971 55.1176 61.3281C55.1795 61.359 55.2487 61.3724 55.3177 61.3667C55.3866 61.361 55.4527 61.3365 55.5087 61.2959L61.0287 58.1099C61.1782 58.014 61.2982 57.8786 61.3755 57.7187C61.4528 57.5588 61.4844 57.3806 61.4667 57.2039Z" fill="#E6E6E6"/>
<path d="M69.999 52.284L69.807 50.928C69.8059 50.8588 69.7858 50.7913 69.749 50.7327C69.7121 50.6741 69.6599 50.6268 69.598 50.5958C69.5362 50.5649 69.467 50.5515 69.398 50.5572C69.329 50.5629 69.263 50.5874 69.207 50.628L63.687 53.82C63.5383 53.9151 63.4189 54.0496 63.3421 54.2085C63.2653 54.3674 63.2341 54.5444 63.252 54.72L63.441 56.076C63.441 56.1456 63.4603 56.2139 63.497 56.2731C63.5336 56.3324 63.586 56.3803 63.6482 56.4114C63.7105 56.4426 63.7803 56.4557 63.8496 56.4495C63.919 56.4432 63.9852 56.4178 64.041 56.376L69.561 53.19C69.7104 53.0941 69.8304 52.9587 69.9077 52.7988C69.985 52.6389 70.0166 52.4607 69.999 52.284Z" fill="#E6E6E6"/>
<path d="M78.5307 47.3668L78.3387 46.0078C78.3376 45.9386 78.3176 45.8711 78.2807 45.8125C78.2439 45.7539 78.1917 45.7066 78.1298 45.6757C78.0679 45.6447 77.9987 45.6313 77.9297 45.637C77.8608 45.6427 77.7947 45.6672 77.7387 45.7078L72.2187 48.8998C72.07 48.9949 71.9507 49.1294 71.8739 49.2883C71.7971 49.4472 71.7659 49.6243 71.7837 49.7998L71.9727 51.1558C71.9727 51.2255 71.9921 51.2937 72.0287 51.353C72.0653 51.4122 72.1177 51.4601 72.18 51.4912C72.2423 51.5224 72.312 51.5356 72.3814 51.5293C72.4507 51.5231 72.517 51.4976 72.5727 51.4558L78.0927 48.2728C78.2417 48.1764 78.3613 48.0409 78.4385 47.8812C78.5158 47.7214 78.5476 47.5435 78.5307 47.3668Z" fill="#E6E6E6"/>
<path d="M87.0627 42.4469L86.8707 41.0879C86.8697 41.0187 86.8496 40.9512 86.8128 40.8926C86.7759 40.834 86.7237 40.7867 86.6618 40.7557C86.6 40.7248 86.5308 40.7114 86.4618 40.7171C86.3928 40.7228 86.3267 40.7473 86.2707 40.7879L80.7508 43.9799C80.6023 44.0753 80.4832 44.2098 80.4064 44.3686C80.3296 44.5274 80.2983 44.7044 80.3157 44.8799L80.5047 46.2359C80.5047 46.3056 80.5241 46.3738 80.5608 46.4331C80.5974 46.4923 80.6498 46.5402 80.712 46.5713C80.7743 46.6025 80.8441 46.6157 80.9134 46.6094C80.9828 46.6031 81.049 46.5777 81.1047 46.5359L86.6247 43.3529C86.7737 43.2565 86.8933 43.121 86.9706 42.9612C87.0478 42.8015 87.0797 42.6236 87.0627 42.4469Z" fill="#E6E6E6"/>
<path d="M95.595 37.5269L95.403 36.1709C95.403 36.1013 95.3836 36.033 95.347 35.9737C95.3104 35.9145 95.258 35.8666 95.1957 35.8355C95.1334 35.8043 95.0637 35.7912 94.9943 35.7974C94.9249 35.8037 94.8587 35.8291 94.803 35.8709L89.283 39.0599C89.1346 39.1552 89.0154 39.2898 88.9386 39.4486C88.8619 39.6074 88.8305 39.7844 88.848 39.9599L89.037 41.3189C89.0381 41.3881 89.0581 41.4556 89.0949 41.5142C89.1318 41.5728 89.184 41.6201 89.2459 41.6511C89.3078 41.682 89.377 41.6954 89.4459 41.6897C89.5149 41.684 89.581 41.6595 89.637 41.6189L95.157 38.4329C95.3062 38.3367 95.426 38.2013 95.5033 38.0414C95.5805 37.8816 95.6123 37.7036 95.595 37.5269Z" fill="#E6E6E6"/>
<path d="M104.124 32.607L103.935 31.251C103.935 31.1813 103.916 31.1131 103.879 31.0538C103.842 30.9946 103.79 30.9467 103.728 30.9156C103.665 30.8844 103.596 30.8712 103.526 30.8775C103.457 30.8837 103.391 30.9092 103.335 30.951L97.818 34.137C97.6691 34.2318 97.5495 34.3663 97.4727 34.5252C97.3959 34.6842 97.3648 34.8614 97.383 35.037L97.572 36.393C97.5731 36.4622 97.5931 36.5297 97.63 36.5883C97.6668 36.6469 97.719 36.6942 97.7809 36.7252C97.8428 36.7561 97.912 36.7695 97.9809 36.7638C98.0499 36.7581 98.116 36.7336 98.172 36.693L103.692 33.507C103.84 33.4112 103.958 33.2766 104.035 33.1178C104.111 32.959 104.142 32.7822 104.124 32.607Z" fill="#E6E6E6"/>
<path opacity="0.2" d="M46.4997 54.114C46.4726 53.7176 46.5544 53.3213 46.7363 52.9681C46.9182 52.6148 47.1933 52.3181 47.5317 52.11C48.2037 51.723 48.8307 51.99 48.9357 52.71C48.9636 53.1068 48.8817 53.5036 48.6992 53.8571C48.5166 54.2105 48.2404 54.507 47.9007 54.714C47.2317 55.101 46.6047 54.834 46.4997 54.114Z" fill="black"/>
<path opacity="0.2" d="M55.041 49.1999C55.0132 48.8034 55.0947 48.4069 55.2767 48.0535C55.4586 47.7002 55.7341 47.4035 56.073 47.1959C56.745 46.8059 57.372 47.0729 57.477 47.7959C57.5046 48.1923 57.4226 48.5886 57.2401 48.9415C57.0575 49.2945 56.7814 49.5904 56.442 49.7969C55.77 50.1719 55.143 49.9049 55.041 49.1999Z" fill="black"/>
<path opacity="0.2" d="M63.5639 44.2648C63.5361 43.8683 63.6176 43.4718 63.7996 43.1185C63.9816 42.7651 64.257 42.4685 64.5959 42.2608C65.2679 41.8708 65.8979 42.1378 65.9999 42.8608C66.0275 43.2569 65.9459 43.6529 65.7639 44.0057C65.5819 44.3585 65.3066 44.6547 64.9679 44.8618C64.2959 45.2488 63.6659 44.9818 63.5639 44.2648Z" fill="black"/>
<path opacity="0.2" d="M80.622 34.416C80.5942 34.0195 80.6757 33.623 80.8577 33.2696C81.0397 32.9163 81.3151 32.6196 81.654 32.412C82.326 32.025 82.953 32.292 83.055 33.012C83.0842 33.4086 83.0033 33.8057 82.8212 34.1593C82.6391 34.5129 82.3629 34.8093 82.023 35.016C81.351 35.4 80.724 35.136 80.622 34.416Z" fill="black"/>
<path opacity="0.2" d="M89.1599 29.4899C89.1314 29.0933 89.2126 28.6966 89.3946 28.3431C89.5767 27.9896 89.8525 27.6931 90.1919 27.4859C90.8639 27.0959 91.4909 27.3629 91.5959 28.0859C91.6237 28.4827 91.5419 28.8796 91.3593 29.233C91.1768 29.5865 90.9006 29.8829 90.5609 30.0899C89.8889 30.4739 89.2619 30.2069 89.1599 29.4899Z" fill="black"/>
<path opacity="0.2" d="M97.6831 24.5668C97.6553 24.1703 97.7368 23.7738 97.9187 23.4205C98.1007 23.0671 98.3761 22.7705 98.7151 22.5628C99.3871 22.1728 100.017 22.4398 100.119 23.1628C100.147 23.5589 100.065 23.9549 99.883 24.3077C99.7011 24.6605 99.4257 24.9567 99.0871 25.1638C98.4001 25.5508 97.8001 25.2838 97.6831 24.5668Z" fill="black"/>
<path d="M45.6181 46.0078C44.7181 45.4828 43.8361 45.4078 43.1641 45.7948C42.4921 46.1818 42.1201 46.9738 42.1201 48.0268C42.126 48.5193 42.1986 49.0088 42.3361 49.4818L42.8701 49.1818C42.7742 48.8062 42.7239 48.4204 42.7201 48.0328C42.7201 47.2048 42.9841 46.5958 43.4641 46.3198C43.6611 46.2098 43.8836 46.1539 44.1091 46.1578C44.5346 46.1781 44.9478 46.3072 45.3091 46.5328C46.9051 47.4568 48.2041 49.7068 48.2041 51.5488C48.205 51.6801 48.198 51.8113 48.1831 51.9418C48.1758 52.203 48.1067 52.4588 47.9816 52.6882C47.8564 52.9177 47.6788 53.1142 47.4631 53.2618C47.1881 53.4103 46.8708 53.4611 46.5631 53.4058C46.5026 53.5997 46.4772 53.8029 46.4881 54.0058C46.6002 54.0236 46.7136 54.0326 46.8271 54.0328C47.1575 54.0369 47.4829 53.9519 47.7691 53.7868C48.037 53.6188 48.264 53.3933 48.4337 53.1265C48.6034 52.8598 48.7115 52.5586 48.7501 52.2448C48.7905 52.017 48.8106 51.7861 48.8101 51.5548C48.8131 49.4998 47.3791 47.0248 45.6181 46.0078Z" fill="#F5F5F5"/>
<path d="M54.1557 41.0818C53.2557 40.5568 52.3737 40.4818 51.7017 40.8688C51.0297 41.2558 50.6577 42.0478 50.6577 43.1008C50.6636 43.5933 50.7362 44.0828 50.8737 44.5558L51.4077 44.2558C51.3118 43.8802 51.2615 43.4944 51.2577 43.1068C51.2577 42.2788 51.5217 41.6698 52.0017 41.3938C52.1987 41.2838 52.4212 41.2279 52.6467 41.2318C53.0722 41.2521 53.4854 41.3812 53.8467 41.6068C55.4427 42.5308 56.7417 44.7808 56.7417 46.6228C56.7426 46.7541 56.7356 46.8853 56.7207 47.0158C56.7134 47.277 56.6443 47.5328 56.5192 47.7622C56.394 47.9916 56.2164 48.1882 56.0007 48.3358C55.7257 48.4843 55.4084 48.5351 55.1007 48.4798C55.0401 48.6737 55.0147 48.8769 55.0257 49.0798C55.1378 49.0976 55.2512 49.1066 55.3647 49.1068C55.6951 49.1109 56.0205 49.0259 56.3067 48.8608C56.5746 48.6928 56.8016 48.4673 56.9713 48.2005C57.141 47.9338 57.2491 47.6326 57.2877 47.3188C57.3281 47.091 57.3482 46.8601 57.3477 46.6288C57.3507 44.5828 55.9167 42.0988 54.1557 41.0818Z" fill="#F5F5F5"/>
<path d="M62.6787 36.1589C61.7787 35.6339 60.8967 35.5589 60.2247 35.9459C59.5527 36.3329 59.1807 37.1249 59.1807 38.1779C59.1865 38.6705 59.2592 39.1599 59.3967 39.6329L59.9307 39.3329C59.8348 38.9573 59.7844 38.5716 59.7807 38.1839C59.7807 37.3559 60.0447 36.7469 60.5247 36.4709C60.7216 36.361 60.9441 36.3051 61.1697 36.3089C61.5952 36.3292 62.0083 36.4583 62.3697 36.6839C63.9657 37.6079 65.2647 39.8579 65.2647 41.6999C65.2656 41.8312 65.2585 41.9625 65.2437 42.0929C65.2363 42.3542 65.1673 42.6099 65.0421 42.8394C64.917 43.0688 64.7393 43.2653 64.5237 43.4129C64.2486 43.5615 63.9313 43.6122 63.6237 43.5569C63.5631 43.7509 63.5377 43.9541 63.5487 44.1569C63.6608 44.1747 63.7741 44.1838 63.8877 44.1839C64.2181 44.188 64.5435 44.1031 64.8297 43.9379C65.0975 43.77 65.3245 43.5444 65.4942 43.2777C65.6639 43.0109 65.772 42.7097 65.8107 42.3959C65.8511 42.1682 65.8712 41.9373 65.8707 41.7059C65.8737 39.6599 64.4397 37.1759 62.6787 36.1589Z" fill="#F5F5F5"/>
<path d="M79.7397 26.3249C78.8397 25.7999 77.9577 25.7249 77.2857 26.1119C76.6137 26.4989 76.2417 27.2909 76.2417 28.3439C76.2476 28.8365 76.3202 29.3259 76.4577 29.7989L76.9917 29.4989C76.8958 29.1233 76.8455 28.7376 76.8417 28.3499C76.8417 27.5219 77.1057 26.9129 77.5857 26.6369C77.7826 26.527 78.0052 26.4711 78.2307 26.4749C78.6562 26.4952 79.0694 26.6244 79.4307 26.8499C81.0267 27.7739 82.3257 30.0239 82.3257 31.8659C82.3266 31.9972 82.3196 32.1285 82.3047 32.2589C82.2974 32.5202 82.2283 32.7759 82.1031 33.0054C81.978 33.2348 81.8004 33.4313 81.5847 33.5789C81.3097 33.7275 80.9924 33.7783 80.6847 33.7229C80.6241 33.9169 80.5987 34.1201 80.6097 34.3229C80.7218 34.3408 80.8352 34.3498 80.9487 34.3499C81.2791 34.3541 81.6045 34.2691 81.8907 34.1039C82.1585 33.936 82.3856 33.7104 82.5553 33.4437C82.725 33.1769 82.8331 32.8757 82.8717 32.5619C82.9121 32.3342 82.9322 32.1033 82.9317 31.8719C82.9347 29.8259 81.5007 27.3419 79.7397 26.3249Z" fill="#F5F5F5"/>
<path d="M88.2778 21.396C87.3778 20.871 86.4958 20.796 85.8238 21.183C85.1518 21.57 84.7798 22.362 84.7798 23.415C84.7856 23.9075 84.8583 24.397 84.9958 24.87L85.5298 24.57C85.4339 24.1944 85.3836 23.8086 85.3798 23.421C85.3798 22.593 85.6438 21.984 86.1238 21.708C86.3207 21.598 86.5433 21.5421 86.7688 21.546C87.1943 21.5663 87.6074 21.6954 87.9688 21.921C89.5648 22.845 90.8638 25.095 90.8638 26.937C90.8647 27.0683 90.8577 27.1995 90.8428 27.33C90.8354 27.5912 90.7664 27.847 90.6412 28.0764C90.5161 28.3058 90.3384 28.5024 90.1228 28.65C89.8478 28.7985 89.5304 28.8493 89.2228 28.794C89.1622 28.9879 89.1368 29.1911 89.1478 29.394C89.2599 29.4118 89.3733 29.4208 89.4868 29.421C89.8172 29.4251 90.1426 29.3401 90.4288 29.175C90.6966 29.007 90.9236 28.7815 91.0933 28.5147C91.263 28.248 91.3711 27.9468 91.4098 27.633C91.4502 27.4052 91.4703 27.1743 91.4698 26.943C91.4728 24.9 90.0388 22.413 88.2778 21.396Z" fill="#F5F5F5"/>
<path d="M96.8008 16.4729C95.9008 15.9479 95.0188 15.8729 94.3468 16.2599C93.6748 16.6469 93.2998 17.4389 93.2998 18.4919C93.3057 18.9844 93.3783 19.4739 93.5158 19.9469L94.0498 19.6469C93.9539 19.2713 93.9036 18.8855 93.8998 18.4979C93.8998 17.6699 94.1638 17.0609 94.6438 16.7849C94.8407 16.6749 95.0633 16.619 95.2888 16.6229C95.7143 16.6432 96.1275 16.7723 96.4888 16.9979C98.0848 17.9219 99.3838 20.1719 99.3838 22.0139C99.3847 22.1452 99.3777 22.2764 99.3628 22.4069C99.3555 22.6681 99.2864 22.9239 99.1613 23.1533C99.0361 23.3827 98.8585 23.5793 98.6428 23.7269C98.3678 23.8754 98.0505 23.9262 97.7428 23.8709C97.6822 24.0648 97.6568 24.268 97.6678 24.4709C97.7799 24.4887 97.8933 24.4977 98.0068 24.4979C98.3372 24.502 98.6626 24.417 98.9488 24.2519C99.2166 24.0839 99.4437 23.8584 99.6134 23.5916C99.7831 23.3249 99.8912 23.0237 99.9298 22.7099C99.9702 22.4821 99.9903 22.2512 99.9898 22.0199C99.9958 19.9739 98.5618 17.4899 96.8008 16.4729Z" fill="#F5F5F5"/>
<path d="M105.666 94.5001L103.65 98.0011C103.518 98.2199 103.478 98.4824 103.539 98.7308C103.6 98.9792 103.757 99.1931 103.976 99.3256C104.194 99.4581 104.457 99.4982 104.705 99.4372C104.954 99.3761 105.168 99.2189 105.3 99.0001L107.328 95.4781C107.523 95.1421 107.313 94.6531 106.857 94.3891C106.401 94.1251 105.861 94.1731 105.666 94.5001Z" fill="#455A64"/>
<path d="M121.71 88.335L125.211 90.351C125.319 90.4176 125.439 90.4622 125.564 90.482C125.689 90.5019 125.816 90.4967 125.939 90.4667C126.062 90.4367 126.178 90.3826 126.28 90.3074C126.382 90.2323 126.468 90.1376 126.533 90.0289C126.597 89.9202 126.64 89.7997 126.658 89.6744C126.676 89.5491 126.668 89.4215 126.637 89.2991C126.605 89.1766 126.549 89.0617 126.472 88.9611C126.395 88.8605 126.299 88.7761 126.189 88.713L122.667 86.7C122.331 86.505 121.842 86.715 121.578 87.171C121.314 87.627 121.374 88.14 121.71 88.335Z" fill="#455A64"/>
<path d="M125.589 72.5521H125.571L117.042 67.6291H117.018C115.146 66.5641 112.566 66.7291 109.719 68.3671C103.998 71.6671 99.3604 79.7041 99.3604 86.3101C99.3604 89.6101 100.515 91.9171 102.378 93.0031H102.393L110.922 97.9291H110.943C112.815 99.0001 115.398 98.8291 118.248 97.1941C123.966 93.8941 128.604 85.8571 128.604 79.2541C128.604 75.9541 127.452 73.6381 125.589 72.5521Z" fill="#3686F7"/>
<path opacity="0.1" d="M110.784 97.8302L102.384 92.9882H102.366C100.503 91.8992 99.3511 89.5832 99.3511 86.2952C99.3511 83.3492 100.275 80.1212 101.802 77.1572L110.331 82.0802C108.801 85.0442 107.88 88.2722 107.88 91.2182C107.886 94.4282 108.99 96.7142 110.784 97.8302Z" fill="black"/>
<path opacity="0.4" d="M125.572 89.4535C129.617 82.4469 129.618 74.8739 125.573 72.5386C121.528 70.2032 114.969 73.9899 110.924 80.9965C106.879 88.003 106.879 95.576 110.924 97.9114C114.969 100.247 121.527 96.46 125.572 89.4535Z" fill="white"/>
<path d="M113.619 96.5011C110.343 96.5011 109.989 92.7991 109.989 91.2061C109.989 85.3801 114.252 78.0061 119.289 75.0841C120.573 74.3431 121.809 73.9531 122.865 73.9531C126.141 73.9531 126.495 77.6551 126.495 79.2481C126.495 85.0741 122.232 92.4481 117.195 95.3701C115.908 96.1111 114.672 96.5011 113.619 96.5011Z" fill="#FAFAFA"/>
<path d="M115.95 91.977C115.934 91.9799 115.918 91.9799 115.902 91.977C115.865 91.9634 115.834 91.9358 115.817 91.8999C115.799 91.864 115.797 91.8228 115.809 91.785L118.104 85.23C118.117 85.1922 118.145 85.1612 118.181 85.1437C118.217 85.1263 118.258 85.1239 118.296 85.137C118.334 85.1501 118.365 85.1777 118.382 85.2138C118.4 85.2498 118.402 85.2912 118.389 85.329L116.1 91.875C116.09 91.9063 116.07 91.9334 116.043 91.9519C116.015 91.9704 115.983 91.9792 115.95 91.977Z" fill="#3686F7"/>
<path d="M121.686 87.207C121.625 87.2081 121.565 87.1958 121.509 87.171L117.798 85.566V78.834C117.798 78.7147 117.846 78.6002 117.93 78.5158C118.015 78.4314 118.129 78.384 118.248 78.384C118.368 78.384 118.482 78.4314 118.567 78.5158C118.651 78.6002 118.698 78.7147 118.698 78.834V84.975L121.866 86.346C121.96 86.3879 122.037 86.4606 122.084 86.5522C122.131 86.6437 122.145 86.7485 122.124 86.8491C122.103 86.9498 122.048 87.0401 121.968 87.1053C121.889 87.1704 121.789 87.2063 121.686 87.207Z" fill="#37474F"/>
<path d="M118.248 83.8202C118.92 83.4302 119.466 83.7452 119.466 84.5222C119.441 84.943 119.318 85.3521 119.107 85.7168C118.895 86.0815 118.601 86.3915 118.248 86.6222C117.573 87.0122 117.027 86.6972 117.027 85.9172C117.053 85.4966 117.177 85.0879 117.389 84.7238C117.601 84.3597 117.895 84.0502 118.248 83.8202Z" fill="#3686F7"/>
<path d="M108.336 78.9902C106.866 81.5312 104.097 82.6832 102.015 81.4802C100.794 80.7741 99.9031 79.6117 99.5388 78.2488C99.1745 76.8859 99.3666 75.434 100.073 74.2127C100.779 72.9914 101.941 72.1006 103.304 71.7363C104.667 71.372 106.119 71.5641 107.34 72.2702C109.416 73.5002 109.8 76.4462 108.336 78.9902Z" fill="#455A64"/>
<path d="M102.015 81.4802C104.097 82.6802 106.866 81.5312 108.336 78.9902C108.665 78.4206 108.908 77.8061 109.059 77.1662C108.975 77.2772 106.527 80.3972 103.485 79.5182C100.389 78.6182 99.8073 76.2392 100.074 74.2112C99.7243 74.8159 99.4969 75.4836 99.4051 76.1762C99.3132 76.8688 99.3587 77.5728 99.5389 78.2478C99.7192 78.9228 100.031 79.5557 100.456 80.1103C100.88 80.665 101.41 81.1304 102.015 81.4802Z" fill="#37474F"/>
<path d="M101.16 73.6952L99.5821 72.7952C99.4745 72.7286 99.3547 72.684 99.2297 72.6642C99.1047 72.6443 98.977 72.6495 98.854 72.6795C98.7311 72.7095 98.6153 72.7636 98.5135 72.8388C98.4116 72.9139 98.3258 73.0086 98.2609 73.1173C98.196 73.226 98.1534 73.3464 98.1355 73.4717C98.1177 73.5971 98.1249 73.7247 98.1569 73.8471C98.1888 73.9696 98.2448 74.0845 98.3216 74.1851C98.3984 74.2857 98.4944 74.3701 98.6041 74.4332L100.2 75.3572C100.539 75.5522 101.028 75.3422 101.292 74.8862C101.556 74.4302 101.496 73.8902 101.16 73.6952Z" fill="#3686F7"/>
<path d="M124.698 66.0841L125.598 64.5091C125.665 64.4015 125.709 64.2817 125.729 64.1567C125.749 64.0317 125.744 63.904 125.714 63.781C125.684 63.6581 125.63 63.5423 125.554 63.4405C125.479 63.3386 125.385 63.2528 125.276 63.1879C125.167 63.123 125.047 63.0804 124.921 63.0625C124.796 63.0447 124.668 63.0519 124.546 63.0839C124.424 63.1158 124.309 63.1718 124.208 63.2486C124.107 63.3254 124.023 63.4214 123.96 63.5311L123.036 65.1271C122.841 65.4631 123.036 65.9521 123.507 66.2161C123.978 66.4801 124.5 66.4231 124.698 66.0841Z" fill="#3686F7"/>
<path d="M117.075 66.7351C117.425 66.1293 117.89 65.5984 118.445 65.1726C119 64.7468 119.633 64.4344 120.309 64.2534C120.984 64.0723 121.689 64.0261 122.382 64.1173C123.076 64.2085 123.744 64.4354 124.35 64.7851C124.956 65.1347 125.487 65.6002 125.913 66.1551C126.338 66.7099 126.651 67.3432 126.832 68.0187C127.013 68.6943 127.059 69.3989 126.968 70.0923C126.877 70.7857 126.65 71.4543 126.3 72.0601L117.075 66.7351Z" fill="#455A64"/>
<path d="M125.13 65.3521C125.43 65.9791 126.246 68.6341 125.13 69.2941C124.014 69.9541 118.86 67.7641 118.86 67.7641L126.3 72.0601C126.92 70.9815 127.142 69.7199 126.929 68.4944C126.715 67.269 126.079 66.1572 125.13 65.3521Z" fill="#37474F"/>
<path d="M91.4608 80.5532C86.1508 73.4162 84.4048 72.6212 83.4058 72.3782L85.1578 77.1782L88.7998 81.8492" fill="#FFA8A7"/>
<path d="M82.8867 72.3C82.8867 72.3 84.0147 71.958 85.6467 73.557C87.2787 75.156 89.2467 77.487 89.2467 77.487C89.2467 77.487 88.7157 79.392 87.0567 79.983L84.6567 77.487L82.8867 72.3Z" fill="#3686F7"/>
<path opacity="0.1" d="M82.8867 72.3C82.8867 72.3 84.0147 71.958 85.6467 73.557C87.2787 75.156 89.2467 77.487 89.2467 77.487C89.2467 77.487 88.7157 79.392 87.0567 79.983L84.6567 77.487L82.8867 72.3Z" fill="black"/>
<path d="M83.921 68.3512C85.5594 67.9646 86.574 66.3229 86.1873 64.6846C85.8007 63.0462 84.159 62.0316 82.5207 62.4183C80.8823 62.8049 79.8677 64.4465 80.2544 66.0849C80.641 67.7232 82.2827 68.7379 83.921 68.3512Z" fill="#263238"/>
<path d="M75.9238 120.636H78.0718V116.961H75.9238V120.636Z" fill="#FFA8A7"/>
<path d="M82.9258 117.966L85.0708 118.041L85.1788 114.15L83.0308 114.075L82.9258 117.966Z" fill="#FFA8A7"/>
<path d="M76.0619 87.8221V102.675C76.0109 103.275 75.5759 104.286 75.4619 106.797C75.3179 109.878 75.7889 118.356 75.7889 118.356C75.7889 118.356 76.7939 119.355 78.2159 118.356C78.2159 118.356 80.1209 106.254 80.5079 103.203C80.8439 100.539 81.4079 93.3031 81.4079 93.3031L82.692 104.202C82.692 104.202 82.3409 106.203 82.2659 107.613C82.1909 109.023 82.8839 116.562 82.8839 116.562C83.232 116.779 83.6308 116.902 84.0409 116.917C84.4509 116.932 84.8577 116.84 85.2209 116.649C85.2209 116.649 86.6909 105.354 86.9129 104.079C87.1349 102.804 86.1059 87.8191 86.1059 87.8191L76.0619 87.8221Z" fill="#37474F"/>
<path d="M78.126 72.9872C77.8253 73.0289 77.529 73.0982 77.241 73.1942C76.641 73.4252 76.38 74.1512 76.239 74.7902C76.121 75.3262 76.0616 75.8734 76.062 76.4222V87.8222C77.562 89.4602 82.818 90.2222 86.106 87.8222C86.106 87.8222 86.043 77.7542 85.806 76.0982C85.377 73.2242 84.006 72.1982 82.62 72.3062L79.305 72.7802L78.126 72.9872Z" fill="#3686F7"/>
<path d="M77.9517 67.5481C77.9517 67.5481 78.4467 69.8671 78.6447 70.2481C78.7754 70.4819 78.9898 70.6576 79.2447 70.7401L79.2087 69.1051L77.9517 67.5481Z" fill="#263238"/>
<path d="M78.573 64.221C78.4001 64.2013 78.2249 64.2211 78.0608 64.2787C77.8966 64.3364 77.7476 64.4305 77.625 64.554C77.22 64.971 77.448 66.273 77.952 67.554L78.885 67.659L78.573 64.221Z" fill="#263238"/>
<path d="M79.1641 67.653C78.9751 67.767 78.7111 67.407 78.4801 67.167C78.2491 66.927 77.4991 66.597 77.1241 67.386C76.7491 68.175 77.4541 69.255 78.0451 69.441C79.0651 69.759 79.2181 69.105 79.2181 69.105L79.2961 72.783C79.5212 73.2763 79.8651 73.706 80.297 74.0337C80.729 74.3615 81.2354 74.577 81.7711 74.661C83.5711 74.904 83.2051 73.416 82.6111 72.684V71.565C83.0652 71.638 83.5258 71.6621 83.9851 71.637C84.7351 71.52 85.2061 70.929 85.4341 70.119C85.8001 68.814 85.9381 67.764 85.6291 65.199C85.2871 62.391 82.0291 62.361 80.2561 63.471C78.4831 64.581 79.1641 67.653 79.1641 67.653Z" fill="#FFA8A7"/>
<path d="M79.1639 67.9681C79.0679 67.9681 78.7109 67.3681 78.4799 67.1671C78.1589 66.8671 78.5729 64.2211 78.5729 64.2211C78.487 63.9926 78.4696 63.7441 78.5229 63.5059C78.5762 63.2676 78.6978 63.0502 78.8729 62.8801C79.3109 62.3941 80.0489 62.3431 81.3059 62.1451C81.9659 62.0401 82.9679 61.8451 83.6279 61.7341C84.4139 61.5871 85.0649 61.4341 85.6199 61.9141C85.8388 62.1022 85.9936 62.3537 86.063 62.6338C86.1323 62.9139 86.1127 63.2087 86.0069 63.4771C85.9496 63.6 85.8738 63.7134 85.7819 63.8131C85.6229 63.9901 85.5959 64.2301 85.3709 64.3021C85.3709 64.3021 84.8939 64.7341 83.6999 64.8781C82.6004 64.9603 81.4955 64.9392 80.3999 64.8151C80.0519 64.7671 79.9589 64.8781 79.7729 65.7931C79.6139 66.6001 79.4789 67.9621 79.1639 67.9681Z" fill="#263238"/>
<path d="M78.5758 64.428L77.4478 63.828C77.4834 63.752 77.5342 63.684 77.597 63.6282C77.6598 63.5725 77.7334 63.5301 77.8131 63.5037C77.8928 63.4773 77.9771 63.4675 78.0608 63.4747C78.1444 63.482 78.2258 63.5063 78.2998 63.546C78.4493 63.6303 78.5611 63.7685 78.6124 63.9324C78.6636 64.0962 78.6506 64.2735 78.5758 64.428Z" fill="#263238"/>
<path d="M82.608 71.5651C82.608 71.5651 80.937 71.2291 80.352 70.9171C80.0077 70.7389 79.7254 70.4607 79.542 70.1191C79.6311 70.4604 79.7871 70.7806 80.001 71.0611C80.43 71.6071 82.608 72.0121 82.608 72.0121V71.5651Z" fill="#F28F8F"/>
<path d="M82.3139 67.5421C82.3115 67.608 82.2898 67.6717 82.2515 67.7254C82.2132 67.779 82.1599 67.8202 82.0984 67.8438C82.0368 67.8674 81.9696 67.8724 81.9053 67.8581C81.8409 67.8438 81.7822 67.8109 81.7364 67.7635C81.6906 67.716 81.6597 67.6562 81.6477 67.5914C81.6357 67.5265 81.643 67.4596 81.6688 67.3989C81.6945 67.3382 81.7375 67.2864 81.7925 67.25C81.8475 67.2136 81.9119 67.1941 81.9779 67.1941C82.0229 67.1945 82.0674 67.2038 82.1088 67.2216C82.1502 67.2394 82.1876 67.2652 82.2189 67.2976C82.2502 67.33 82.2747 67.3683 82.291 67.4103C82.3073 67.4523 82.3151 67.4971 82.3139 67.5421Z" fill="#263238"/>
<path d="M81.9571 66.279L81.2401 66.672C81.1898 66.5736 81.1792 66.4596 81.2105 66.3536C81.2417 66.2475 81.3125 66.1575 81.4081 66.102C81.4555 66.0764 81.5076 66.0606 81.5613 66.0556C81.615 66.0507 81.6691 66.0567 81.7204 66.0732C81.7717 66.0897 81.8191 66.1165 81.8598 66.1519C81.9005 66.1873 81.9336 66.2305 81.9571 66.279Z" fill="#263238"/>
<path d="M82.4578 69.552L83.2228 69.852C83.2064 69.9033 83.1796 69.9508 83.1443 69.9915C83.109 70.0323 83.0657 70.0654 83.0172 70.089C82.9687 70.1125 82.9159 70.126 82.8621 70.1286C82.8082 70.1312 82.7544 70.1228 82.7038 70.104C82.6511 70.0844 82.6028 70.0545 82.5617 70.0159C82.5207 69.9774 82.4878 69.9311 82.4648 69.8797C82.4419 69.8283 82.4295 69.7728 82.4283 69.7166C82.4271 69.6603 82.4371 69.6043 82.4578 69.552Z" fill="#F28F8F"/>
<path d="M85.3019 66.5582L84.6479 66.0542C84.6786 66.0097 84.7181 65.972 84.7638 65.9434C84.8096 65.9147 84.8608 65.8957 84.9142 65.8876C84.9675 65.8794 85.022 65.8823 85.0743 65.896C85.1265 65.9097 85.1754 65.9339 85.2179 65.9672C85.3053 66.036 85.3628 66.1358 85.3784 66.2458C85.3941 66.3559 85.3667 66.4678 85.3019 66.5582Z" fill="#263238"/>
<path d="M85.1008 67.4492C85.1016 67.494 85.0935 67.5384 85.077 67.5801C85.0605 67.6217 85.0359 67.6596 85.0047 67.6917C84.9734 67.7238 84.9362 67.7494 84.895 67.7669C84.8538 67.7845 84.8095 67.7938 84.7648 67.7942C84.6954 67.7966 84.6268 67.7781 84.568 67.7413C84.5091 67.7044 84.4626 67.6507 84.4345 67.5872C84.4064 67.5237 84.398 67.4532 84.4103 67.3848C84.4226 67.3165 84.455 67.2533 84.5035 67.2036C84.5519 67.1538 84.6142 67.1197 84.6822 67.1056C84.7502 67.0915 84.8209 67.0981 84.8851 67.1245C84.9494 67.1509 85.0042 67.196 85.0427 67.2538C85.0811 67.3117 85.1013 67.3797 85.1008 67.4492Z" fill="#263238"/>
<path d="M83.2861 66.822L83.3971 68.838L84.4501 68.481L83.2861 66.822Z" fill="#F28F8F"/>
<path d="M78.069 119.577V119.277C78.276 119.364 78.7529 121.188 79.6049 121.977C80.2829 122.595 81.2069 123.306 81.4409 123.996C81.6749 124.686 80.1539 125.109 79.5209 124.995C78.7859 124.866 77.5109 124.347 77.1929 123.867C76.8749 123.387 76.7219 122.667 76.4609 122.328C76.1999 121.989 75.6029 121.584 75.4619 121.176C75.4193 120.796 75.4613 120.41 75.5849 120.048C75.6839 119.67 75.7919 119.253 75.9209 119.289C75.9209 119.334 75.9209 119.523 75.9209 119.523C76.2278 119.762 76.6063 119.89 76.9949 119.886C77.3099 119.88 78.072 119.817 78.069 119.577Z" fill="#263238"/>
<path d="M85.0919 117.378C85.2059 117.378 85.2959 117.54 85.5419 117.807C85.91 118.175 86.3368 118.479 86.8049 118.707C87.6089 119.112 89.1719 119.73 89.8799 120.048C90.3209 120.249 90.2999 120.783 89.8439 121.086C89.3879 121.389 88.2839 121.608 86.9609 121.311C86.2379 121.152 85.2989 120.483 84.7049 120.519C84.1109 120.555 82.9979 120.549 82.5599 120.246C82.1219 119.943 82.2959 119.298 82.4189 118.746C82.5539 118.146 82.7489 117.213 82.9499 117.246V117.438C83.2109 117.828 84.5249 117.987 85.0919 117.702V117.378Z" fill="#263238"/>
<path d="M81.4077 93.3002C82.5213 92.9563 83.5456 92.3715 84.4077 91.5872C84.4077 91.5872 83.8317 92.6672 82.1157 93.6722L82.1517 99.5252L81.4077 93.3002Z" fill="#263238"/>
<path d="M77.3369 93.2102C76.9829 92.9102 76.7609 92.5232 76.2269 92.1302C75.8401 91.8911 75.516 91.563 75.2819 91.1732C74.9819 90.6692 74.6819 88.9891 74.5919 87.3931C74.5383 85.6108 74.7888 83.8323 75.3329 82.1341C76.0619 80.1211 77.5409 77.4212 78.0329 76.2812C78.5249 75.1412 78.2609 74.5682 77.8199 73.9892C77.3039 73.3112 76.3469 73.3081 75.4439 74.8531C74.2408 77.0008 73.2809 79.2758 72.5819 81.6361C72.1105 83.4021 71.9352 85.2339 72.0629 87.0572C72.1619 88.7462 72.5309 90.0361 73.0049 91.6591C73.1369 92.1001 73.1219 92.4601 73.2719 93.3331C73.3112 93.6978 73.4042 94.0547 73.5479 94.3922C73.7513 94.7976 74.0108 95.1722 74.3189 95.5052C74.7091 95.9278 75.2053 96.2386 75.7559 96.4052C76.0586 96.4953 76.3782 96.5128 76.6889 96.4561C77.0012 96.3998 77.2831 96.2339 77.4839 95.9881C77.5259 95.9392 77.5548 95.8803 77.5679 95.8172C77.5668 95.7051 77.5228 95.5977 77.4449 95.5172C77.0187 95.0178 76.6182 94.4972 76.2449 93.9572C75.9689 93.4922 75.8369 93.1232 75.9449 93.1442C76.0529 93.1652 76.1939 93.4442 76.5959 93.6962C76.9979 93.9482 77.4959 93.9392 77.6129 93.7142C77.7299 93.4892 77.6999 93.5162 77.3369 93.2102Z" fill="#FFA8A7"/>
<path d="M77.4837 73.125C76.6257 73.176 75.8457 73.368 74.9877 75.069C74.1297 76.77 72.7827 79.956 72.7827 79.956C73.1078 80.5379 73.5842 81.021 74.1614 81.3543C74.7386 81.6875 75.3953 81.8584 76.0617 81.849C76.0617 81.849 78.0357 77.727 78.3567 76.641C78.6777 75.555 78.8997 73.8 77.4837 73.125Z" fill="#3686F7"/>
<path opacity="0.1" d="M77.4837 73.125C76.6257 73.176 75.8457 73.368 74.9877 75.069C74.1297 76.77 72.7827 79.956 72.7827 79.956C73.1078 80.5379 73.5842 81.021 74.1614 81.3543C74.7386 81.6875 75.3953 81.8584 76.0617 81.849C76.0617 81.849 78.0357 77.727 78.3567 76.641C78.6777 75.555 78.8997 73.8 77.4837 73.125Z" fill="black"/>
<path d="M88.7998 81.8492C88.6048 82.4192 86.7328 84.1562 85.3558 84.7082C85.0297 84.8207 84.6789 84.8414 84.3418 84.7682C84.0191 84.6328 83.6718 84.5653 83.3218 84.5702C82.9198 84.6062 82.5118 84.6842 82.1068 84.7322C82.0225 84.7349 81.9397 84.7554 81.8638 84.7922C81.6178 84.9272 81.7588 85.1342 81.9538 85.2092C82.2681 85.3225 82.5898 85.4137 82.9168 85.4822V85.5692C82.079 85.8621 81.2047 86.0377 80.3188 86.0912C80.1614 86.0927 80.0087 86.1454 79.8838 86.2412C79.8329 86.2982 79.7972 86.3671 79.7799 86.4416C79.7626 86.516 79.7643 86.5936 79.7848 86.6672C79.8268 86.8132 79.8982 86.949 79.9948 87.0662C80.3564 87.6134 80.919 87.996 81.5608 88.1312C82.2094 88.1807 82.8614 88.0991 83.4778 87.8912C83.7758 87.8072 84.0698 87.7142 84.3598 87.6122C85.2089 87.2996 86.0358 86.9298 86.8348 86.5052C88.5459 85.6072 90.1331 84.4909 91.5568 83.1842C92.4208 82.3412 92.2078 81.5312 91.4818 80.5532" fill="#FFA8A7"/>
<path d="M85.1548 84.762C85.1548 84.762 85.4548 84.651 85.7968 85.2C86.1388 85.749 86.3548 86.751 85.9258 86.949C86.0735 86.9575 86.2209 86.9274 86.3535 86.8617C86.486 86.7959 86.5992 86.6968 86.6818 86.574C86.7699 86.1829 86.7456 85.7749 86.6119 85.3969C86.4781 85.019 86.2403 84.6866 85.9258 84.438C85.637 84.4441 85.3613 84.56 85.1548 84.762Z" fill="#37474F"/>
<path d="M86.7421 84.9631C86.8063 85.0717 86.8367 85.1969 86.8296 85.3228C86.8224 85.4488 86.778 85.5697 86.7019 85.6704C86.6258 85.771 86.5215 85.8467 86.4023 85.8879C86.2831 85.9291 86.1543 85.9339 86.0323 85.9017C85.9104 85.8695 85.8007 85.8018 85.7173 85.7071C85.634 85.6125 85.5806 85.4952 85.5641 85.3701C85.5475 85.245 85.5686 85.1179 85.6245 85.0048C85.6804 84.8918 85.7687 84.7979 85.8781 84.7351C86.023 84.6511 86.1952 84.6279 86.3572 84.6706C86.5191 84.7133 86.6575 84.8185 86.7421 84.9631Z" fill="#3686F7"/>
<path d="M86.595 85.0472C86.6417 85.1273 86.6635 85.2195 86.6577 85.3121C86.6519 85.4047 86.6187 85.4934 86.5624 85.5671C86.5061 85.6408 86.4291 85.6961 86.3413 85.7259C86.2534 85.7558 86.1587 85.7588 86.0691 85.7348C85.9796 85.7107 85.8992 85.6605 85.8382 85.5906C85.7771 85.5208 85.7383 85.4344 85.7265 85.3424C85.7147 85.2503 85.7305 85.1569 85.7719 85.0739C85.8133 84.9909 85.8784 84.9221 85.959 84.8762C86.012 84.8455 86.0705 84.8257 86.1311 84.8177C86.1918 84.8097 86.2534 84.8138 86.3125 84.8297C86.3716 84.8456 86.4269 84.8729 86.4754 84.9103C86.5239 84.9476 86.5645 84.9941 86.595 85.0472Z" fill="#FAFAFA"/>
</svg>
